M48
; DRILL file {KiCad 5.1.4} date 2019年09月14日 16時37分02秒
; FORMAT={-:-/ absolute / inch / decimal}
; #@! TF.CreationDate,2019-09-14T16:37:02+09:00
; #@! TF.GenerationSoftware,Kicad,Pcbnew,5.1.4
; #@! TF.FileFunction,Plated,1,2,PTH
FMAT,2
INCH
T1C0.0157
T2C0.0320
T3C0.0394
T4C0.0512
T5C0.0591
%
G90
G05
T1
X3.3199Y-3.8089
X3.3248Y-2.3138
X3.3278Y-3.0638
X3.6171Y-4.0079
X3.6201Y-3.2559
X3.625Y-2.5089
X3.687Y-3.6317
X3.688Y-2.8846
X3.69Y-2.1445
X3.8583Y-3.3187
X3.8671Y-4.0667
X3.8907Y-2.2431
X3.9439Y-2.0837
X4.0689Y-3.8167
X4.0691Y-3.0687
X4.0797Y-2.3148
X4.3701Y-2.4961
X4.44Y-2.1386
X4.44Y-3.6376
X4.4409Y-2.8896
X4.6115Y-4.0582
X4.6171Y-3.3122
X4.6388Y-2.3327
X4.8181Y-2.6445
X4.8181Y-3.3925
X4.8366Y-2.0913
X4.9195Y-2.1868
X5.1191Y-2.0719
X5.187Y-1.7075
X5.189Y-2.4545
X5.1929Y-3.2026
X5.3268Y-3.9803
X5.3346Y-2.0162
X5.3524Y-2.8945
X5.3583Y-3.6425
X5.3632Y-2.1484
X5.4508Y-1.9941
X5.4646Y-4.2402
X5.5654Y-2.4311
X5.5679Y-1.6856
X5.5681Y-3.9299
X5.5683Y-3.1821
X5.573Y-4.6829
X5.6171Y-2.0923
X5.6339Y-4.3425
X5.865Y-4.143
X5.867Y-3.376
X5.8671Y-2.5768
X5.9301Y-2.239
X5.9331Y-1.4949
X5.9341Y-4.487
X5.935Y-2.9978
X5.937Y-3.736
X6.0295Y-3.5394
X6.0998Y-2.0949
X6.1083Y-4.925
X6.1093Y-3.4232
X6.1093Y-4.1732
X6.1348Y-1.6927
X6.1557Y-2.4004
X6.185Y-2.7087
X6.3114Y-2.6418
X6.3132Y-4.1396
X6.3134Y-3.3917
X6.3152Y-4.8896
X6.3186Y-1.9009
X6.6102Y-2.7923
X6.6152Y-2.0413
X6.6152Y-4.3297
X6.6181Y-2.9921
X6.6831Y-1.7094
X6.6831Y-4.7094
X6.686Y-3.9545
X6.687Y-3.2104
X6.688Y-2.4575
X6.8346Y-4.5474
X6.8563Y-2.8896
X6.8563Y-5.1376
X6.8573Y-3.6406
X6.8829Y-1.9093
X6.8829Y-4.1555
X6.9242Y-2.6604
X6.9301Y-2.5443
X7.0446Y-2.8023
X7.0531Y-3.1081
X7.0583Y-3.6157
X7.0612Y-4.3522
X7.0833Y-5.2381
X7.0935Y-2.0392
X7.0935Y-2.864
X7.2559Y-3.9518
X7.3612Y-2.9665
X7.3817Y-5.3337
X7.4301Y-3.4161
X7.4301Y-4.9093
X7.4311Y-4.1652
X7.4331Y-1.924
X7.4331Y-2.6691
X7.4606Y-3.2411
X7.5194Y-3.2405
X7.5413Y-3.9498
X7.544Y-3.1654
X7.5669Y-3.1988
X7.5797Y-2.9762
X7.6171Y-3.1978
X7.6201Y-2.6278
X7.6309Y-2.1179
X7.6309Y-4.3691
X7.6309Y-5.1159
X7.6319Y-3.6228
X7.6585Y-2.3937
X7.6594Y-3.001
X7.6801Y-2.7854
X7.686Y-2.0069
X7.686Y-2.1348
X7.7242Y-3.1986
X7.7854Y-3.1374
X7.8152Y-5.1061
X7.8189Y-3.0756
X7.8191Y-4.362
X7.8407Y-3.0245
X7.8485Y-2.9186
X7.8494Y-2.3194
X7.8504Y-2.7167
X7.8504Y-2.8167
X7.8528Y-2.6506
X7.8583Y-2.4094
X7.8583Y-2.5118
X7.8791Y-2.0344
X7.8917Y-2.6506
X7.8996Y-2.9114
X7.8996Y-3.1248
X7.9341Y-2.2429
X7.9409Y-2.1569
X7.9409Y-3.5433
X7.9833Y-1.9587
X8.0848Y-3.0629
X8.0876Y-2.4138
X8.1029Y-3.0114
X8.1102Y-4.5591
X8.126Y-2.1457
X8.1407Y-3.2472
X8.1496Y-3.8346
X8.1683Y-2.9675
X8.1689Y-2.2323
X8.1781Y-4.9075
X8.1801Y-4.1663
X8.2047Y-2.3071
X8.2188Y-2.978
X8.2362Y-3.685
X8.2953Y-3.0354
X8.3146Y-1.8823
X8.3789Y-4.3681
X8.3789Y-5.1191
X8.4646Y-5.4035
T2
X3.9638Y-2.9886
X3.9638Y-3.2886
X7.7372Y-4.2819
X7.7372Y-4.5819
X5.5217Y-1.6055
X5.5217Y-1.9055
X7.7646Y-3.3823
X7.7646Y-3.5823
X5.5217Y-3.8498
X5.5217Y-4.1498
X4.0256Y-3.7366
X4.0256Y-4.0366
X5.5217Y-3.102
X5.5217Y-3.402
X6.2756Y-2.5616
X6.2756Y-2.8616
X6.2746Y-4.8094
X6.2746Y-5.1094
X3.9638Y-3.7376
X3.9638Y-4.0376
X6.9715Y-3.3763
X6.9715Y-3.6763
X6.2736Y-1.811
X6.2736Y-2.111
X4.7766Y-2.0378
X4.7766Y-2.3378
X6.2746Y-4.0594
X6.2746Y-4.3594
X7.7382Y-5.0102
X7.7382Y-5.3102
X4.7726Y-3.3124
X4.7726Y-3.6124
X4.0285Y-2.2381
X4.0285Y-2.5381
X4.0256Y-2.9886
X4.0256Y-3.2886
X7.8146Y-1.8823
X7.8146Y-1.9823
X7.8146Y-2.0823
X7.8146Y-2.1823
X7.8146Y-2.2823
X7.8146Y-2.3823
X7.8146Y-2.4823
X7.8146Y-2.5823
X7.8146Y-2.6823
X7.8146Y-2.7823
X7.8146Y-2.8823
X7.8146Y-2.9823
X8.4146Y-1.8823
X8.4146Y-1.9823
X8.4146Y-2.0823
X8.4146Y-2.1823
X8.4146Y-2.2823
X8.4146Y-2.3823
X8.4146Y-2.4823
X8.4146Y-2.5823
X8.4146Y-2.6823
X8.4146Y-2.7823
X8.4146Y-2.8823
X8.4146Y-2.9823
X6.2756Y-3.3116
X6.2756Y-3.6116
X7.9396Y-3.2823
X4.7726Y-2.5644
X4.7726Y-2.8644
X8.0146Y-3.7823
X8.0146Y-3.8823
X8.1146Y-3.7823
X8.1146Y-3.8823
X8.2146Y-3.7823
X8.2146Y-3.8823
X7.8646Y-3.3823
X7.8646Y-3.5823
X5.5217Y-2.351
X5.5217Y-2.651
X7.9396Y-3.1823
X8.0396Y-3.1823
X8.1396Y-3.1823
X8.2396Y-3.1823
X6.9675Y-4.8085
X6.9675Y-5.1085
X4.7667Y-4.0703
X4.7667Y-4.3703
X6.9882Y-2.7831
X6.9882Y-3.0831
X7.8646Y-3.2823
X7.0148Y-4.272
X7.0148Y-4.572
X3.9656Y-2.2386
X3.9656Y-2.5386
X6.9764Y-1.8114
X6.9764Y-2.1114
X7.7646Y-1.9323
X7.7646Y-2.0323
X7.7646Y-2.1323
X7.7646Y-2.2323
X7.7646Y-2.3323
X7.7646Y-2.4323
X7.7646Y-2.5323
X7.7646Y-2.6323
X7.7646Y-2.7323
X7.7646Y-2.8323
X7.7646Y-2.9323
X7.7646Y-3.0323
X8.3646Y-1.9323
X8.3646Y-2.0323
X8.3646Y-2.1323
X8.3646Y-2.2323
X8.3646Y-2.3323
X8.3646Y-2.4323
X8.3646Y-2.5323
X8.3646Y-2.6323
X8.3646Y-2.7323
X8.3646Y-2.8323
X8.3646Y-2.9323
X8.3646Y-3.0323
X5.5217Y-4.6028
X5.5217Y-4.9028
T3
X5.019Y-3.8324
X5.019Y-4.4033
X5.1175Y-4.4033
X5.2159Y-3.8324
X5.2159Y-4.4033
T4
X8.1555Y-3.6378
X8.4114Y-3.6378
T3
G00X8.0098Y-3.3496
M15
G01X7.9902Y-3.3496
M16
G05
G00X8.0098Y-3.4461
M15
G01X7.9902Y-3.4461
M16
G05
G00X8.0689Y-3.2807
M15
G01X8.0492Y-3.2807
M16
G05
G00X8.0689Y-3.515
M15
G01X8.0492Y-3.515
M16
G05
G00X8.2264Y-3.2807
M15
G01X8.2067Y-3.2807
M16
G05
G00X8.2264Y-3.515
M15
G01X8.2067Y-3.515
M16
G05
G00X8.3445Y-3.2807
M15
G01X8.3248Y-3.2807
M16
G05
G00X8.3445Y-3.515
M15
G01X8.3248Y-3.515
M16
G05
T5
G00X4.897Y-4.1336
M15
G01X4.897Y-4.0824
M16
G05
G00X5.3379Y-4.1336
M15
G01X5.3379Y-4.0824
M16
G05
T0
M30
