M48
; DRILL file {KiCad 5.1.2} date Sun Aug 11 11:10:45 2019
; FORMAT={-:-/ absolute / metric / decimal}
; #@! TF.CreationDate,2019-08-11T11:10:45+09:00
; #@! TF.GenerationSoftware,Kicad,Pcbnew,5.1.2
FMAT,2
METRIC
T1C0.400
T2C0.813
T3C1.000
T4C1.300
T5C4.800
T6C1.200
T7C1.700
T8C1.900
T9C3.000
T10C4.000
%
G90
G05
T1
X84.325Y-96.745
X84.45Y-58.77
X84.525Y-77.82
X91.875Y-101.8
X91.95Y-82.7
X92.075Y-63.725
X93.65Y-92.245
X93.675Y-73.27
X93.725Y-54.47
X98.0Y-84.295
X98.225Y-103.295
X98.825Y-56.975
X100.175Y-52.925
X103.35Y-96.945
X103.355Y-77.945
X103.625Y-58.795
X111.0Y-63.4
X112.775Y-54.32
X112.775Y-92.395
X112.8Y-73.395
X117.133Y-103.078
X117.275Y-84.13
X117.825Y-59.25
X122.38Y-67.17
X122.38Y-86.17
X122.5Y-105.42
X122.85Y-53.12
X124.954Y-55.545
X130.025Y-52.625
X131.75Y-43.37
X131.8Y-62.345
X131.875Y-100.545
X131.9Y-81.345
X135.499Y-51.21
X135.925Y-111.495
X135.95Y-73.52
X136.1Y-92.52
X136.225Y-54.57
X138.45Y-50.65
X141.361Y-61.751
X141.424Y-42.815
X141.43Y-99.82
X141.435Y-80.825
X141.555Y-118.945
X142.675Y-53.145
X149.025Y-65.45
X149.05Y-104.625
X150.625Y-56.87
X150.7Y-37.97
X150.725Y-113.97
X150.75Y-76.145
X150.8Y-94.895
X154.934Y-53.211
X155.15Y-125.095
X155.175Y-86.95
X155.175Y-106.0
X155.825Y-42.995
X156.355Y-60.97
X160.311Y-67.101
X160.355Y-105.145
X160.36Y-86.15
X160.405Y-124.195
X160.493Y-48.282
X167.9Y-70.925
X168.025Y-51.85
X168.025Y-109.975
X169.75Y-43.42
X169.75Y-119.62
X169.825Y-100.445
X169.85Y-81.545
X169.875Y-62.42
X173.6Y-115.505
X174.15Y-73.395
X174.15Y-130.495
X174.175Y-92.47
X174.825Y-48.495
X174.825Y-105.55
X175.875Y-67.575
X176.025Y-64.625
X178.932Y-71.178
X179.149Y-78.945
X179.282Y-91.838
X179.355Y-110.545
X179.7Y-133.245
X180.175Y-51.795
X180.175Y-72.745
X184.3Y-100.375
X186.975Y-75.35
X187.495Y-135.905
X188.725Y-86.77
X188.725Y-124.695
X188.75Y-105.795
X188.8Y-48.87
X188.8Y-67.795
X189.5Y-82.325
X190.992Y-82.308
X191.55Y-100.325
X192.2Y-81.25
X192.525Y-75.595
X193.475Y-81.225
X193.55Y-66.745
X193.825Y-53.795
X193.825Y-129.945
X193.85Y-92.02
X194.55Y-76.225
X194.579Y-61.049
X195.075Y-70.75
X195.225Y-50.975
X195.225Y-54.225
X196.196Y-81.246
X197.75Y-79.691
X198.505Y-129.695
X198.6Y-78.12
X198.605Y-110.795
X199.154Y-76.823
X199.353Y-74.131
X199.375Y-58.912
X199.4Y-69.004
X199.4Y-71.544
X199.461Y-67.324
X199.6Y-61.2
X199.6Y-63.8
X199.75Y-88.7
X200.128Y-51.674
X200.45Y-67.325
X200.65Y-73.95
X200.65Y-79.37
X201.525Y-56.97
X201.7Y-54.785
X202.775Y-49.75
X205.354Y-77.796
X205.425Y-61.311
X205.813Y-76.491
X206.4Y-54.5
X206.774Y-82.479
X207.0Y-97.4
X207.475Y-75.375
X207.49Y-56.7
X207.725Y-124.65
X207.775Y-105.825
X208.4Y-58.6
X208.758Y-75.642
X209.2Y-93.6
X210.7Y-77.1
X211.19Y-47.81
X212.825Y-110.95
X212.825Y-130.025
T2
X159.375Y-103.11
X159.375Y-110.73
X201.665Y-83.37
X100.58Y-75.91
X100.58Y-83.53
X199.76Y-85.91
X199.76Y-90.99
X100.625Y-56.86
X100.625Y-64.48
X196.55Y-127.66
X196.55Y-135.28
X140.3Y-97.785
X140.3Y-105.405
X199.76Y-83.37
X140.325Y-40.78
X140.325Y-48.4
X102.425Y-56.847
X102.425Y-64.468
X121.425Y-103.385
X121.425Y-111.005
X140.45Y-116.91
X140.45Y-124.53
X198.49Y-47.81
X198.49Y-50.35
X198.49Y-52.89
X198.49Y-55.43
X198.49Y-57.97
X198.49Y-60.51
X198.49Y-63.05
X198.49Y-65.59
X198.49Y-68.13
X198.49Y-70.67
X198.49Y-73.21
X198.49Y-75.75
X213.73Y-47.81
X213.73Y-50.35
X213.73Y-52.89
X213.73Y-55.43
X213.73Y-57.97
X213.73Y-60.51
X213.73Y-63.05
X213.73Y-65.59
X213.73Y-68.13
X213.73Y-70.67
X213.73Y-73.21
X213.73Y-75.75
X197.22Y-85.91
X197.22Y-90.99
X176.975Y-122.135
X176.975Y-129.755
X102.35Y-75.91
X102.35Y-83.53
X140.325Y-78.79
X140.325Y-86.41
X177.2Y-46.01
X177.2Y-53.63
X159.375Y-122.16
X159.375Y-129.78
X121.325Y-51.76
X121.325Y-59.38
X203.57Y-96.07
X203.57Y-98.61
X206.11Y-96.07
X206.11Y-98.61
X208.65Y-96.07
X208.65Y-98.61
X196.525Y-108.76
X196.525Y-116.38
X159.35Y-46.0
X159.35Y-53.62
X197.22Y-49.08
X197.22Y-51.62
X197.22Y-54.16
X197.22Y-56.7
X197.22Y-59.24
X197.22Y-61.78
X197.22Y-64.32
X197.22Y-66.86
X197.22Y-69.4
X197.22Y-71.94
X197.22Y-74.48
X197.22Y-77.02
X212.46Y-49.08
X212.46Y-51.62
X212.46Y-54.16
X212.46Y-56.7
X212.46Y-59.24
X212.46Y-61.78
X212.46Y-64.32
X212.46Y-66.86
X212.46Y-69.4
X212.46Y-71.94
X212.46Y-74.48
X212.46Y-77.02
X140.325Y-59.716
X140.325Y-67.336
X177.076Y-85.757
X177.076Y-93.377
X177.5Y-70.69
X177.5Y-78.31
X201.665Y-80.83
X204.205Y-80.83
X206.745Y-80.83
X209.285Y-80.83
X178.375Y-108.51
X178.375Y-116.13
X102.35Y-94.91
X102.35Y-102.53
X159.4Y-84.115
X159.4Y-91.735
X100.58Y-94.935
X100.58Y-102.555
X121.325Y-84.135
X121.325Y-91.755
X159.4Y-65.066
X159.4Y-72.686
X121.325Y-65.135
X121.325Y-72.755
T4
X207.15Y-92.4
X213.65Y-92.4
T5
X101.525Y-67.895
X101.55Y-86.895
X139.725Y-91.12
X177.325Y-59.27
X177.3Y-97.27
X139.75Y-53.87
T6
X206.5Y-85.43
X206.5Y-87.18
X213.5Y-85.43
X213.5Y-87.18
T7
X143.92Y-42.201
X154.08Y-42.201
X105.92Y-77.4
X116.08Y-77.4
X181.92Y-53.0
X192.08Y-53.0
X200.92Y-110.0
X211.08Y-110.0
X105.92Y-58.4
X116.08Y-58.4
X181.92Y-72.0
X192.08Y-72.0
X162.92Y-47.6
X173.08Y-47.6
X143.92Y-80.2
X154.08Y-80.2
X86.92Y-58.4
X97.08Y-58.4
X124.92Y-104.6
X135.08Y-104.6
X162.92Y-123.6
X173.08Y-123.6
X86.92Y-96.4
X97.08Y-96.4
X143.92Y-118.2
X154.08Y-118.2
X162.92Y-85.6
X173.08Y-85.6
X162.92Y-104.6
X173.08Y-104.6
X143.92Y-99.2
X154.08Y-99.2
X124.92Y-85.6
X135.08Y-85.6
X200.92Y-129.0
X211.08Y-129.0
X181.92Y-91.0
X192.08Y-91.0
X181.92Y-110.0
X192.08Y-110.0
X181.92Y-129.0
X192.08Y-129.0
X124.92Y-47.6
X135.08Y-47.6
X162.92Y-66.6
X173.08Y-66.6
X86.92Y-77.4
X97.08Y-77.4
X124.92Y-66.6
X135.08Y-66.6
X105.92Y-96.4
X116.08Y-96.4
X143.92Y-61.2
X154.08Y-61.2
T8
X124.5Y-85.6
X135.5Y-85.6
X200.5Y-129.0
X211.5Y-129.0
X181.5Y-91.0
X192.5Y-91.0
X181.5Y-110.0
X192.5Y-110.0
X181.5Y-129.0
X192.5Y-129.0
X124.5Y-47.6
X135.5Y-47.6
X162.5Y-66.6
X173.5Y-66.6
X86.5Y-77.4
X97.5Y-77.4
X124.5Y-66.6
X135.5Y-66.6
X105.5Y-96.4
X116.5Y-96.4
X143.5Y-61.2
X154.5Y-61.2
X143.5Y-42.201
X154.5Y-42.201
X105.5Y-77.4
X116.5Y-77.4
X181.5Y-53.0
X192.5Y-53.0
X200.5Y-110.0
X211.5Y-110.0
X105.5Y-58.4
X116.5Y-58.4
X181.5Y-72.0
X192.5Y-72.0
X162.5Y-47.6
X173.5Y-47.6
X143.5Y-80.2
X154.5Y-80.2
X86.5Y-58.4
X97.5Y-58.4
X124.5Y-104.6
X135.5Y-104.6
X162.5Y-123.6
X173.5Y-123.6
X86.5Y-96.4
X97.5Y-96.4
X143.5Y-118.2
X154.5Y-118.2
X162.5Y-85.6
X173.5Y-85.6
X162.5Y-104.6
X173.5Y-104.6
X143.5Y-99.2
X154.5Y-99.2
T9
X182.0Y-125.3
X183.19Y-131.54
X184.46Y-134.08
X187.0Y-123.1
X189.54Y-134.08
X190.81Y-131.54
X192.0Y-125.3
X125.0Y-43.9
X126.19Y-50.14
X127.46Y-52.68
X130.0Y-41.7
X132.54Y-52.68
X133.81Y-50.14
X135.0Y-43.9
X163.0Y-62.9
X164.19Y-69.14
X165.46Y-71.68
X168.0Y-60.7
X170.54Y-71.68
X171.81Y-69.14
X173.0Y-62.9
X87.0Y-73.7
X88.19Y-79.94
X89.46Y-82.48
X92.0Y-71.5
X94.54Y-82.48
X95.81Y-79.94
X97.0Y-73.7
X125.0Y-62.9
X126.19Y-69.14
X127.46Y-71.68
X130.0Y-60.7
X132.54Y-71.68
X133.81Y-69.14
X135.0Y-62.9
X106.0Y-92.7
X107.19Y-98.94
X108.46Y-101.48
X111.0Y-90.5
X113.54Y-101.48
X114.81Y-98.94
X116.0Y-92.7
X144.0Y-57.5
X145.19Y-63.74
X146.46Y-66.28
X149.0Y-55.3
X151.54Y-66.28
X152.81Y-63.74
X154.0Y-57.5
X144.0Y-38.501
X145.19Y-44.741
X146.46Y-47.281
X149.0Y-36.301
X151.54Y-47.281
X152.81Y-44.741
X154.0Y-38.501
X106.0Y-73.7
X107.19Y-79.94
X108.46Y-82.48
X111.0Y-71.5
X113.54Y-82.48
X114.81Y-79.94
X116.0Y-73.7
X182.0Y-49.3
X183.19Y-55.54
X184.46Y-58.08
X187.0Y-47.1
X189.54Y-58.08
X190.81Y-55.54
X192.0Y-49.3
X201.0Y-106.3
X202.19Y-112.54
X203.46Y-115.08
X206.0Y-104.1
X208.54Y-115.08
X209.81Y-112.54
X211.0Y-106.3
X106.0Y-54.7
X107.19Y-60.94
X108.46Y-63.48
X111.0Y-52.5
X113.54Y-63.48
X114.81Y-60.94
X116.0Y-54.7
X182.0Y-68.3
X183.19Y-74.54
X184.46Y-77.08
X187.0Y-66.1
X189.54Y-77.08
X190.81Y-74.54
X192.0Y-68.3
X163.0Y-43.9
X164.19Y-50.14
X165.46Y-52.68
X168.0Y-41.7
X170.54Y-52.68
X171.81Y-50.14
X173.0Y-43.9
X144.0Y-76.5
X145.19Y-82.74
X146.46Y-85.28
X149.0Y-74.3
X151.54Y-85.28
X152.81Y-82.74
X154.0Y-76.5
X87.0Y-54.7
X88.19Y-60.94
X89.46Y-63.48
X92.0Y-52.5
X94.54Y-63.48
X95.81Y-60.94
X97.0Y-54.7
X125.0Y-100.9
X126.19Y-107.14
X127.46Y-109.68
X130.0Y-98.7
X132.54Y-109.68
X133.81Y-107.14
X135.0Y-100.9
X163.0Y-119.9
X164.19Y-126.14
X165.46Y-128.68
X168.0Y-117.7
X170.54Y-128.68
X171.81Y-126.14
X173.0Y-119.9
X87.0Y-92.7
X88.19Y-98.94
X89.46Y-101.48
X92.0Y-90.5
X94.54Y-101.48
X95.81Y-98.94
X97.0Y-92.7
X144.0Y-114.5
X145.19Y-120.74
X146.46Y-123.28
X149.0Y-112.3
X151.54Y-123.28
X152.81Y-120.74
X154.0Y-114.5
X163.0Y-81.9
X164.19Y-88.14
X165.46Y-90.68
X168.0Y-79.7
X170.54Y-90.68
X171.81Y-88.14
X173.0Y-81.9
X163.0Y-100.9
X164.19Y-107.14
X165.46Y-109.68
X168.0Y-98.7
X170.54Y-109.68
X171.81Y-107.14
X173.0Y-100.9
X144.0Y-95.5
X145.19Y-101.74
X146.46Y-104.28
X149.0Y-93.3
X151.54Y-104.28
X152.81Y-101.74
X154.0Y-95.5
X125.0Y-81.9
X126.19Y-88.14
X127.46Y-90.68
X130.0Y-79.7
X132.54Y-90.68
X133.81Y-88.14
X135.0Y-81.9
X201.0Y-125.3
X202.19Y-131.54
X203.46Y-134.08
X206.0Y-123.1
X208.54Y-134.08
X209.81Y-131.54
X211.0Y-125.3
X182.0Y-87.3
X183.19Y-93.54
X184.46Y-96.08
X187.0Y-85.1
X189.54Y-96.08
X190.81Y-93.54
X192.0Y-87.3
X182.0Y-106.3
X183.19Y-112.54
X184.46Y-115.08
X187.0Y-104.1
X189.54Y-115.08
X190.81Y-112.54
X192.0Y-106.3
T10
X168.0Y-85.6
X168.0Y-104.6
X149.0Y-99.2
X130.0Y-85.6
X206.0Y-129.0
X187.0Y-91.0
X187.0Y-110.0
X187.0Y-129.0
X130.0Y-47.6
X168.0Y-66.6
X92.0Y-77.4
X130.0Y-66.6
X111.0Y-96.4
X149.0Y-61.2
X149.0Y-42.201
X111.0Y-77.4
X187.0Y-53.0
X206.0Y-110.0
X111.0Y-58.4
X187.0Y-72.0
X168.0Y-47.6
X149.0Y-80.2
X92.0Y-58.4
X130.0Y-104.6
X168.0Y-123.6
X92.0Y-96.4
X149.0Y-118.2
T3
G00X203.45Y-85.08
M15
G01X202.95Y-85.08
M16
G05
G00X203.45Y-87.53
M15
G01X202.95Y-87.53
M16
G05
G00X204.95Y-83.33
M15
G01X204.45Y-83.33
M16
G05
G00X204.95Y-89.28
M15
G01X204.45Y-89.28
M16
G05
G00X208.95Y-83.33
M15
G01X208.45Y-83.33
M16
G05
G00X208.95Y-89.28
M15
G01X208.45Y-89.28
M16
G05
G00X211.95Y-83.33
M15
G01X211.45Y-83.33
M16
G05
G00X211.95Y-89.28
M15
G01X211.45Y-89.28
M16
G05
T0
M30
