G04 #@! TF.GenerationSoftware,KiCad,Pcbnew,5.1.2*
G04 #@! TF.CreationDate,2019-08-11T11:10:40+09:00*
G04 #@! TF.ProjectId,xenon-e,78656e6f-6e2d-4652-9e6b-696361645f70,rev?*
G04 #@! TF.SameCoordinates,Original*
G04 #@! TF.FileFunction,Legend,Bot*
G04 #@! TF.FilePolarity,Positive*
%FSLAX46Y46*%
G04 Gerber Fmt 4.6, Leading zero omitted, Abs format (unit mm)*
G04 Created by KiCad (PCBNEW 5.1.2) date 2019-08-11 11:10:40*
%MOMM*%
%LPD*%
G04 APERTURE LIST*
%ADD10C,0.150000*%
%ADD11C,0.125000*%
%ADD12C,3.400000*%
%ADD13R,2.400000X2.400000*%
%ADD14R,2.300000X2.400000*%
%ADD15C,4.400000*%
%ADD16C,2.300000*%
%ADD17C,2.100000*%
%ADD18C,5.200000*%
%ADD19C,1.797000*%
%ADD20R,1.797000X1.797000*%
%ADD21R,1.350000X1.700000*%
%ADD22C,1.924000*%
%ADD23R,1.543000X1.035000*%
%ADD24C,2.400000*%
%ADD25C,1.600000*%
%ADD26O,2.900000X2.100000*%
%ADD27R,1.924000X1.924000*%
G04 APERTURE END LIST*
D10*
X209561904Y-85733333D02*
X210133333Y-85733333D01*
X210247619Y-85695238D01*
X210323809Y-85619047D01*
X210361904Y-85504761D01*
X210361904Y-85428571D01*
X210361904Y-86533333D02*
X210361904Y-86076190D01*
X210361904Y-86304761D02*
X209561904Y-86304761D01*
X209676190Y-86228571D01*
X209752380Y-86152380D01*
X209790476Y-86076190D01*
X211561904Y-78509523D02*
X210761904Y-78509523D01*
X210761904Y-78814285D01*
X210800000Y-78890476D01*
X210838095Y-78928571D01*
X210914285Y-78966666D01*
X211028571Y-78966666D01*
X211104761Y-78928571D01*
X211142857Y-78890476D01*
X211180952Y-78814285D01*
X211180952Y-78509523D01*
X210761904Y-79233333D02*
X210761904Y-79728571D01*
X211066666Y-79461904D01*
X211066666Y-79576190D01*
X211104761Y-79652380D01*
X211142857Y-79690476D01*
X211219047Y-79728571D01*
X211409523Y-79728571D01*
X211485714Y-79690476D01*
X211523809Y-79652380D01*
X211561904Y-79576190D01*
X211561904Y-79347619D01*
X211523809Y-79271428D01*
X211485714Y-79233333D01*
X201716666Y-84916666D02*
X201716666Y-84216666D01*
X201450000Y-84216666D01*
X201383333Y-84250000D01*
X201350000Y-84283333D01*
X201316666Y-84350000D01*
X201316666Y-84450000D01*
X201350000Y-84516666D01*
X201383333Y-84550000D01*
X201450000Y-84583333D01*
X201716666Y-84583333D01*
X201050000Y-84283333D02*
X201016666Y-84250000D01*
X200950000Y-84216666D01*
X200783333Y-84216666D01*
X200716666Y-84250000D01*
X200683333Y-84283333D01*
X200650000Y-84350000D01*
X200650000Y-84416666D01*
X200683333Y-84516666D01*
X201083333Y-84916666D01*
X200650000Y-84916666D01*
X200216666Y-84916666D02*
X200216666Y-84216666D01*
X199950000Y-84216666D01*
X199883333Y-84250000D01*
X199850000Y-84283333D01*
X199816666Y-84350000D01*
X199816666Y-84450000D01*
X199850000Y-84516666D01*
X199883333Y-84550000D01*
X199950000Y-84583333D01*
X200216666Y-84583333D01*
X199150000Y-84916666D02*
X199550000Y-84916666D01*
X199350000Y-84916666D02*
X199350000Y-84216666D01*
X199416666Y-84316666D01*
X199483333Y-84383333D01*
X199550000Y-84416666D01*
X195310142Y-74847695D02*
X195510142Y-74460647D01*
X195653000Y-74847695D02*
X195653000Y-74034895D01*
X195424428Y-74034895D01*
X195367285Y-74073600D01*
X195338714Y-74112304D01*
X195310142Y-74189714D01*
X195310142Y-74305828D01*
X195338714Y-74383238D01*
X195367285Y-74421942D01*
X195424428Y-74460647D01*
X195653000Y-74460647D01*
X194938714Y-74034895D02*
X194824428Y-74034895D01*
X194767285Y-74073600D01*
X194710142Y-74151009D01*
X194681571Y-74305828D01*
X194681571Y-74576761D01*
X194710142Y-74731580D01*
X194767285Y-74808990D01*
X194824428Y-74847695D01*
X194938714Y-74847695D01*
X194995857Y-74808990D01*
X195053000Y-74731580D01*
X195081571Y-74576761D01*
X195081571Y-74305828D01*
X195053000Y-74151009D01*
X194995857Y-74073600D01*
X194938714Y-74034895D01*
X194481571Y-74034895D02*
X194338714Y-74847695D01*
X194224428Y-74267123D01*
X194110142Y-74847695D01*
X193967285Y-74034895D01*
X193481571Y-74305828D02*
X193481571Y-74847695D01*
X193624428Y-73996190D02*
X193767285Y-74576761D01*
X193395857Y-74576761D01*
X195337142Y-73500285D02*
X195365714Y-73538990D01*
X195451428Y-73577695D01*
X195508571Y-73577695D01*
X195594285Y-73538990D01*
X195651428Y-73461580D01*
X195680000Y-73384171D01*
X195708571Y-73229352D01*
X195708571Y-73113238D01*
X195680000Y-72958419D01*
X195651428Y-72881009D01*
X195594285Y-72803600D01*
X195508571Y-72764895D01*
X195451428Y-72764895D01*
X195365714Y-72803600D01*
X195337142Y-72842304D01*
X194965714Y-72764895D02*
X194851428Y-72764895D01*
X194794285Y-72803600D01*
X194737142Y-72881009D01*
X194708571Y-73035828D01*
X194708571Y-73306761D01*
X194737142Y-73461580D01*
X194794285Y-73538990D01*
X194851428Y-73577695D01*
X194965714Y-73577695D01*
X195022857Y-73538990D01*
X195080000Y-73461580D01*
X195108571Y-73306761D01*
X195108571Y-73035828D01*
X195080000Y-72881009D01*
X195022857Y-72803600D01*
X194965714Y-72764895D01*
X194165714Y-73577695D02*
X194451428Y-73577695D01*
X194451428Y-72764895D01*
X193708571Y-72764895D02*
X193822857Y-72764895D01*
X193880000Y-72803600D01*
X193908571Y-72842304D01*
X193965714Y-72958419D01*
X193994285Y-73113238D01*
X193994285Y-73422876D01*
X193965714Y-73500285D01*
X193937142Y-73538990D01*
X193880000Y-73577695D01*
X193765714Y-73577695D01*
X193708571Y-73538990D01*
X193680000Y-73500285D01*
X193651428Y-73422876D01*
X193651428Y-73229352D01*
X193680000Y-73151942D01*
X193708571Y-73113238D01*
X193765714Y-73074533D01*
X193880000Y-73074533D01*
X193937142Y-73113238D01*
X193965714Y-73151942D01*
X193994285Y-73229352D01*
X195437142Y-72307695D02*
X195637142Y-71920647D01*
X195780000Y-72307695D02*
X195780000Y-71494895D01*
X195551428Y-71494895D01*
X195494285Y-71533600D01*
X195465714Y-71572304D01*
X195437142Y-71649714D01*
X195437142Y-71765828D01*
X195465714Y-71843238D01*
X195494285Y-71881942D01*
X195551428Y-71920647D01*
X195780000Y-71920647D01*
X195065714Y-71494895D02*
X194951428Y-71494895D01*
X194894285Y-71533600D01*
X194837142Y-71611009D01*
X194808571Y-71765828D01*
X194808571Y-72036761D01*
X194837142Y-72191580D01*
X194894285Y-72268990D01*
X194951428Y-72307695D01*
X195065714Y-72307695D01*
X195122857Y-72268990D01*
X195180000Y-72191580D01*
X195208571Y-72036761D01*
X195208571Y-71765828D01*
X195180000Y-71611009D01*
X195122857Y-71533600D01*
X195065714Y-71494895D01*
X194608571Y-71494895D02*
X194465714Y-72307695D01*
X194351428Y-71727123D01*
X194237142Y-72307695D01*
X194094285Y-71494895D01*
X193922857Y-71494895D02*
X193551428Y-71494895D01*
X193751428Y-71804533D01*
X193665714Y-71804533D01*
X193608571Y-71843238D01*
X193580000Y-71881942D01*
X193551428Y-71959352D01*
X193551428Y-72152876D01*
X193580000Y-72230285D01*
X193608571Y-72268990D01*
X193665714Y-72307695D01*
X193837142Y-72307695D01*
X193894285Y-72268990D01*
X193922857Y-72230285D01*
X195337142Y-70960285D02*
X195365714Y-70998990D01*
X195451428Y-71037695D01*
X195508571Y-71037695D01*
X195594285Y-70998990D01*
X195651428Y-70921580D01*
X195680000Y-70844171D01*
X195708571Y-70689352D01*
X195708571Y-70573238D01*
X195680000Y-70418419D01*
X195651428Y-70341009D01*
X195594285Y-70263600D01*
X195508571Y-70224895D01*
X195451428Y-70224895D01*
X195365714Y-70263600D01*
X195337142Y-70302304D01*
X194965714Y-70224895D02*
X194851428Y-70224895D01*
X194794285Y-70263600D01*
X194737142Y-70341009D01*
X194708571Y-70495828D01*
X194708571Y-70766761D01*
X194737142Y-70921580D01*
X194794285Y-70998990D01*
X194851428Y-71037695D01*
X194965714Y-71037695D01*
X195022857Y-70998990D01*
X195080000Y-70921580D01*
X195108571Y-70766761D01*
X195108571Y-70495828D01*
X195080000Y-70341009D01*
X195022857Y-70263600D01*
X194965714Y-70224895D01*
X194165714Y-71037695D02*
X194451428Y-71037695D01*
X194451428Y-70224895D01*
X193680000Y-70224895D02*
X193965714Y-70224895D01*
X193994285Y-70611942D01*
X193965714Y-70573238D01*
X193908571Y-70534533D01*
X193765714Y-70534533D01*
X193708571Y-70573238D01*
X193680000Y-70611942D01*
X193651428Y-70689352D01*
X193651428Y-70882876D01*
X193680000Y-70960285D01*
X193708571Y-70998990D01*
X193765714Y-71037695D01*
X193908571Y-71037695D01*
X193965714Y-70998990D01*
X193994285Y-70960285D01*
X195310142Y-69767695D02*
X195510142Y-69380647D01*
X195653000Y-69767695D02*
X195653000Y-68954895D01*
X195424428Y-68954895D01*
X195367285Y-68993600D01*
X195338714Y-69032304D01*
X195310142Y-69109714D01*
X195310142Y-69225828D01*
X195338714Y-69303238D01*
X195367285Y-69341942D01*
X195424428Y-69380647D01*
X195653000Y-69380647D01*
X194938714Y-68954895D02*
X194824428Y-68954895D01*
X194767285Y-68993600D01*
X194710142Y-69071009D01*
X194681571Y-69225828D01*
X194681571Y-69496761D01*
X194710142Y-69651580D01*
X194767285Y-69728990D01*
X194824428Y-69767695D01*
X194938714Y-69767695D01*
X194995857Y-69728990D01*
X195053000Y-69651580D01*
X195081571Y-69496761D01*
X195081571Y-69225828D01*
X195053000Y-69071009D01*
X194995857Y-68993600D01*
X194938714Y-68954895D01*
X194481571Y-68954895D02*
X194338714Y-69767695D01*
X194224428Y-69187123D01*
X194110142Y-69767695D01*
X193967285Y-68954895D01*
X193767285Y-69032304D02*
X193738714Y-68993600D01*
X193681571Y-68954895D01*
X193538714Y-68954895D01*
X193481571Y-68993600D01*
X193453000Y-69032304D01*
X193424428Y-69109714D01*
X193424428Y-69187123D01*
X193453000Y-69303238D01*
X193795857Y-69767695D01*
X193424428Y-69767695D01*
X195337142Y-68420285D02*
X195365714Y-68458990D01*
X195451428Y-68497695D01*
X195508571Y-68497695D01*
X195594285Y-68458990D01*
X195651428Y-68381580D01*
X195680000Y-68304171D01*
X195708571Y-68149352D01*
X195708571Y-68033238D01*
X195680000Y-67878419D01*
X195651428Y-67801009D01*
X195594285Y-67723600D01*
X195508571Y-67684895D01*
X195451428Y-67684895D01*
X195365714Y-67723600D01*
X195337142Y-67762304D01*
X194965714Y-67684895D02*
X194851428Y-67684895D01*
X194794285Y-67723600D01*
X194737142Y-67801009D01*
X194708571Y-67955828D01*
X194708571Y-68226761D01*
X194737142Y-68381580D01*
X194794285Y-68458990D01*
X194851428Y-68497695D01*
X194965714Y-68497695D01*
X195022857Y-68458990D01*
X195080000Y-68381580D01*
X195108571Y-68226761D01*
X195108571Y-67955828D01*
X195080000Y-67801009D01*
X195022857Y-67723600D01*
X194965714Y-67684895D01*
X194165714Y-68497695D02*
X194451428Y-68497695D01*
X194451428Y-67684895D01*
X193708571Y-67955828D02*
X193708571Y-68497695D01*
X193851428Y-67646190D02*
X193994285Y-68226761D01*
X193622857Y-68226761D01*
X195310142Y-67227695D02*
X195510142Y-66840647D01*
X195653000Y-67227695D02*
X195653000Y-66414895D01*
X195424428Y-66414895D01*
X195367285Y-66453600D01*
X195338714Y-66492304D01*
X195310142Y-66569714D01*
X195310142Y-66685828D01*
X195338714Y-66763238D01*
X195367285Y-66801942D01*
X195424428Y-66840647D01*
X195653000Y-66840647D01*
X194938714Y-66414895D02*
X194824428Y-66414895D01*
X194767285Y-66453600D01*
X194710142Y-66531009D01*
X194681571Y-66685828D01*
X194681571Y-66956761D01*
X194710142Y-67111580D01*
X194767285Y-67188990D01*
X194824428Y-67227695D01*
X194938714Y-67227695D01*
X194995857Y-67188990D01*
X195053000Y-67111580D01*
X195081571Y-66956761D01*
X195081571Y-66685828D01*
X195053000Y-66531009D01*
X194995857Y-66453600D01*
X194938714Y-66414895D01*
X194481571Y-66414895D02*
X194338714Y-67227695D01*
X194224428Y-66647123D01*
X194110142Y-67227695D01*
X193967285Y-66414895D01*
X193424428Y-67227695D02*
X193767285Y-67227695D01*
X193595857Y-67227695D02*
X193595857Y-66414895D01*
X193653000Y-66531009D01*
X193710142Y-66608419D01*
X193767285Y-66647123D01*
X195337142Y-65880285D02*
X195365714Y-65918990D01*
X195451428Y-65957695D01*
X195508571Y-65957695D01*
X195594285Y-65918990D01*
X195651428Y-65841580D01*
X195680000Y-65764171D01*
X195708571Y-65609352D01*
X195708571Y-65493238D01*
X195680000Y-65338419D01*
X195651428Y-65261009D01*
X195594285Y-65183600D01*
X195508571Y-65144895D01*
X195451428Y-65144895D01*
X195365714Y-65183600D01*
X195337142Y-65222304D01*
X194965714Y-65144895D02*
X194851428Y-65144895D01*
X194794285Y-65183600D01*
X194737142Y-65261009D01*
X194708571Y-65415828D01*
X194708571Y-65686761D01*
X194737142Y-65841580D01*
X194794285Y-65918990D01*
X194851428Y-65957695D01*
X194965714Y-65957695D01*
X195022857Y-65918990D01*
X195080000Y-65841580D01*
X195108571Y-65686761D01*
X195108571Y-65415828D01*
X195080000Y-65261009D01*
X195022857Y-65183600D01*
X194965714Y-65144895D01*
X194165714Y-65957695D02*
X194451428Y-65957695D01*
X194451428Y-65144895D01*
X194022857Y-65144895D02*
X193651428Y-65144895D01*
X193851428Y-65454533D01*
X193765714Y-65454533D01*
X193708571Y-65493238D01*
X193680000Y-65531942D01*
X193651428Y-65609352D01*
X193651428Y-65802876D01*
X193680000Y-65880285D01*
X193708571Y-65918990D01*
X193765714Y-65957695D01*
X193937142Y-65957695D01*
X193994285Y-65918990D01*
X194022857Y-65880285D01*
X195310142Y-64687695D02*
X195510142Y-64300647D01*
X195653000Y-64687695D02*
X195653000Y-63874895D01*
X195424428Y-63874895D01*
X195367285Y-63913600D01*
X195338714Y-63952304D01*
X195310142Y-64029714D01*
X195310142Y-64145828D01*
X195338714Y-64223238D01*
X195367285Y-64261942D01*
X195424428Y-64300647D01*
X195653000Y-64300647D01*
X194938714Y-63874895D02*
X194824428Y-63874895D01*
X194767285Y-63913600D01*
X194710142Y-63991009D01*
X194681571Y-64145828D01*
X194681571Y-64416761D01*
X194710142Y-64571580D01*
X194767285Y-64648990D01*
X194824428Y-64687695D01*
X194938714Y-64687695D01*
X194995857Y-64648990D01*
X195053000Y-64571580D01*
X195081571Y-64416761D01*
X195081571Y-64145828D01*
X195053000Y-63991009D01*
X194995857Y-63913600D01*
X194938714Y-63874895D01*
X194481571Y-63874895D02*
X194338714Y-64687695D01*
X194224428Y-64107123D01*
X194110142Y-64687695D01*
X193967285Y-63874895D01*
X193624428Y-63874895D02*
X193567285Y-63874895D01*
X193510142Y-63913600D01*
X193481571Y-63952304D01*
X193453000Y-64029714D01*
X193424428Y-64184533D01*
X193424428Y-64378057D01*
X193453000Y-64532876D01*
X193481571Y-64610285D01*
X193510142Y-64648990D01*
X193567285Y-64687695D01*
X193624428Y-64687695D01*
X193681571Y-64648990D01*
X193710142Y-64610285D01*
X193738714Y-64532876D01*
X193767285Y-64378057D01*
X193767285Y-64184533D01*
X193738714Y-64029714D01*
X193710142Y-63952304D01*
X193681571Y-63913600D01*
X193624428Y-63874895D01*
X195337142Y-63340285D02*
X195365714Y-63378990D01*
X195451428Y-63417695D01*
X195508571Y-63417695D01*
X195594285Y-63378990D01*
X195651428Y-63301580D01*
X195680000Y-63224171D01*
X195708571Y-63069352D01*
X195708571Y-62953238D01*
X195680000Y-62798419D01*
X195651428Y-62721009D01*
X195594285Y-62643600D01*
X195508571Y-62604895D01*
X195451428Y-62604895D01*
X195365714Y-62643600D01*
X195337142Y-62682304D01*
X194965714Y-62604895D02*
X194851428Y-62604895D01*
X194794285Y-62643600D01*
X194737142Y-62721009D01*
X194708571Y-62875828D01*
X194708571Y-63146761D01*
X194737142Y-63301580D01*
X194794285Y-63378990D01*
X194851428Y-63417695D01*
X194965714Y-63417695D01*
X195022857Y-63378990D01*
X195080000Y-63301580D01*
X195108571Y-63146761D01*
X195108571Y-62875828D01*
X195080000Y-62721009D01*
X195022857Y-62643600D01*
X194965714Y-62604895D01*
X194165714Y-63417695D02*
X194451428Y-63417695D01*
X194451428Y-62604895D01*
X193994285Y-62682304D02*
X193965714Y-62643600D01*
X193908571Y-62604895D01*
X193765714Y-62604895D01*
X193708571Y-62643600D01*
X193680000Y-62682304D01*
X193651428Y-62759714D01*
X193651428Y-62837123D01*
X193680000Y-62953238D01*
X194022857Y-63417695D01*
X193651428Y-63417695D01*
X195648285Y-62108990D02*
X195562571Y-62147695D01*
X195419714Y-62147695D01*
X195362571Y-62108990D01*
X195334000Y-62070285D01*
X195305428Y-61992876D01*
X195305428Y-61915466D01*
X195334000Y-61838057D01*
X195362571Y-61799352D01*
X195419714Y-61760647D01*
X195534000Y-61721942D01*
X195591142Y-61683238D01*
X195619714Y-61644533D01*
X195648285Y-61567123D01*
X195648285Y-61489714D01*
X195619714Y-61412304D01*
X195591142Y-61373600D01*
X195534000Y-61334895D01*
X195391142Y-61334895D01*
X195305428Y-61373600D01*
X194705428Y-62070285D02*
X194734000Y-62108990D01*
X194819714Y-62147695D01*
X194876857Y-62147695D01*
X194962571Y-62108990D01*
X195019714Y-62031580D01*
X195048285Y-61954171D01*
X195076857Y-61799352D01*
X195076857Y-61683238D01*
X195048285Y-61528419D01*
X195019714Y-61451009D01*
X194962571Y-61373600D01*
X194876857Y-61334895D01*
X194819714Y-61334895D01*
X194734000Y-61373600D01*
X194705428Y-61412304D01*
X194162571Y-62147695D02*
X194448285Y-62147695D01*
X194448285Y-61334895D01*
X195337142Y-60800285D02*
X195365714Y-60838990D01*
X195451428Y-60877695D01*
X195508571Y-60877695D01*
X195594285Y-60838990D01*
X195651428Y-60761580D01*
X195680000Y-60684171D01*
X195708571Y-60529352D01*
X195708571Y-60413238D01*
X195680000Y-60258419D01*
X195651428Y-60181009D01*
X195594285Y-60103600D01*
X195508571Y-60064895D01*
X195451428Y-60064895D01*
X195365714Y-60103600D01*
X195337142Y-60142304D01*
X194965714Y-60064895D02*
X194851428Y-60064895D01*
X194794285Y-60103600D01*
X194737142Y-60181009D01*
X194708571Y-60335828D01*
X194708571Y-60606761D01*
X194737142Y-60761580D01*
X194794285Y-60838990D01*
X194851428Y-60877695D01*
X194965714Y-60877695D01*
X195022857Y-60838990D01*
X195080000Y-60761580D01*
X195108571Y-60606761D01*
X195108571Y-60335828D01*
X195080000Y-60181009D01*
X195022857Y-60103600D01*
X194965714Y-60064895D01*
X194165714Y-60877695D02*
X194451428Y-60877695D01*
X194451428Y-60064895D01*
X193651428Y-60877695D02*
X193994285Y-60877695D01*
X193822857Y-60877695D02*
X193822857Y-60064895D01*
X193880000Y-60181009D01*
X193937142Y-60258419D01*
X193994285Y-60297123D01*
X195662571Y-59568990D02*
X195576857Y-59607695D01*
X195434000Y-59607695D01*
X195376857Y-59568990D01*
X195348285Y-59530285D01*
X195319714Y-59452876D01*
X195319714Y-59375466D01*
X195348285Y-59298057D01*
X195376857Y-59259352D01*
X195434000Y-59220647D01*
X195548285Y-59181942D01*
X195605428Y-59143238D01*
X195634000Y-59104533D01*
X195662571Y-59027123D01*
X195662571Y-58949714D01*
X195634000Y-58872304D01*
X195605428Y-58833600D01*
X195548285Y-58794895D01*
X195405428Y-58794895D01*
X195319714Y-58833600D01*
X195062571Y-59607695D02*
X195062571Y-58794895D01*
X194919714Y-58794895D01*
X194834000Y-58833600D01*
X194776857Y-58911009D01*
X194748285Y-58988419D01*
X194719714Y-59143238D01*
X194719714Y-59259352D01*
X194748285Y-59414171D01*
X194776857Y-59491580D01*
X194834000Y-59568990D01*
X194919714Y-59607695D01*
X195062571Y-59607695D01*
X194491142Y-59375466D02*
X194205428Y-59375466D01*
X194548285Y-59607695D02*
X194348285Y-58794895D01*
X194148285Y-59607695D01*
X195337142Y-58260285D02*
X195365714Y-58298990D01*
X195451428Y-58337695D01*
X195508571Y-58337695D01*
X195594285Y-58298990D01*
X195651428Y-58221580D01*
X195680000Y-58144171D01*
X195708571Y-57989352D01*
X195708571Y-57873238D01*
X195680000Y-57718419D01*
X195651428Y-57641009D01*
X195594285Y-57563600D01*
X195508571Y-57524895D01*
X195451428Y-57524895D01*
X195365714Y-57563600D01*
X195337142Y-57602304D01*
X194965714Y-57524895D02*
X194851428Y-57524895D01*
X194794285Y-57563600D01*
X194737142Y-57641009D01*
X194708571Y-57795828D01*
X194708571Y-58066761D01*
X194737142Y-58221580D01*
X194794285Y-58298990D01*
X194851428Y-58337695D01*
X194965714Y-58337695D01*
X195022857Y-58298990D01*
X195080000Y-58221580D01*
X195108571Y-58066761D01*
X195108571Y-57795828D01*
X195080000Y-57641009D01*
X195022857Y-57563600D01*
X194965714Y-57524895D01*
X194165714Y-58337695D02*
X194451428Y-58337695D01*
X194451428Y-57524895D01*
X193851428Y-57524895D02*
X193794285Y-57524895D01*
X193737142Y-57563600D01*
X193708571Y-57602304D01*
X193680000Y-57679714D01*
X193651428Y-57834533D01*
X193651428Y-58028057D01*
X193680000Y-58182876D01*
X193708571Y-58260285D01*
X193737142Y-58298990D01*
X193794285Y-58337695D01*
X193851428Y-58337695D01*
X193908571Y-58298990D01*
X193937142Y-58260285D01*
X193965714Y-58182876D01*
X193994285Y-58028057D01*
X193994285Y-57834533D01*
X193965714Y-57679714D01*
X193937142Y-57602304D01*
X193908571Y-57563600D01*
X193851428Y-57524895D01*
X195391142Y-56293600D02*
X195448285Y-56254895D01*
X195534000Y-56254895D01*
X195619714Y-56293600D01*
X195676857Y-56371009D01*
X195705428Y-56448419D01*
X195734000Y-56603238D01*
X195734000Y-56719352D01*
X195705428Y-56874171D01*
X195676857Y-56951580D01*
X195619714Y-57028990D01*
X195534000Y-57067695D01*
X195476857Y-57067695D01*
X195391142Y-57028990D01*
X195362571Y-56990285D01*
X195362571Y-56719352D01*
X195476857Y-56719352D01*
X195105428Y-57067695D02*
X195105428Y-56254895D01*
X194762571Y-57067695D01*
X194762571Y-56254895D01*
X194476857Y-57067695D02*
X194476857Y-56254895D01*
X194334000Y-56254895D01*
X194248285Y-56293600D01*
X194191142Y-56371009D01*
X194162571Y-56448419D01*
X194134000Y-56603238D01*
X194134000Y-56719352D01*
X194162571Y-56874171D01*
X194191142Y-56951580D01*
X194248285Y-57028990D01*
X194334000Y-57067695D01*
X194476857Y-57067695D01*
X195734000Y-54984895D02*
X195534000Y-55797695D01*
X195334000Y-54984895D01*
X194791142Y-55720285D02*
X194819714Y-55758990D01*
X194905428Y-55797695D01*
X194962571Y-55797695D01*
X195048285Y-55758990D01*
X195105428Y-55681580D01*
X195134000Y-55604171D01*
X195162571Y-55449352D01*
X195162571Y-55333238D01*
X195134000Y-55178419D01*
X195105428Y-55101009D01*
X195048285Y-55023600D01*
X194962571Y-54984895D01*
X194905428Y-54984895D01*
X194819714Y-55023600D01*
X194791142Y-55062304D01*
X194191142Y-55720285D02*
X194219714Y-55758990D01*
X194305428Y-55797695D01*
X194362571Y-55797695D01*
X194448285Y-55758990D01*
X194505428Y-55681580D01*
X194534000Y-55604171D01*
X194562571Y-55449352D01*
X194562571Y-55333238D01*
X194534000Y-55178419D01*
X194505428Y-55101009D01*
X194448285Y-55023600D01*
X194362571Y-54984895D01*
X194305428Y-54984895D01*
X194219714Y-55023600D01*
X194191142Y-55062304D01*
X195391142Y-53753600D02*
X195448285Y-53714895D01*
X195534000Y-53714895D01*
X195619714Y-53753600D01*
X195676857Y-53831009D01*
X195705428Y-53908419D01*
X195734000Y-54063238D01*
X195734000Y-54179352D01*
X195705428Y-54334171D01*
X195676857Y-54411580D01*
X195619714Y-54488990D01*
X195534000Y-54527695D01*
X195476857Y-54527695D01*
X195391142Y-54488990D01*
X195362571Y-54450285D01*
X195362571Y-54179352D01*
X195476857Y-54179352D01*
X195105428Y-54527695D02*
X195105428Y-53714895D01*
X194762571Y-54527695D01*
X194762571Y-53714895D01*
X194476857Y-54527695D02*
X194476857Y-53714895D01*
X194334000Y-53714895D01*
X194248285Y-53753600D01*
X194191142Y-53831009D01*
X194162571Y-53908419D01*
X194134000Y-54063238D01*
X194134000Y-54179352D01*
X194162571Y-54334171D01*
X194191142Y-54411580D01*
X194248285Y-54488990D01*
X194334000Y-54527695D01*
X194476857Y-54527695D01*
D11*
X195810952Y-52142284D02*
X195310952Y-52142284D01*
X195406190Y-53257695D02*
X195572857Y-52870647D01*
X195691904Y-53257695D02*
X195691904Y-52444895D01*
X195501428Y-52444895D01*
X195453809Y-52483600D01*
X195430000Y-52522304D01*
X195406190Y-52599714D01*
X195406190Y-52715828D01*
X195430000Y-52793238D01*
X195453809Y-52831942D01*
X195501428Y-52870647D01*
X195691904Y-52870647D01*
X195310952Y-52142284D02*
X194858571Y-52142284D01*
X195191904Y-52831942D02*
X195025238Y-52831942D01*
X194953809Y-53257695D02*
X195191904Y-53257695D01*
X195191904Y-52444895D01*
X194953809Y-52444895D01*
X194858571Y-52142284D02*
X194382380Y-52142284D01*
X194763333Y-53218990D02*
X194691904Y-53257695D01*
X194572857Y-53257695D01*
X194525238Y-53218990D01*
X194501428Y-53180285D01*
X194477619Y-53102876D01*
X194477619Y-53025466D01*
X194501428Y-52948057D01*
X194525238Y-52909352D01*
X194572857Y-52870647D01*
X194668095Y-52831942D01*
X194715714Y-52793238D01*
X194739523Y-52754533D01*
X194763333Y-52677123D01*
X194763333Y-52599714D01*
X194739523Y-52522304D01*
X194715714Y-52483600D01*
X194668095Y-52444895D01*
X194549047Y-52444895D01*
X194477619Y-52483600D01*
X194382380Y-52142284D02*
X193930000Y-52142284D01*
X194263333Y-52831942D02*
X194096666Y-52831942D01*
X194025238Y-53257695D02*
X194263333Y-53257695D01*
X194263333Y-52444895D01*
X194025238Y-52444895D01*
X193930000Y-52142284D02*
X193549047Y-52142284D01*
X193882380Y-52444895D02*
X193596666Y-52444895D01*
X193739523Y-53257695D02*
X193739523Y-52444895D01*
D10*
X195580000Y-51987695D02*
X195580000Y-51174895D01*
X195437142Y-51174895D01*
X195351428Y-51213600D01*
X195294285Y-51291009D01*
X195265714Y-51368419D01*
X195237142Y-51523238D01*
X195237142Y-51639352D01*
X195265714Y-51794171D01*
X195294285Y-51871580D01*
X195351428Y-51948990D01*
X195437142Y-51987695D01*
X195580000Y-51987695D01*
X195008571Y-51755466D02*
X194722857Y-51755466D01*
X195065714Y-51987695D02*
X194865714Y-51174895D01*
X194665714Y-51987695D01*
X194551428Y-51174895D02*
X194208571Y-51174895D01*
X194380000Y-51987695D02*
X194380000Y-51174895D01*
X194037142Y-51755466D02*
X193751428Y-51755466D01*
X194094285Y-51987695D02*
X193894285Y-51174895D01*
X193694285Y-51987695D01*
X195264142Y-49943600D02*
X195321285Y-49904895D01*
X195407000Y-49904895D01*
X195492714Y-49943600D01*
X195549857Y-50021009D01*
X195578428Y-50098419D01*
X195607000Y-50253238D01*
X195607000Y-50369352D01*
X195578428Y-50524171D01*
X195549857Y-50601580D01*
X195492714Y-50678990D01*
X195407000Y-50717695D01*
X195349857Y-50717695D01*
X195264142Y-50678990D01*
X195235571Y-50640285D01*
X195235571Y-50369352D01*
X195349857Y-50369352D01*
X194978428Y-50717695D02*
X194978428Y-49904895D01*
X194635571Y-50717695D01*
X194635571Y-49904895D01*
X194349857Y-50717695D02*
X194349857Y-49904895D01*
X194207000Y-49904895D01*
X194121285Y-49943600D01*
X194064142Y-50021009D01*
X194035571Y-50098419D01*
X194007000Y-50253238D01*
X194007000Y-50369352D01*
X194035571Y-50524171D01*
X194064142Y-50601580D01*
X194121285Y-50678990D01*
X194207000Y-50717695D01*
X194349857Y-50717695D01*
X195319714Y-49320695D02*
X195605428Y-49320695D01*
X195605428Y-48507895D01*
X195119714Y-48894942D02*
X194919714Y-48894942D01*
X194834000Y-49320695D02*
X195119714Y-49320695D01*
X195119714Y-48507895D01*
X194834000Y-48507895D01*
X194576857Y-49320695D02*
X194576857Y-48507895D01*
X194434000Y-48507895D01*
X194348285Y-48546600D01*
X194291142Y-48624009D01*
X194262571Y-48701419D01*
X194234000Y-48856238D01*
X194234000Y-48972352D01*
X194262571Y-49127171D01*
X194291142Y-49204580D01*
X194348285Y-49281990D01*
X194434000Y-49320695D01*
X194576857Y-49320695D01*
X195734000Y-47237895D02*
X195534000Y-48050695D01*
X195334000Y-47237895D01*
X194791142Y-47973285D02*
X194819714Y-48011990D01*
X194905428Y-48050695D01*
X194962571Y-48050695D01*
X195048285Y-48011990D01*
X195105428Y-47934580D01*
X195134000Y-47857171D01*
X195162571Y-47702352D01*
X195162571Y-47586238D01*
X195134000Y-47431419D01*
X195105428Y-47354009D01*
X195048285Y-47276600D01*
X194962571Y-47237895D01*
X194905428Y-47237895D01*
X194819714Y-47276600D01*
X194791142Y-47315304D01*
X194191142Y-47973285D02*
X194219714Y-48011990D01*
X194305428Y-48050695D01*
X194362571Y-48050695D01*
X194448285Y-48011990D01*
X194505428Y-47934580D01*
X194534000Y-47857171D01*
X194562571Y-47702352D01*
X194562571Y-47586238D01*
X194534000Y-47431419D01*
X194505428Y-47354009D01*
X194448285Y-47276600D01*
X194362571Y-47237895D01*
X194305428Y-47237895D01*
X194219714Y-47276600D01*
X194191142Y-47315304D01*
X200167695Y-88364533D02*
X199780647Y-88093600D01*
X200167695Y-87900076D02*
X199354895Y-87900076D01*
X199354895Y-88209714D01*
X199393600Y-88287123D01*
X199432304Y-88325828D01*
X199509714Y-88364533D01*
X199625828Y-88364533D01*
X199703238Y-88325828D01*
X199741942Y-88287123D01*
X199780647Y-88209714D01*
X199780647Y-87900076D01*
X199432304Y-88674171D02*
X199393600Y-88712876D01*
X199354895Y-88790285D01*
X199354895Y-88983809D01*
X199393600Y-89061219D01*
X199432304Y-89099923D01*
X199509714Y-89138628D01*
X199587123Y-89138628D01*
X199703238Y-89099923D01*
X200167695Y-88635466D01*
X200167695Y-89138628D01*
X197667695Y-88364533D02*
X197280647Y-88093600D01*
X197667695Y-87900076D02*
X196854895Y-87900076D01*
X196854895Y-88209714D01*
X196893600Y-88287123D01*
X196932304Y-88325828D01*
X197009714Y-88364533D01*
X197125828Y-88364533D01*
X197203238Y-88325828D01*
X197241942Y-88287123D01*
X197280647Y-88209714D01*
X197280647Y-87900076D01*
X197667695Y-89138628D02*
X197667695Y-88674171D01*
X197667695Y-88906400D02*
X196854895Y-88906400D01*
X196971009Y-88828990D01*
X197048419Y-88751580D01*
X197087123Y-88674171D01*
X211406323Y-92767695D02*
X211677257Y-92380647D01*
X211870780Y-92767695D02*
X211870780Y-91954895D01*
X211561142Y-91954895D01*
X211483733Y-91993600D01*
X211445028Y-92032304D01*
X211406323Y-92109714D01*
X211406323Y-92225828D01*
X211445028Y-92303238D01*
X211483733Y-92341942D01*
X211561142Y-92380647D01*
X211870780Y-92380647D01*
X210748342Y-92728990D02*
X210825752Y-92767695D01*
X210980571Y-92767695D01*
X211057980Y-92728990D01*
X211096685Y-92651580D01*
X211096685Y-92341942D01*
X211057980Y-92264533D01*
X210980571Y-92225828D01*
X210825752Y-92225828D01*
X210748342Y-92264533D01*
X210709638Y-92341942D01*
X210709638Y-92419352D01*
X211096685Y-92496761D01*
X210400000Y-92728990D02*
X210322590Y-92767695D01*
X210167771Y-92767695D01*
X210090361Y-92728990D01*
X210051657Y-92651580D01*
X210051657Y-92612876D01*
X210090361Y-92535466D01*
X210167771Y-92496761D01*
X210283885Y-92496761D01*
X210361295Y-92458057D01*
X210400000Y-92380647D01*
X210400000Y-92341942D01*
X210361295Y-92264533D01*
X210283885Y-92225828D01*
X210167771Y-92225828D01*
X210090361Y-92264533D01*
X209393676Y-92728990D02*
X209471085Y-92767695D01*
X209625904Y-92767695D01*
X209703314Y-92728990D01*
X209742019Y-92651580D01*
X209742019Y-92341942D01*
X209703314Y-92264533D01*
X209625904Y-92225828D01*
X209471085Y-92225828D01*
X209393676Y-92264533D01*
X209354971Y-92341942D01*
X209354971Y-92419352D01*
X209742019Y-92496761D01*
X209122742Y-92225828D02*
X208813104Y-92225828D01*
X209006628Y-91954895D02*
X209006628Y-92651580D01*
X208967923Y-92728990D01*
X208890514Y-92767695D01*
X208813104Y-92767695D01*
X193419276Y-81393600D02*
X193496685Y-81354895D01*
X193612800Y-81354895D01*
X193728914Y-81393600D01*
X193806323Y-81471009D01*
X193845028Y-81548419D01*
X193883733Y-81703238D01*
X193883733Y-81819352D01*
X193845028Y-81974171D01*
X193806323Y-82051580D01*
X193728914Y-82128990D01*
X193612800Y-82167695D01*
X193535390Y-82167695D01*
X193419276Y-82128990D01*
X193380571Y-82090285D01*
X193380571Y-81819352D01*
X193535390Y-81819352D01*
X193032228Y-82167695D02*
X193032228Y-81354895D01*
X192567771Y-82167695D01*
X192567771Y-81354895D01*
X192180723Y-82167695D02*
X192180723Y-81354895D01*
X191987200Y-81354895D01*
X191871085Y-81393600D01*
X191793676Y-81471009D01*
X191754971Y-81548419D01*
X191716266Y-81703238D01*
X191716266Y-81819352D01*
X191754971Y-81974171D01*
X191793676Y-82051580D01*
X191871085Y-82128990D01*
X191987200Y-82167695D01*
X192180723Y-82167695D01*
X193322514Y-84167695D02*
X193709561Y-84167695D01*
X193709561Y-83354895D01*
X193051580Y-83741942D02*
X192780647Y-83741942D01*
X192664533Y-84167695D02*
X193051580Y-84167695D01*
X193051580Y-83354895D01*
X192664533Y-83354895D01*
X192316190Y-84167695D02*
X192316190Y-83354895D01*
X192122666Y-83354895D01*
X192006552Y-83393600D01*
X191929142Y-83471009D01*
X191890438Y-83548419D01*
X191851733Y-83703238D01*
X191851733Y-83819352D01*
X191890438Y-83974171D01*
X191929142Y-84051580D01*
X192006552Y-84128990D01*
X192122666Y-84167695D01*
X192316190Y-84167695D01*
X193883733Y-85154895D02*
X193612800Y-85967695D01*
X193341866Y-85154895D01*
X192606476Y-85890285D02*
X192645180Y-85928990D01*
X192761295Y-85967695D01*
X192838704Y-85967695D01*
X192954819Y-85928990D01*
X193032228Y-85851580D01*
X193070933Y-85774171D01*
X193109638Y-85619352D01*
X193109638Y-85503238D01*
X193070933Y-85348419D01*
X193032228Y-85271009D01*
X192954819Y-85193600D01*
X192838704Y-85154895D01*
X192761295Y-85154895D01*
X192645180Y-85193600D01*
X192606476Y-85232304D01*
X191793676Y-85890285D02*
X191832380Y-85928990D01*
X191948495Y-85967695D01*
X192025904Y-85967695D01*
X192142019Y-85928990D01*
X192219428Y-85851580D01*
X192258133Y-85774171D01*
X192296838Y-85619352D01*
X192296838Y-85503238D01*
X192258133Y-85348419D01*
X192219428Y-85271009D01*
X192142019Y-85193600D01*
X192025904Y-85154895D01*
X191948495Y-85154895D01*
X191832380Y-85193600D01*
X191793676Y-85232304D01*
X212880428Y-46357380D02*
X212880428Y-45357380D01*
X212537571Y-45357380D01*
X212451857Y-45405000D01*
X212409000Y-45452619D01*
X212366142Y-45547857D01*
X212366142Y-45690714D01*
X212409000Y-45785952D01*
X212451857Y-45833571D01*
X212537571Y-45881190D01*
X212880428Y-45881190D01*
X211980428Y-46357380D02*
X211980428Y-45690714D01*
X211980428Y-45881190D02*
X211937571Y-45785952D01*
X211894714Y-45738333D01*
X211809000Y-45690714D01*
X211723285Y-45690714D01*
X211294714Y-46357380D02*
X211380428Y-46309761D01*
X211423285Y-46262142D01*
X211466142Y-46166904D01*
X211466142Y-45881190D01*
X211423285Y-45785952D01*
X211380428Y-45738333D01*
X211294714Y-45690714D01*
X211166142Y-45690714D01*
X211080428Y-45738333D01*
X211037571Y-45785952D01*
X210994714Y-45881190D01*
X210994714Y-46166904D01*
X211037571Y-46262142D01*
X211080428Y-46309761D01*
X211166142Y-46357380D01*
X211294714Y-46357380D01*
X209923285Y-46357380D02*
X209923285Y-45357380D01*
X209623285Y-46071666D01*
X209323285Y-45357380D01*
X209323285Y-46357380D01*
X208894714Y-46357380D02*
X208894714Y-45690714D01*
X208894714Y-45357380D02*
X208937571Y-45405000D01*
X208894714Y-45452619D01*
X208851857Y-45405000D01*
X208894714Y-45357380D01*
X208894714Y-45452619D01*
X208080428Y-46309761D02*
X208166142Y-46357380D01*
X208337571Y-46357380D01*
X208423285Y-46309761D01*
X208466142Y-46262142D01*
X208509000Y-46166904D01*
X208509000Y-45881190D01*
X208466142Y-45785952D01*
X208423285Y-45738333D01*
X208337571Y-45690714D01*
X208166142Y-45690714D01*
X208080428Y-45738333D01*
X207694714Y-46357380D02*
X207694714Y-45690714D01*
X207694714Y-45881190D02*
X207651857Y-45785952D01*
X207609000Y-45738333D01*
X207523285Y-45690714D01*
X207437571Y-45690714D01*
X207009000Y-46357380D02*
X207094714Y-46309761D01*
X207137571Y-46262142D01*
X207180428Y-46166904D01*
X207180428Y-45881190D01*
X207137571Y-45785952D01*
X207094714Y-45738333D01*
X207009000Y-45690714D01*
X206880428Y-45690714D01*
X206794714Y-45738333D01*
X206751857Y-45785952D01*
X206709000Y-45881190D01*
X206709000Y-46166904D01*
X206751857Y-46262142D01*
X206794714Y-46309761D01*
X206880428Y-46357380D01*
X207009000Y-46357380D01*
X206280428Y-45357380D02*
X206366142Y-45547857D01*
X205937571Y-46309761D02*
X205851857Y-46357380D01*
X205680428Y-46357380D01*
X205594714Y-46309761D01*
X205551857Y-46214523D01*
X205551857Y-46166904D01*
X205594714Y-46071666D01*
X205680428Y-46024047D01*
X205809000Y-46024047D01*
X205894714Y-45976428D01*
X205937571Y-45881190D01*
X205937571Y-45833571D01*
X205894714Y-45738333D01*
X205809000Y-45690714D01*
X205680428Y-45690714D01*
X205594714Y-45738333D01*
X204480428Y-46357380D02*
X204480428Y-45357380D01*
X204480428Y-45738333D02*
X204394714Y-45690714D01*
X204223285Y-45690714D01*
X204137571Y-45738333D01*
X204094714Y-45785952D01*
X204051857Y-45881190D01*
X204051857Y-46166904D01*
X204094714Y-46262142D01*
X204137571Y-46309761D01*
X204223285Y-46357380D01*
X204394714Y-46357380D01*
X204480428Y-46309761D01*
X203280428Y-46357380D02*
X203280428Y-45833571D01*
X203323285Y-45738333D01*
X203409000Y-45690714D01*
X203580428Y-45690714D01*
X203666142Y-45738333D01*
X203280428Y-46309761D02*
X203366142Y-46357380D01*
X203580428Y-46357380D01*
X203666142Y-46309761D01*
X203709000Y-46214523D01*
X203709000Y-46119285D01*
X203666142Y-46024047D01*
X203580428Y-45976428D01*
X203366142Y-45976428D01*
X203280428Y-45928809D01*
X202466142Y-46309761D02*
X202551857Y-46357380D01*
X202723285Y-46357380D01*
X202809000Y-46309761D01*
X202851857Y-46262142D01*
X202894714Y-46166904D01*
X202894714Y-45881190D01*
X202851857Y-45785952D01*
X202809000Y-45738333D01*
X202723285Y-45690714D01*
X202551857Y-45690714D01*
X202466142Y-45738333D01*
X202080428Y-46357380D02*
X202080428Y-45357380D01*
X201994714Y-45976428D02*
X201737571Y-46357380D01*
X201737571Y-45690714D02*
X202080428Y-46071666D01*
X200709000Y-46309761D02*
X200623285Y-46357380D01*
X200451857Y-46357380D01*
X200366142Y-46309761D01*
X200323285Y-46214523D01*
X200323285Y-46166904D01*
X200366142Y-46071666D01*
X200451857Y-46024047D01*
X200580428Y-46024047D01*
X200666142Y-45976428D01*
X200709000Y-45881190D01*
X200709000Y-45833571D01*
X200666142Y-45738333D01*
X200580428Y-45690714D01*
X200451857Y-45690714D01*
X200366142Y-45738333D01*
X199937571Y-46357380D02*
X199937571Y-45690714D01*
X199937571Y-45357380D02*
X199980428Y-45405000D01*
X199937571Y-45452619D01*
X199894714Y-45405000D01*
X199937571Y-45357380D01*
X199937571Y-45452619D01*
X199123285Y-46357380D02*
X199123285Y-45357380D01*
X199123285Y-46309761D02*
X199209000Y-46357380D01*
X199380428Y-46357380D01*
X199466142Y-46309761D01*
X199509000Y-46262142D01*
X199551857Y-46166904D01*
X199551857Y-45881190D01*
X199509000Y-45785952D01*
X199466142Y-45738333D01*
X199380428Y-45690714D01*
X199209000Y-45690714D01*
X199123285Y-45738333D01*
X198351857Y-46309761D02*
X198437571Y-46357380D01*
X198609000Y-46357380D01*
X198694714Y-46309761D01*
X198737571Y-46214523D01*
X198737571Y-45833571D01*
X198694714Y-45738333D01*
X198609000Y-45690714D01*
X198437571Y-45690714D01*
X198351857Y-45738333D01*
X198309000Y-45833571D01*
X198309000Y-45928809D01*
X198737571Y-46024047D01*
X196851857Y-45690714D02*
X196851857Y-46357380D01*
X197237571Y-45690714D02*
X197237571Y-46214523D01*
X197194714Y-46309761D01*
X197109000Y-46357380D01*
X196980428Y-46357380D01*
X196894714Y-46309761D01*
X196851857Y-46262142D01*
X196423285Y-45690714D02*
X196423285Y-46690714D01*
X196423285Y-45738333D02*
X196337571Y-45690714D01*
X196166142Y-45690714D01*
X196080428Y-45738333D01*
X196037571Y-45785952D01*
X195994714Y-45881190D01*
X195994714Y-46166904D01*
X196037571Y-46262142D01*
X196080428Y-46309761D01*
X196166142Y-46357380D01*
X196337571Y-46357380D01*
X196423285Y-46309761D01*
X94280000Y-50900000D02*
X94280000Y-50200000D01*
X94280000Y-50950000D02*
G75*
G03X95500000Y-52370000I1320000J-100000D01*
G01*
X94570000Y-57000000D02*
G75*
G03X92200000Y-54830000I-2270000J-100000D01*
G01*
X99275000Y-57000000D02*
X99300000Y-52400000D01*
X89700000Y-54800000D02*
X89700000Y-50200000D01*
X95500000Y-52375000D02*
X99275000Y-52375000D01*
X94575000Y-57025000D02*
X99275000Y-57025000D01*
X89725000Y-54825000D02*
X92275000Y-54825000D01*
X89725000Y-50175000D02*
X94275000Y-50175000D01*
X94485000Y-59320000D02*
G75*
G02X92225000Y-61200000I-2070000J190000D01*
G01*
X98089000Y-63320000D02*
G75*
G02X95825000Y-65204000I-2074000J190000D01*
G01*
X87200000Y-61250000D02*
X92250000Y-61204000D01*
X87200000Y-61296000D02*
X87200000Y-65204000D01*
X87200000Y-65204000D02*
X95825000Y-65204000D01*
X98100000Y-63250000D02*
X98100000Y-59305000D01*
X98100000Y-59296000D02*
X94490000Y-59296000D01*
X113280000Y-50900000D02*
X113280000Y-50200000D01*
X113280000Y-50950000D02*
G75*
G03X114500000Y-52370000I1320000J-100000D01*
G01*
X113570000Y-57000000D02*
G75*
G03X111200000Y-54830000I-2270000J-100000D01*
G01*
X118275000Y-57000000D02*
X118300000Y-52400000D01*
X108700000Y-54800000D02*
X108700000Y-50200000D01*
X114500000Y-52375000D02*
X118275000Y-52375000D01*
X113575000Y-57025000D02*
X118275000Y-57025000D01*
X108725000Y-54825000D02*
X111275000Y-54825000D01*
X108725000Y-50175000D02*
X113275000Y-50175000D01*
X113485000Y-59320000D02*
G75*
G02X111225000Y-61200000I-2070000J190000D01*
G01*
X117089000Y-63320000D02*
G75*
G02X114825000Y-65204000I-2074000J190000D01*
G01*
X106200000Y-61250000D02*
X111250000Y-61204000D01*
X106200000Y-61296000D02*
X106200000Y-65204000D01*
X106200000Y-65204000D02*
X114825000Y-65204000D01*
X117100000Y-63250000D02*
X117100000Y-59305000D01*
X117100000Y-59296000D02*
X113490000Y-59296000D01*
X132280000Y-97100000D02*
X132280000Y-96400000D01*
X132280000Y-97150000D02*
G75*
G03X133500000Y-98570000I1320000J-100000D01*
G01*
X132570000Y-103200000D02*
G75*
G03X130200000Y-101030000I-2270000J-100000D01*
G01*
X137275000Y-103200000D02*
X137300000Y-98600000D01*
X127700000Y-101000000D02*
X127700000Y-96400000D01*
X133500000Y-98575000D02*
X137275000Y-98575000D01*
X132575000Y-103225000D02*
X137275000Y-103225000D01*
X127725000Y-101025000D02*
X130275000Y-101025000D01*
X127725000Y-96375000D02*
X132275000Y-96375000D01*
X132485000Y-105520000D02*
G75*
G02X130225000Y-107400000I-2070000J190000D01*
G01*
X136089000Y-109520000D02*
G75*
G02X133825000Y-111404000I-2074000J190000D01*
G01*
X125200000Y-107450000D02*
X130250000Y-107404000D01*
X125200000Y-107496000D02*
X125200000Y-111404000D01*
X125200000Y-111404000D02*
X133825000Y-111404000D01*
X136100000Y-109450000D02*
X136100000Y-105505000D01*
X136100000Y-105496000D02*
X132490000Y-105496000D01*
X189280000Y-121500000D02*
X189280000Y-120800000D01*
X189280000Y-121550000D02*
G75*
G03X190500000Y-122970000I1320000J-100000D01*
G01*
X189570000Y-127600000D02*
G75*
G03X187200000Y-125430000I-2270000J-100000D01*
G01*
X194275000Y-127600000D02*
X194300000Y-123000000D01*
X184700000Y-125400000D02*
X184700000Y-120800000D01*
X190500000Y-122975000D02*
X194275000Y-122975000D01*
X189575000Y-127625000D02*
X194275000Y-127625000D01*
X184725000Y-125425000D02*
X187275000Y-125425000D01*
X184725000Y-120775000D02*
X189275000Y-120775000D01*
X189485000Y-129920000D02*
G75*
G02X187225000Y-131800000I-2070000J190000D01*
G01*
X193089000Y-133920000D02*
G75*
G02X190825000Y-135804000I-2074000J190000D01*
G01*
X182200000Y-131850000D02*
X187250000Y-131804000D01*
X182200000Y-131896000D02*
X182200000Y-135804000D01*
X182200000Y-135804000D02*
X190825000Y-135804000D01*
X193100000Y-133850000D02*
X193100000Y-129905000D01*
X193100000Y-129896000D02*
X189490000Y-129896000D01*
X170280000Y-116100000D02*
X170280000Y-115400000D01*
X170280000Y-116150000D02*
G75*
G03X171500000Y-117570000I1320000J-100000D01*
G01*
X170570000Y-122200000D02*
G75*
G03X168200000Y-120030000I-2270000J-100000D01*
G01*
X175275000Y-122200000D02*
X175300000Y-117600000D01*
X165700000Y-120000000D02*
X165700000Y-115400000D01*
X171500000Y-117575000D02*
X175275000Y-117575000D01*
X170575000Y-122225000D02*
X175275000Y-122225000D01*
X165725000Y-120025000D02*
X168275000Y-120025000D01*
X165725000Y-115375000D02*
X170275000Y-115375000D01*
X170485000Y-124520000D02*
G75*
G02X168225000Y-126400000I-2070000J190000D01*
G01*
X174089000Y-128520000D02*
G75*
G02X171825000Y-130404000I-2074000J190000D01*
G01*
X163200000Y-126450000D02*
X168250000Y-126404000D01*
X163200000Y-126496000D02*
X163200000Y-130404000D01*
X163200000Y-130404000D02*
X171825000Y-130404000D01*
X174100000Y-128450000D02*
X174100000Y-124505000D01*
X174100000Y-124496000D02*
X170490000Y-124496000D01*
X208280000Y-121500000D02*
X208280000Y-120800000D01*
X208280000Y-121550000D02*
G75*
G03X209500000Y-122970000I1320000J-100000D01*
G01*
X208570000Y-127600000D02*
G75*
G03X206200000Y-125430000I-2270000J-100000D01*
G01*
X213275000Y-127600000D02*
X213300000Y-123000000D01*
X203700000Y-125400000D02*
X203700000Y-120800000D01*
X209500000Y-122975000D02*
X213275000Y-122975000D01*
X208575000Y-127625000D02*
X213275000Y-127625000D01*
X203725000Y-125425000D02*
X206275000Y-125425000D01*
X203725000Y-120775000D02*
X208275000Y-120775000D01*
X208485000Y-129920000D02*
G75*
G02X206225000Y-131800000I-2070000J190000D01*
G01*
X212089000Y-133920000D02*
G75*
G02X209825000Y-135804000I-2074000J190000D01*
G01*
X201200000Y-131850000D02*
X206250000Y-131804000D01*
X201200000Y-131896000D02*
X201200000Y-135804000D01*
X201200000Y-135804000D02*
X209825000Y-135804000D01*
X212100000Y-133850000D02*
X212100000Y-129905000D01*
X212100000Y-129896000D02*
X208490000Y-129896000D01*
X132280000Y-78100000D02*
X132280000Y-77400000D01*
X132280000Y-78150000D02*
G75*
G03X133500000Y-79570000I1320000J-100000D01*
G01*
X132570000Y-84200000D02*
G75*
G03X130200000Y-82030000I-2270000J-100000D01*
G01*
X137275000Y-84200000D02*
X137300000Y-79600000D01*
X127700000Y-82000000D02*
X127700000Y-77400000D01*
X133500000Y-79575000D02*
X137275000Y-79575000D01*
X132575000Y-84225000D02*
X137275000Y-84225000D01*
X127725000Y-82025000D02*
X130275000Y-82025000D01*
X127725000Y-77375000D02*
X132275000Y-77375000D01*
X132485000Y-86520000D02*
G75*
G02X130225000Y-88400000I-2070000J190000D01*
G01*
X136089000Y-90520000D02*
G75*
G02X133825000Y-92404000I-2074000J190000D01*
G01*
X125200000Y-88450000D02*
X130250000Y-88404000D01*
X125200000Y-88496000D02*
X125200000Y-92404000D01*
X125200000Y-92404000D02*
X133825000Y-92404000D01*
X136100000Y-90450000D02*
X136100000Y-86505000D01*
X136100000Y-86496000D02*
X132490000Y-86496000D01*
X151279548Y-34700692D02*
X151279548Y-34000692D01*
X151279548Y-34750692D02*
G75*
G03X152499548Y-36170692I1320000J-100000D01*
G01*
X151569548Y-40800692D02*
G75*
G03X149199548Y-38630692I-2270000J-100000D01*
G01*
X156274548Y-40800692D02*
X156299548Y-36200692D01*
X146699548Y-38600692D02*
X146699548Y-34000692D01*
X152499548Y-36175692D02*
X156274548Y-36175692D01*
X151574548Y-40825692D02*
X156274548Y-40825692D01*
X146724548Y-38625692D02*
X149274548Y-38625692D01*
X146724548Y-33975692D02*
X151274548Y-33975692D01*
X151484548Y-43120692D02*
G75*
G02X149224548Y-45000692I-2070000J190000D01*
G01*
X155088548Y-47120692D02*
G75*
G02X152824548Y-49004692I-2074000J190000D01*
G01*
X144199548Y-45050692D02*
X149249548Y-45004692D01*
X144199548Y-45096692D02*
X144199548Y-49004692D01*
X144199548Y-49004692D02*
X152824548Y-49004692D01*
X155099548Y-47050692D02*
X155099548Y-43105692D01*
X155099548Y-43096692D02*
X151489548Y-43096692D01*
X170280000Y-40100000D02*
X170280000Y-39400000D01*
X170280000Y-40150000D02*
G75*
G03X171500000Y-41570000I1320000J-100000D01*
G01*
X170570000Y-46200000D02*
G75*
G03X168200000Y-44030000I-2270000J-100000D01*
G01*
X175275000Y-46200000D02*
X175300000Y-41600000D01*
X165700000Y-44000000D02*
X165700000Y-39400000D01*
X171500000Y-41575000D02*
X175275000Y-41575000D01*
X170575000Y-46225000D02*
X175275000Y-46225000D01*
X165725000Y-44025000D02*
X168275000Y-44025000D01*
X165725000Y-39375000D02*
X170275000Y-39375000D01*
X170485000Y-48520000D02*
G75*
G02X168225000Y-50400000I-2070000J190000D01*
G01*
X174089000Y-52520000D02*
G75*
G02X171825000Y-54404000I-2074000J190000D01*
G01*
X163200000Y-50450000D02*
X168250000Y-50404000D01*
X163200000Y-50496000D02*
X163200000Y-54404000D01*
X163200000Y-54404000D02*
X171825000Y-54404000D01*
X174100000Y-52450000D02*
X174100000Y-48505000D01*
X174100000Y-48496000D02*
X170490000Y-48496000D01*
X189280000Y-45500000D02*
X189280000Y-44800000D01*
X189280000Y-45550000D02*
G75*
G03X190500000Y-46970000I1320000J-100000D01*
G01*
X189570000Y-51600000D02*
G75*
G03X187200000Y-49430000I-2270000J-100000D01*
G01*
X194275000Y-51600000D02*
X194300000Y-47000000D01*
X184700000Y-49400000D02*
X184700000Y-44800000D01*
X190500000Y-46975000D02*
X194275000Y-46975000D01*
X189575000Y-51625000D02*
X194275000Y-51625000D01*
X184725000Y-49425000D02*
X187275000Y-49425000D01*
X184725000Y-44775000D02*
X189275000Y-44775000D01*
X189485000Y-53920000D02*
G75*
G02X187225000Y-55800000I-2070000J190000D01*
G01*
X193089000Y-57920000D02*
G75*
G02X190825000Y-59804000I-2074000J190000D01*
G01*
X182200000Y-55850000D02*
X187250000Y-55804000D01*
X182200000Y-55896000D02*
X182200000Y-59804000D01*
X182200000Y-59804000D02*
X190825000Y-59804000D01*
X193100000Y-57850000D02*
X193100000Y-53905000D01*
X193100000Y-53896000D02*
X189490000Y-53896000D01*
X101375000Y-57970000D02*
X99875000Y-57970000D01*
X101375000Y-63370000D02*
X101375000Y-57970000D01*
X99875000Y-63370000D02*
X101375000Y-63370000D01*
X99875000Y-57970000D02*
X99875000Y-63370000D01*
X100125000Y-61170000D02*
X101125000Y-61170000D01*
X101125000Y-60170000D02*
X100625000Y-61070000D01*
X100125000Y-60170000D02*
X101125000Y-60170000D01*
X100625000Y-61070000D02*
X100125000Y-60170000D01*
X103175000Y-57957500D02*
X101675000Y-57957500D01*
X103175000Y-63357500D02*
X103175000Y-57957500D01*
X101675000Y-63357500D02*
X103175000Y-63357500D01*
X101675000Y-57957500D02*
X101675000Y-63357500D01*
X101925000Y-61157500D02*
X102925000Y-61157500D01*
X102925000Y-60157500D02*
X102425000Y-61057500D01*
X101925000Y-60157500D02*
X102925000Y-60157500D01*
X102425000Y-61057500D02*
X101925000Y-60157500D01*
X122075000Y-52870000D02*
X120575000Y-52870000D01*
X122075000Y-58270000D02*
X122075000Y-52870000D01*
X120575000Y-58270000D02*
X122075000Y-58270000D01*
X120575000Y-52870000D02*
X120575000Y-58270000D01*
X120825000Y-56070000D02*
X121825000Y-56070000D01*
X121825000Y-55070000D02*
X121325000Y-55970000D01*
X120825000Y-55070000D02*
X121825000Y-55070000D01*
X121325000Y-55970000D02*
X120825000Y-55070000D01*
X141075000Y-41890000D02*
X139575000Y-41890000D01*
X141075000Y-47290000D02*
X141075000Y-41890000D01*
X139575000Y-47290000D02*
X141075000Y-47290000D01*
X139575000Y-41890000D02*
X139575000Y-47290000D01*
X139825000Y-45090000D02*
X140825000Y-45090000D01*
X140825000Y-44090000D02*
X140325000Y-44990000D01*
X139825000Y-44090000D02*
X140825000Y-44090000D01*
X140325000Y-44990000D02*
X139825000Y-44090000D01*
X160100000Y-47110000D02*
X158600000Y-47110000D01*
X160100000Y-52510000D02*
X160100000Y-47110000D01*
X158600000Y-52510000D02*
X160100000Y-52510000D01*
X158600000Y-47110000D02*
X158600000Y-52510000D01*
X158850000Y-50310000D02*
X159850000Y-50310000D01*
X159850000Y-49310000D02*
X159350000Y-50210000D01*
X158850000Y-49310000D02*
X159850000Y-49310000D01*
X159350000Y-50210000D02*
X158850000Y-49310000D01*
X177950000Y-47120000D02*
X176450000Y-47120000D01*
X177950000Y-52520000D02*
X177950000Y-47120000D01*
X176450000Y-52520000D02*
X177950000Y-52520000D01*
X176450000Y-47120000D02*
X176450000Y-52520000D01*
X176700000Y-50320000D02*
X177700000Y-50320000D01*
X177700000Y-49320000D02*
X177200000Y-50220000D01*
X176700000Y-49320000D02*
X177700000Y-49320000D01*
X177200000Y-50220000D02*
X176700000Y-49320000D01*
X101330000Y-77020000D02*
X99830000Y-77020000D01*
X101330000Y-82420000D02*
X101330000Y-77020000D01*
X99830000Y-82420000D02*
X101330000Y-82420000D01*
X99830000Y-77020000D02*
X99830000Y-82420000D01*
X100080000Y-80220000D02*
X101080000Y-80220000D01*
X101080000Y-79220000D02*
X100580000Y-80120000D01*
X100080000Y-79220000D02*
X101080000Y-79220000D01*
X100580000Y-80120000D02*
X100080000Y-79220000D01*
X103100000Y-77020000D02*
X101600000Y-77020000D01*
X103100000Y-82420000D02*
X103100000Y-77020000D01*
X101600000Y-82420000D02*
X103100000Y-82420000D01*
X101600000Y-77020000D02*
X101600000Y-82420000D01*
X101850000Y-80220000D02*
X102850000Y-80220000D01*
X102850000Y-79220000D02*
X102350000Y-80120000D01*
X101850000Y-79220000D02*
X102850000Y-79220000D01*
X102350000Y-80120000D02*
X101850000Y-79220000D01*
X122075000Y-66245000D02*
X120575000Y-66245000D01*
X122075000Y-71645000D02*
X122075000Y-66245000D01*
X120575000Y-71645000D02*
X122075000Y-71645000D01*
X120575000Y-66245000D02*
X120575000Y-71645000D01*
X120825000Y-69445000D02*
X121825000Y-69445000D01*
X121825000Y-68445000D02*
X121325000Y-69345000D01*
X120825000Y-68445000D02*
X121825000Y-68445000D01*
X121325000Y-69345000D02*
X120825000Y-68445000D01*
X141074548Y-60825692D02*
X139574548Y-60825692D01*
X141074548Y-66225692D02*
X141074548Y-60825692D01*
X139574548Y-66225692D02*
X141074548Y-66225692D01*
X139574548Y-60825692D02*
X139574548Y-66225692D01*
X139824548Y-64025692D02*
X140824548Y-64025692D01*
X140824548Y-63025692D02*
X140324548Y-63925692D01*
X139824548Y-63025692D02*
X140824548Y-63025692D01*
X140324548Y-63925692D02*
X139824548Y-63025692D01*
X160149548Y-66175692D02*
X158649548Y-66175692D01*
X160149548Y-71575692D02*
X160149548Y-66175692D01*
X158649548Y-71575692D02*
X160149548Y-71575692D01*
X158649548Y-66175692D02*
X158649548Y-71575692D01*
X158899548Y-69375692D02*
X159899548Y-69375692D01*
X159899548Y-68375692D02*
X159399548Y-69275692D01*
X158899548Y-68375692D02*
X159899548Y-68375692D01*
X159399548Y-69275692D02*
X158899548Y-68375692D01*
X178250000Y-71800000D02*
X176750000Y-71800000D01*
X178250000Y-77200000D02*
X178250000Y-71800000D01*
X176750000Y-77200000D02*
X178250000Y-77200000D01*
X176750000Y-71800000D02*
X176750000Y-77200000D01*
X177000000Y-75000000D02*
X178000000Y-75000000D01*
X178000000Y-74000000D02*
X177500000Y-74900000D01*
X177000000Y-74000000D02*
X178000000Y-74000000D01*
X177500000Y-74900000D02*
X177000000Y-74000000D01*
X101330000Y-96045000D02*
X99830000Y-96045000D01*
X101330000Y-101445000D02*
X101330000Y-96045000D01*
X99830000Y-101445000D02*
X101330000Y-101445000D01*
X99830000Y-96045000D02*
X99830000Y-101445000D01*
X100080000Y-99245000D02*
X101080000Y-99245000D01*
X101080000Y-98245000D02*
X100580000Y-99145000D01*
X100080000Y-98245000D02*
X101080000Y-98245000D01*
X100580000Y-99145000D02*
X100080000Y-98245000D01*
X103100000Y-96020000D02*
X101600000Y-96020000D01*
X103100000Y-101420000D02*
X103100000Y-96020000D01*
X101600000Y-101420000D02*
X103100000Y-101420000D01*
X101600000Y-96020000D02*
X101600000Y-101420000D01*
X101850000Y-99220000D02*
X102850000Y-99220000D01*
X102850000Y-98220000D02*
X102350000Y-99120000D01*
X101850000Y-98220000D02*
X102850000Y-98220000D01*
X102350000Y-99120000D02*
X101850000Y-98220000D01*
X122075000Y-85245000D02*
X120575000Y-85245000D01*
X122075000Y-90645000D02*
X122075000Y-85245000D01*
X120575000Y-90645000D02*
X122075000Y-90645000D01*
X120575000Y-85245000D02*
X120575000Y-90645000D01*
X120825000Y-88445000D02*
X121825000Y-88445000D01*
X121825000Y-87445000D02*
X121325000Y-88345000D01*
X120825000Y-87445000D02*
X121825000Y-87445000D01*
X121325000Y-88345000D02*
X120825000Y-87445000D01*
X141075000Y-79900000D02*
X139575000Y-79900000D01*
X141075000Y-85300000D02*
X141075000Y-79900000D01*
X139575000Y-85300000D02*
X141075000Y-85300000D01*
X139575000Y-79900000D02*
X139575000Y-85300000D01*
X139825000Y-83100000D02*
X140825000Y-83100000D01*
X140825000Y-82100000D02*
X140325000Y-83000000D01*
X139825000Y-82100000D02*
X140825000Y-82100000D01*
X140325000Y-83000000D02*
X139825000Y-82100000D01*
X160150000Y-85225000D02*
X158650000Y-85225000D01*
X160150000Y-90625000D02*
X160150000Y-85225000D01*
X158650000Y-90625000D02*
X160150000Y-90625000D01*
X158650000Y-85225000D02*
X158650000Y-90625000D01*
X158900000Y-88425000D02*
X159900000Y-88425000D01*
X159900000Y-87425000D02*
X159400000Y-88325000D01*
X158900000Y-87425000D02*
X159900000Y-87425000D01*
X159400000Y-88325000D02*
X158900000Y-87425000D01*
X177826148Y-86867452D02*
X176326148Y-86867452D01*
X177826148Y-92267452D02*
X177826148Y-86867452D01*
X176326148Y-92267452D02*
X177826148Y-92267452D01*
X176326148Y-86867452D02*
X176326148Y-92267452D01*
X176576148Y-90067452D02*
X177576148Y-90067452D01*
X177576148Y-89067452D02*
X177076148Y-89967452D01*
X176576148Y-89067452D02*
X177576148Y-89067452D01*
X177076148Y-89967452D02*
X176576148Y-89067452D01*
X122175000Y-104495000D02*
X120675000Y-104495000D01*
X122175000Y-109895000D02*
X122175000Y-104495000D01*
X120675000Y-109895000D02*
X122175000Y-109895000D01*
X120675000Y-104495000D02*
X120675000Y-109895000D01*
X120925000Y-107695000D02*
X121925000Y-107695000D01*
X121925000Y-106695000D02*
X121425000Y-107595000D01*
X120925000Y-106695000D02*
X121925000Y-106695000D01*
X121425000Y-107595000D02*
X120925000Y-106695000D01*
X141050000Y-98895000D02*
X139550000Y-98895000D01*
X141050000Y-104295000D02*
X141050000Y-98895000D01*
X139550000Y-104295000D02*
X141050000Y-104295000D01*
X139550000Y-98895000D02*
X139550000Y-104295000D01*
X139800000Y-102095000D02*
X140800000Y-102095000D01*
X140800000Y-101095000D02*
X140300000Y-101995000D01*
X139800000Y-101095000D02*
X140800000Y-101095000D01*
X140300000Y-101995000D02*
X139800000Y-101095000D01*
X160125000Y-104220000D02*
X158625000Y-104220000D01*
X160125000Y-109620000D02*
X160125000Y-104220000D01*
X158625000Y-109620000D02*
X160125000Y-109620000D01*
X158625000Y-104220000D02*
X158625000Y-109620000D01*
X158875000Y-107420000D02*
X159875000Y-107420000D01*
X159875000Y-106420000D02*
X159375000Y-107320000D01*
X158875000Y-106420000D02*
X159875000Y-106420000D01*
X159375000Y-107320000D02*
X158875000Y-106420000D01*
X179125000Y-109620000D02*
X177625000Y-109620000D01*
X179125000Y-115020000D02*
X179125000Y-109620000D01*
X177625000Y-115020000D02*
X179125000Y-115020000D01*
X177625000Y-109620000D02*
X177625000Y-115020000D01*
X177875000Y-112820000D02*
X178875000Y-112820000D01*
X178875000Y-111820000D02*
X178375000Y-112720000D01*
X177875000Y-111820000D02*
X178875000Y-111820000D01*
X178375000Y-112720000D02*
X177875000Y-111820000D01*
X197275000Y-109870000D02*
X195775000Y-109870000D01*
X197275000Y-115270000D02*
X197275000Y-109870000D01*
X195775000Y-115270000D02*
X197275000Y-115270000D01*
X195775000Y-109870000D02*
X195775000Y-115270000D01*
X196025000Y-113070000D02*
X197025000Y-113070000D01*
X197025000Y-112070000D02*
X196525000Y-112970000D01*
X196025000Y-112070000D02*
X197025000Y-112070000D01*
X196525000Y-112970000D02*
X196025000Y-112070000D01*
X141200000Y-118020000D02*
X139700000Y-118020000D01*
X141200000Y-123420000D02*
X141200000Y-118020000D01*
X139700000Y-123420000D02*
X141200000Y-123420000D01*
X139700000Y-118020000D02*
X139700000Y-123420000D01*
X139950000Y-121220000D02*
X140950000Y-121220000D01*
X140950000Y-120220000D02*
X140450000Y-121120000D01*
X139950000Y-120220000D02*
X140950000Y-120220000D01*
X140450000Y-121120000D02*
X139950000Y-120220000D01*
X160125000Y-123270000D02*
X158625000Y-123270000D01*
X160125000Y-128670000D02*
X160125000Y-123270000D01*
X158625000Y-128670000D02*
X160125000Y-128670000D01*
X158625000Y-123270000D02*
X158625000Y-128670000D01*
X158875000Y-126470000D02*
X159875000Y-126470000D01*
X159875000Y-125470000D02*
X159375000Y-126370000D01*
X158875000Y-125470000D02*
X159875000Y-125470000D01*
X159375000Y-126370000D02*
X158875000Y-125470000D01*
X177725000Y-123245000D02*
X176225000Y-123245000D01*
X177725000Y-128645000D02*
X177725000Y-123245000D01*
X176225000Y-128645000D02*
X177725000Y-128645000D01*
X176225000Y-123245000D02*
X176225000Y-128645000D01*
X176475000Y-126445000D02*
X177475000Y-126445000D01*
X177475000Y-125445000D02*
X176975000Y-126345000D01*
X176475000Y-125445000D02*
X177475000Y-125445000D01*
X176975000Y-126345000D02*
X176475000Y-125445000D01*
X197300000Y-128770000D02*
X195800000Y-128770000D01*
X197300000Y-134170000D02*
X197300000Y-128770000D01*
X195800000Y-134170000D02*
X197300000Y-134170000D01*
X195800000Y-128770000D02*
X195800000Y-134170000D01*
X196050000Y-131970000D02*
X197050000Y-131970000D01*
X197050000Y-130970000D02*
X196550000Y-131870000D01*
X196050000Y-130970000D02*
X197050000Y-130970000D01*
X196550000Y-131870000D02*
X196050000Y-130970000D01*
X132280000Y-40100000D02*
X132280000Y-39400000D01*
X132280000Y-40150000D02*
G75*
G03X133500000Y-41570000I1320000J-100000D01*
G01*
X132570000Y-46200000D02*
G75*
G03X130200000Y-44030000I-2270000J-100000D01*
G01*
X137275000Y-46200000D02*
X137300000Y-41600000D01*
X127700000Y-44000000D02*
X127700000Y-39400000D01*
X133500000Y-41575000D02*
X137275000Y-41575000D01*
X132575000Y-46225000D02*
X137275000Y-46225000D01*
X127725000Y-44025000D02*
X130275000Y-44025000D01*
X127725000Y-39375000D02*
X132275000Y-39375000D01*
X132485000Y-48520000D02*
G75*
G02X130225000Y-50400000I-2070000J190000D01*
G01*
X136089000Y-52520000D02*
G75*
G02X133825000Y-54404000I-2074000J190000D01*
G01*
X125200000Y-50450000D02*
X130250000Y-50404000D01*
X125200000Y-50496000D02*
X125200000Y-54404000D01*
X125200000Y-54404000D02*
X133825000Y-54404000D01*
X136100000Y-52450000D02*
X136100000Y-48505000D01*
X136100000Y-48496000D02*
X132490000Y-48496000D01*
X94280000Y-69900000D02*
X94280000Y-69200000D01*
X94280000Y-69950000D02*
G75*
G03X95500000Y-71370000I1320000J-100000D01*
G01*
X94570000Y-76000000D02*
G75*
G03X92200000Y-73830000I-2270000J-100000D01*
G01*
X99275000Y-76000000D02*
X99300000Y-71400000D01*
X89700000Y-73800000D02*
X89700000Y-69200000D01*
X95500000Y-71375000D02*
X99275000Y-71375000D01*
X94575000Y-76025000D02*
X99275000Y-76025000D01*
X89725000Y-73825000D02*
X92275000Y-73825000D01*
X89725000Y-69175000D02*
X94275000Y-69175000D01*
X94485000Y-78320000D02*
G75*
G02X92225000Y-80200000I-2070000J190000D01*
G01*
X98089000Y-82320000D02*
G75*
G02X95825000Y-84204000I-2074000J190000D01*
G01*
X87200000Y-80250000D02*
X92250000Y-80204000D01*
X87200000Y-80296000D02*
X87200000Y-84204000D01*
X87200000Y-84204000D02*
X95825000Y-84204000D01*
X98100000Y-82250000D02*
X98100000Y-78305000D01*
X98100000Y-78296000D02*
X94490000Y-78296000D01*
X113280000Y-69900000D02*
X113280000Y-69200000D01*
X113280000Y-69950000D02*
G75*
G03X114500000Y-71370000I1320000J-100000D01*
G01*
X113570000Y-76000000D02*
G75*
G03X111200000Y-73830000I-2270000J-100000D01*
G01*
X118275000Y-76000000D02*
X118300000Y-71400000D01*
X108700000Y-73800000D02*
X108700000Y-69200000D01*
X114500000Y-71375000D02*
X118275000Y-71375000D01*
X113575000Y-76025000D02*
X118275000Y-76025000D01*
X108725000Y-73825000D02*
X111275000Y-73825000D01*
X108725000Y-69175000D02*
X113275000Y-69175000D01*
X113485000Y-78320000D02*
G75*
G02X111225000Y-80200000I-2070000J190000D01*
G01*
X117089000Y-82320000D02*
G75*
G02X114825000Y-84204000I-2074000J190000D01*
G01*
X106200000Y-80250000D02*
X111250000Y-80204000D01*
X106200000Y-80296000D02*
X106200000Y-84204000D01*
X106200000Y-84204000D02*
X114825000Y-84204000D01*
X117100000Y-82250000D02*
X117100000Y-78305000D01*
X117100000Y-78296000D02*
X113490000Y-78296000D01*
X132280000Y-59100000D02*
X132280000Y-58400000D01*
X132280000Y-59150000D02*
G75*
G03X133500000Y-60570000I1320000J-100000D01*
G01*
X132570000Y-65200000D02*
G75*
G03X130200000Y-63030000I-2270000J-100000D01*
G01*
X137275000Y-65200000D02*
X137300000Y-60600000D01*
X127700000Y-63000000D02*
X127700000Y-58400000D01*
X133500000Y-60575000D02*
X137275000Y-60575000D01*
X132575000Y-65225000D02*
X137275000Y-65225000D01*
X127725000Y-63025000D02*
X130275000Y-63025000D01*
X127725000Y-58375000D02*
X132275000Y-58375000D01*
X132485000Y-67520000D02*
G75*
G02X130225000Y-69400000I-2070000J190000D01*
G01*
X136089000Y-71520000D02*
G75*
G02X133825000Y-73404000I-2074000J190000D01*
G01*
X125200000Y-69450000D02*
X130250000Y-69404000D01*
X125200000Y-69496000D02*
X125200000Y-73404000D01*
X125200000Y-73404000D02*
X133825000Y-73404000D01*
X136100000Y-71450000D02*
X136100000Y-67505000D01*
X136100000Y-67496000D02*
X132490000Y-67496000D01*
X151280000Y-53700000D02*
X151280000Y-53000000D01*
X151280000Y-53750000D02*
G75*
G03X152500000Y-55170000I1320000J-100000D01*
G01*
X151570000Y-59800000D02*
G75*
G03X149200000Y-57630000I-2270000J-100000D01*
G01*
X156275000Y-59800000D02*
X156300000Y-55200000D01*
X146700000Y-57600000D02*
X146700000Y-53000000D01*
X152500000Y-55175000D02*
X156275000Y-55175000D01*
X151575000Y-59825000D02*
X156275000Y-59825000D01*
X146725000Y-57625000D02*
X149275000Y-57625000D01*
X146725000Y-52975000D02*
X151275000Y-52975000D01*
X151485000Y-62120000D02*
G75*
G02X149225000Y-64000000I-2070000J190000D01*
G01*
X155089000Y-66120000D02*
G75*
G02X152825000Y-68004000I-2074000J190000D01*
G01*
X144200000Y-64050000D02*
X149250000Y-64004000D01*
X144200000Y-64096000D02*
X144200000Y-68004000D01*
X144200000Y-68004000D02*
X152825000Y-68004000D01*
X155100000Y-66050000D02*
X155100000Y-62105000D01*
X155100000Y-62096000D02*
X151490000Y-62096000D01*
X170280000Y-59100000D02*
X170280000Y-58400000D01*
X170280000Y-59150000D02*
G75*
G03X171500000Y-60570000I1320000J-100000D01*
G01*
X170570000Y-65200000D02*
G75*
G03X168200000Y-63030000I-2270000J-100000D01*
G01*
X175275000Y-65200000D02*
X175300000Y-60600000D01*
X165700000Y-63000000D02*
X165700000Y-58400000D01*
X171500000Y-60575000D02*
X175275000Y-60575000D01*
X170575000Y-65225000D02*
X175275000Y-65225000D01*
X165725000Y-63025000D02*
X168275000Y-63025000D01*
X165725000Y-58375000D02*
X170275000Y-58375000D01*
X170485000Y-67520000D02*
G75*
G02X168225000Y-69400000I-2070000J190000D01*
G01*
X174089000Y-71520000D02*
G75*
G02X171825000Y-73404000I-2074000J190000D01*
G01*
X163200000Y-69450000D02*
X168250000Y-69404000D01*
X163200000Y-69496000D02*
X163200000Y-73404000D01*
X163200000Y-73404000D02*
X171825000Y-73404000D01*
X174100000Y-71450000D02*
X174100000Y-67505000D01*
X174100000Y-67496000D02*
X170490000Y-67496000D01*
X189280000Y-64500000D02*
X189280000Y-63800000D01*
X189280000Y-64550000D02*
G75*
G03X190500000Y-65970000I1320000J-100000D01*
G01*
X189570000Y-70600000D02*
G75*
G03X187200000Y-68430000I-2270000J-100000D01*
G01*
X194275000Y-70600000D02*
X194300000Y-66000000D01*
X184700000Y-68400000D02*
X184700000Y-63800000D01*
X190500000Y-65975000D02*
X194275000Y-65975000D01*
X189575000Y-70625000D02*
X194275000Y-70625000D01*
X184725000Y-68425000D02*
X187275000Y-68425000D01*
X184725000Y-63775000D02*
X189275000Y-63775000D01*
X189485000Y-72920000D02*
G75*
G02X187225000Y-74800000I-2070000J190000D01*
G01*
X193089000Y-76920000D02*
G75*
G02X190825000Y-78804000I-2074000J190000D01*
G01*
X182200000Y-74850000D02*
X187250000Y-74804000D01*
X182200000Y-74896000D02*
X182200000Y-78804000D01*
X182200000Y-78804000D02*
X190825000Y-78804000D01*
X193100000Y-76850000D02*
X193100000Y-72905000D01*
X193100000Y-72896000D02*
X189490000Y-72896000D01*
X94280000Y-88900000D02*
X94280000Y-88200000D01*
X94280000Y-88950000D02*
G75*
G03X95500000Y-90370000I1320000J-100000D01*
G01*
X94570000Y-95000000D02*
G75*
G03X92200000Y-92830000I-2270000J-100000D01*
G01*
X99275000Y-95000000D02*
X99300000Y-90400000D01*
X89700000Y-92800000D02*
X89700000Y-88200000D01*
X95500000Y-90375000D02*
X99275000Y-90375000D01*
X94575000Y-95025000D02*
X99275000Y-95025000D01*
X89725000Y-92825000D02*
X92275000Y-92825000D01*
X89725000Y-88175000D02*
X94275000Y-88175000D01*
X94485000Y-97320000D02*
G75*
G02X92225000Y-99200000I-2070000J190000D01*
G01*
X98089000Y-101320000D02*
G75*
G02X95825000Y-103204000I-2074000J190000D01*
G01*
X87200000Y-99250000D02*
X92250000Y-99204000D01*
X87200000Y-99296000D02*
X87200000Y-103204000D01*
X87200000Y-103204000D02*
X95825000Y-103204000D01*
X98100000Y-101250000D02*
X98100000Y-97305000D01*
X98100000Y-97296000D02*
X94490000Y-97296000D01*
X113280000Y-88900000D02*
X113280000Y-88200000D01*
X113280000Y-88950000D02*
G75*
G03X114500000Y-90370000I1320000J-100000D01*
G01*
X113570000Y-95000000D02*
G75*
G03X111200000Y-92830000I-2270000J-100000D01*
G01*
X118275000Y-95000000D02*
X118300000Y-90400000D01*
X108700000Y-92800000D02*
X108700000Y-88200000D01*
X114500000Y-90375000D02*
X118275000Y-90375000D01*
X113575000Y-95025000D02*
X118275000Y-95025000D01*
X108725000Y-92825000D02*
X111275000Y-92825000D01*
X108725000Y-88175000D02*
X113275000Y-88175000D01*
X113485000Y-97320000D02*
G75*
G02X111225000Y-99200000I-2070000J190000D01*
G01*
X117089000Y-101320000D02*
G75*
G02X114825000Y-103204000I-2074000J190000D01*
G01*
X106200000Y-99250000D02*
X111250000Y-99204000D01*
X106200000Y-99296000D02*
X106200000Y-103204000D01*
X106200000Y-103204000D02*
X114825000Y-103204000D01*
X117100000Y-101250000D02*
X117100000Y-97305000D01*
X117100000Y-97296000D02*
X113490000Y-97296000D01*
X151280000Y-72700000D02*
X151280000Y-72000000D01*
X151280000Y-72750000D02*
G75*
G03X152500000Y-74170000I1320000J-100000D01*
G01*
X151570000Y-78800000D02*
G75*
G03X149200000Y-76630000I-2270000J-100000D01*
G01*
X156275000Y-78800000D02*
X156300000Y-74200000D01*
X146700000Y-76600000D02*
X146700000Y-72000000D01*
X152500000Y-74175000D02*
X156275000Y-74175000D01*
X151575000Y-78825000D02*
X156275000Y-78825000D01*
X146725000Y-76625000D02*
X149275000Y-76625000D01*
X146725000Y-71975000D02*
X151275000Y-71975000D01*
X151485000Y-81120000D02*
G75*
G02X149225000Y-83000000I-2070000J190000D01*
G01*
X155089000Y-85120000D02*
G75*
G02X152825000Y-87004000I-2074000J190000D01*
G01*
X144200000Y-83050000D02*
X149250000Y-83004000D01*
X144200000Y-83096000D02*
X144200000Y-87004000D01*
X144200000Y-87004000D02*
X152825000Y-87004000D01*
X155100000Y-85050000D02*
X155100000Y-81105000D01*
X155100000Y-81096000D02*
X151490000Y-81096000D01*
X170280000Y-78100000D02*
X170280000Y-77400000D01*
X170280000Y-78150000D02*
G75*
G03X171500000Y-79570000I1320000J-100000D01*
G01*
X170570000Y-84200000D02*
G75*
G03X168200000Y-82030000I-2270000J-100000D01*
G01*
X175275000Y-84200000D02*
X175300000Y-79600000D01*
X165700000Y-82000000D02*
X165700000Y-77400000D01*
X171500000Y-79575000D02*
X175275000Y-79575000D01*
X170575000Y-84225000D02*
X175275000Y-84225000D01*
X165725000Y-82025000D02*
X168275000Y-82025000D01*
X165725000Y-77375000D02*
X170275000Y-77375000D01*
X170485000Y-86520000D02*
G75*
G02X168225000Y-88400000I-2070000J190000D01*
G01*
X174089000Y-90520000D02*
G75*
G02X171825000Y-92404000I-2074000J190000D01*
G01*
X163200000Y-88450000D02*
X168250000Y-88404000D01*
X163200000Y-88496000D02*
X163200000Y-92404000D01*
X163200000Y-92404000D02*
X171825000Y-92404000D01*
X174100000Y-90450000D02*
X174100000Y-86505000D01*
X174100000Y-86496000D02*
X170490000Y-86496000D01*
X189280000Y-83500000D02*
X189280000Y-82800000D01*
X189280000Y-83550000D02*
G75*
G03X190500000Y-84970000I1320000J-100000D01*
G01*
X189570000Y-89600000D02*
G75*
G03X187200000Y-87430000I-2270000J-100000D01*
G01*
X194275000Y-89600000D02*
X194300000Y-85000000D01*
X184700000Y-87400000D02*
X184700000Y-82800000D01*
X190500000Y-84975000D02*
X194275000Y-84975000D01*
X189575000Y-89625000D02*
X194275000Y-89625000D01*
X184725000Y-87425000D02*
X187275000Y-87425000D01*
X184725000Y-82775000D02*
X189275000Y-82775000D01*
X189485000Y-91920000D02*
G75*
G02X187225000Y-93800000I-2070000J190000D01*
G01*
X193089000Y-95920000D02*
G75*
G02X190825000Y-97804000I-2074000J190000D01*
G01*
X182200000Y-93850000D02*
X187250000Y-93804000D01*
X182200000Y-93896000D02*
X182200000Y-97804000D01*
X182200000Y-97804000D02*
X190825000Y-97804000D01*
X193100000Y-95850000D02*
X193100000Y-91905000D01*
X193100000Y-91896000D02*
X189490000Y-91896000D01*
X151280000Y-91700000D02*
X151280000Y-91000000D01*
X151280000Y-91750000D02*
G75*
G03X152500000Y-93170000I1320000J-100000D01*
G01*
X151570000Y-97800000D02*
G75*
G03X149200000Y-95630000I-2270000J-100000D01*
G01*
X156275000Y-97800000D02*
X156300000Y-93200000D01*
X146700000Y-95600000D02*
X146700000Y-91000000D01*
X152500000Y-93175000D02*
X156275000Y-93175000D01*
X151575000Y-97825000D02*
X156275000Y-97825000D01*
X146725000Y-95625000D02*
X149275000Y-95625000D01*
X146725000Y-90975000D02*
X151275000Y-90975000D01*
X151485000Y-100120000D02*
G75*
G02X149225000Y-102000000I-2070000J190000D01*
G01*
X155089000Y-104120000D02*
G75*
G02X152825000Y-106004000I-2074000J190000D01*
G01*
X144200000Y-102050000D02*
X149250000Y-102004000D01*
X144200000Y-102096000D02*
X144200000Y-106004000D01*
X144200000Y-106004000D02*
X152825000Y-106004000D01*
X155100000Y-104050000D02*
X155100000Y-100105000D01*
X155100000Y-100096000D02*
X151490000Y-100096000D01*
X170280000Y-97100000D02*
X170280000Y-96400000D01*
X170280000Y-97150000D02*
G75*
G03X171500000Y-98570000I1320000J-100000D01*
G01*
X170570000Y-103200000D02*
G75*
G03X168200000Y-101030000I-2270000J-100000D01*
G01*
X175275000Y-103200000D02*
X175300000Y-98600000D01*
X165700000Y-101000000D02*
X165700000Y-96400000D01*
X171500000Y-98575000D02*
X175275000Y-98575000D01*
X170575000Y-103225000D02*
X175275000Y-103225000D01*
X165725000Y-101025000D02*
X168275000Y-101025000D01*
X165725000Y-96375000D02*
X170275000Y-96375000D01*
X170485000Y-105520000D02*
G75*
G02X168225000Y-107400000I-2070000J190000D01*
G01*
X174089000Y-109520000D02*
G75*
G02X171825000Y-111404000I-2074000J190000D01*
G01*
X163200000Y-107450000D02*
X168250000Y-107404000D01*
X163200000Y-107496000D02*
X163200000Y-111404000D01*
X163200000Y-111404000D02*
X171825000Y-111404000D01*
X174100000Y-109450000D02*
X174100000Y-105505000D01*
X174100000Y-105496000D02*
X170490000Y-105496000D01*
X189280000Y-102500000D02*
X189280000Y-101800000D01*
X189280000Y-102550000D02*
G75*
G03X190500000Y-103970000I1320000J-100000D01*
G01*
X189570000Y-108600000D02*
G75*
G03X187200000Y-106430000I-2270000J-100000D01*
G01*
X194275000Y-108600000D02*
X194300000Y-104000000D01*
X184700000Y-106400000D02*
X184700000Y-101800000D01*
X190500000Y-103975000D02*
X194275000Y-103975000D01*
X189575000Y-108625000D02*
X194275000Y-108625000D01*
X184725000Y-106425000D02*
X187275000Y-106425000D01*
X184725000Y-101775000D02*
X189275000Y-101775000D01*
X189485000Y-110920000D02*
G75*
G02X187225000Y-112800000I-2070000J190000D01*
G01*
X193089000Y-114920000D02*
G75*
G02X190825000Y-116804000I-2074000J190000D01*
G01*
X182200000Y-112850000D02*
X187250000Y-112804000D01*
X182200000Y-112896000D02*
X182200000Y-116804000D01*
X182200000Y-116804000D02*
X190825000Y-116804000D01*
X193100000Y-114850000D02*
X193100000Y-110905000D01*
X193100000Y-110896000D02*
X189490000Y-110896000D01*
X208280000Y-102500000D02*
X208280000Y-101800000D01*
X208280000Y-102550000D02*
G75*
G03X209500000Y-103970000I1320000J-100000D01*
G01*
X208570000Y-108600000D02*
G75*
G03X206200000Y-106430000I-2270000J-100000D01*
G01*
X213275000Y-108600000D02*
X213300000Y-104000000D01*
X203700000Y-106400000D02*
X203700000Y-101800000D01*
X209500000Y-103975000D02*
X213275000Y-103975000D01*
X208575000Y-108625000D02*
X213275000Y-108625000D01*
X203725000Y-106425000D02*
X206275000Y-106425000D01*
X203725000Y-101775000D02*
X208275000Y-101775000D01*
X208485000Y-110920000D02*
G75*
G02X206225000Y-112800000I-2070000J190000D01*
G01*
X212089000Y-114920000D02*
G75*
G02X209825000Y-116804000I-2074000J190000D01*
G01*
X201200000Y-112850000D02*
X206250000Y-112804000D01*
X201200000Y-112896000D02*
X201200000Y-116804000D01*
X201200000Y-116804000D02*
X209825000Y-116804000D01*
X212100000Y-114850000D02*
X212100000Y-110905000D01*
X212100000Y-110896000D02*
X208490000Y-110896000D01*
X151280000Y-110700000D02*
X151280000Y-110000000D01*
X151280000Y-110750000D02*
G75*
G03X152500000Y-112170000I1320000J-100000D01*
G01*
X151570000Y-116800000D02*
G75*
G03X149200000Y-114630000I-2270000J-100000D01*
G01*
X156275000Y-116800000D02*
X156300000Y-112200000D01*
X146700000Y-114600000D02*
X146700000Y-110000000D01*
X152500000Y-112175000D02*
X156275000Y-112175000D01*
X151575000Y-116825000D02*
X156275000Y-116825000D01*
X146725000Y-114625000D02*
X149275000Y-114625000D01*
X146725000Y-109975000D02*
X151275000Y-109975000D01*
X151485000Y-119120000D02*
G75*
G02X149225000Y-121000000I-2070000J190000D01*
G01*
X155089000Y-123120000D02*
G75*
G02X152825000Y-125004000I-2074000J190000D01*
G01*
X144200000Y-121050000D02*
X149250000Y-121004000D01*
X144200000Y-121096000D02*
X144200000Y-125004000D01*
X144200000Y-125004000D02*
X152825000Y-125004000D01*
X155100000Y-123050000D02*
X155100000Y-119105000D01*
X155100000Y-119096000D02*
X151490000Y-119096000D01*
X209920000Y-98610000D02*
X209920000Y-99245000D01*
X209920000Y-97340000D02*
X209920000Y-97975000D01*
X209920000Y-96070000D02*
X209920000Y-96705000D01*
X209920000Y-94800000D02*
X209920000Y-95435000D01*
X208650000Y-94800000D02*
X209285000Y-94800000D01*
X207380000Y-94800000D02*
X208015000Y-94800000D01*
X206110000Y-94800000D02*
X206745000Y-94800000D01*
X204840000Y-94800000D02*
X205475000Y-94800000D01*
X203570000Y-94800000D02*
X204205000Y-94800000D01*
X202300000Y-94800000D02*
X202935000Y-94800000D01*
X202300000Y-96070000D02*
X202300000Y-95435000D01*
X202300000Y-97340000D02*
X202300000Y-96705000D01*
X202300000Y-98610000D02*
X202300000Y-97975000D01*
X202300000Y-99880000D02*
X202300000Y-99245000D01*
X203570000Y-99880000D02*
X202935000Y-99880000D01*
X204840000Y-99880000D02*
X204205000Y-99880000D01*
X206110000Y-99880000D02*
X205475000Y-99880000D01*
X207380000Y-99880000D02*
X206745000Y-99880000D01*
X208650000Y-99880000D02*
X208015000Y-99880000D01*
X209920000Y-99880000D02*
X209285000Y-99880000D01*
X200760000Y-86950000D02*
X200760000Y-89950000D01*
X200760000Y-89950000D02*
X198760000Y-89950000D01*
X198760000Y-89950000D02*
X198760000Y-86950000D01*
X198760000Y-86950000D02*
X200760000Y-86950000D01*
X198220000Y-86950000D02*
X198220000Y-89950000D01*
X198220000Y-89950000D02*
X196220000Y-89950000D01*
X196220000Y-89950000D02*
X196220000Y-86950000D01*
X196220000Y-86950000D02*
X198220000Y-86950000D01*
X210555000Y-82100000D02*
X200395000Y-82100000D01*
X200395000Y-82100000D02*
X200395000Y-79560000D01*
X200395000Y-79560000D02*
X210555000Y-79560000D01*
X210555000Y-79560000D02*
X210555000Y-82100000D01*
X208396000Y-76512000D02*
X208396000Y-78798000D01*
X208396000Y-78798000D02*
X210174000Y-78798000D01*
X210174000Y-78798000D02*
X210174000Y-76512000D01*
X210174000Y-76512000D02*
X208396000Y-76512000D01*
X205856000Y-76512000D02*
X205856000Y-78798000D01*
X205856000Y-78798000D02*
X207634000Y-78798000D01*
X207634000Y-78798000D02*
X207634000Y-76512000D01*
X207634000Y-76512000D02*
X205856000Y-76512000D01*
X203316000Y-76512000D02*
X203316000Y-78798000D01*
X203316000Y-78798000D02*
X205094000Y-78798000D01*
X205094000Y-78798000D02*
X205094000Y-76512000D01*
X205094000Y-76512000D02*
X203316000Y-76512000D01*
X200776000Y-76512000D02*
X200776000Y-78798000D01*
X200776000Y-78798000D02*
X202554000Y-78798000D01*
X202554000Y-78798000D02*
X202554000Y-76512000D01*
X202554000Y-76512000D02*
X200776000Y-76512000D01*
X211190000Y-47810000D02*
X213730000Y-47810000D01*
X213730000Y-47810000D02*
X213730000Y-78290000D01*
X213730000Y-78290000D02*
X211190000Y-78290000D01*
X211190000Y-78290000D02*
X211190000Y-47810000D01*
X195950000Y-47810000D02*
X198490000Y-47810000D01*
X198490000Y-47810000D02*
X198490000Y-78290000D01*
X198490000Y-78290000D02*
X195950000Y-78290000D01*
X195950000Y-78290000D02*
X195950000Y-47810000D01*
X207400000Y-90900000D02*
X207400000Y-90650000D01*
X207400000Y-90650000D02*
X213400000Y-90650000D01*
X213400000Y-90650000D02*
X213400000Y-90900000D01*
X213400000Y-93900000D02*
X213400000Y-94150000D01*
X213400000Y-94150000D02*
X207400000Y-94150000D01*
X207400000Y-94150000D02*
X207400000Y-93900000D01*
X203000000Y-82430000D02*
X215000000Y-82430000D01*
X203000000Y-88430000D02*
X203000000Y-82430000D01*
X215000000Y-88430000D02*
X203000000Y-88430000D01*
X215000000Y-82430000D02*
X215000000Y-88430000D01*
X209628990Y-73913028D02*
X209667695Y-74029142D01*
X209667695Y-74222666D01*
X209628990Y-74300076D01*
X209590285Y-74338780D01*
X209512876Y-74377485D01*
X209435466Y-74377485D01*
X209358057Y-74338780D01*
X209319352Y-74300076D01*
X209280647Y-74222666D01*
X209241942Y-74067847D01*
X209203238Y-73990438D01*
X209164533Y-73951733D01*
X209087123Y-73913028D01*
X209009714Y-73913028D01*
X208932304Y-73951733D01*
X208893600Y-73990438D01*
X208854895Y-74067847D01*
X208854895Y-74261371D01*
X208893600Y-74377485D01*
X209667695Y-74725828D02*
X208854895Y-74725828D01*
X208854895Y-74919352D01*
X208893600Y-75035466D01*
X208971009Y-75112876D01*
X209048419Y-75151580D01*
X209203238Y-75190285D01*
X209319352Y-75190285D01*
X209474171Y-75151580D01*
X209551580Y-75112876D01*
X209628990Y-75035466D01*
X209667695Y-74919352D01*
X209667695Y-74725828D01*
X209435466Y-75499923D02*
X209435466Y-75886971D01*
X209667695Y-75422514D02*
X208854895Y-75693447D01*
X209667695Y-75964380D01*
X207073990Y-73832380D02*
X207112695Y-73948495D01*
X207112695Y-74142019D01*
X207073990Y-74219428D01*
X207035285Y-74258133D01*
X206957876Y-74296838D01*
X206880466Y-74296838D01*
X206803057Y-74258133D01*
X206764352Y-74219428D01*
X206725647Y-74142019D01*
X206686942Y-73987200D01*
X206648238Y-73909790D01*
X206609533Y-73871085D01*
X206532123Y-73832380D01*
X206454714Y-73832380D01*
X206377304Y-73871085D01*
X206338600Y-73909790D01*
X206299895Y-73987200D01*
X206299895Y-74180723D01*
X206338600Y-74296838D01*
X207035285Y-75109638D02*
X207073990Y-75070933D01*
X207112695Y-74954819D01*
X207112695Y-74877409D01*
X207073990Y-74761295D01*
X206996580Y-74683885D01*
X206919171Y-74645180D01*
X206764352Y-74606476D01*
X206648238Y-74606476D01*
X206493419Y-74645180D01*
X206416009Y-74683885D01*
X206338600Y-74761295D01*
X206299895Y-74877409D01*
X206299895Y-74954819D01*
X206338600Y-75070933D01*
X206377304Y-75109638D01*
X207112695Y-75845028D02*
X207112695Y-75457980D01*
X206299895Y-75457980D01*
X203759895Y-73816266D02*
X204572695Y-74087200D01*
X203759895Y-74358133D01*
X204495285Y-75093523D02*
X204533990Y-75054819D01*
X204572695Y-74938704D01*
X204572695Y-74861295D01*
X204533990Y-74745180D01*
X204456580Y-74667771D01*
X204379171Y-74629066D01*
X204224352Y-74590361D01*
X204108238Y-74590361D01*
X203953419Y-74629066D01*
X203876009Y-74667771D01*
X203798600Y-74745180D01*
X203759895Y-74861295D01*
X203759895Y-74938704D01*
X203798600Y-75054819D01*
X203837304Y-75093523D01*
X204495285Y-75906323D02*
X204533990Y-75867619D01*
X204572695Y-75751504D01*
X204572695Y-75674095D01*
X204533990Y-75557980D01*
X204456580Y-75480571D01*
X204379171Y-75441866D01*
X204224352Y-75403161D01*
X204108238Y-75403161D01*
X203953419Y-75441866D01*
X203876009Y-75480571D01*
X203798600Y-75557980D01*
X203759895Y-75674095D01*
X203759895Y-75751504D01*
X203798600Y-75867619D01*
X203837304Y-75906323D01*
X201258600Y-74280723D02*
X201219895Y-74203314D01*
X201219895Y-74087200D01*
X201258600Y-73971085D01*
X201336009Y-73893676D01*
X201413419Y-73854971D01*
X201568238Y-73816266D01*
X201684352Y-73816266D01*
X201839171Y-73854971D01*
X201916580Y-73893676D01*
X201993990Y-73971085D01*
X202032695Y-74087200D01*
X202032695Y-74164609D01*
X201993990Y-74280723D01*
X201955285Y-74319428D01*
X201684352Y-74319428D01*
X201684352Y-74164609D01*
X202032695Y-74667771D02*
X201219895Y-74667771D01*
X202032695Y-75132228D01*
X201219895Y-75132228D01*
X202032695Y-75519276D02*
X201219895Y-75519276D01*
X201219895Y-75712800D01*
X201258600Y-75828914D01*
X201336009Y-75906323D01*
X201413419Y-75945028D01*
X201568238Y-75983733D01*
X201684352Y-75983733D01*
X201839171Y-75945028D01*
X201916580Y-75906323D01*
X201993990Y-75828914D01*
X202032695Y-75712800D01*
X202032695Y-75519276D01*
%LPC*%
D12*
X88190000Y-60940000D03*
X94540000Y-63480000D03*
X87000000Y-54700000D03*
D13*
X100100000Y-54700000D03*
D14*
X89200000Y-52500000D03*
D12*
X97000000Y-54700000D03*
X92000000Y-52500000D03*
D13*
X98900000Y-60940000D03*
D12*
X89460000Y-63480000D03*
D15*
X92000000Y-58400000D03*
D16*
X97500000Y-58400000D03*
X86500000Y-58400000D03*
D17*
X86920000Y-58400000D03*
X97080000Y-58400000D03*
D12*
X95810000Y-60940000D03*
D13*
X86400000Y-63480000D03*
D18*
X177300000Y-97270000D03*
X177325000Y-59270000D03*
X139725000Y-91120000D03*
X139750000Y-53870000D03*
X101550000Y-86895000D03*
X101525000Y-67895000D03*
D12*
X107190000Y-60940000D03*
X113540000Y-63480000D03*
X106000000Y-54700000D03*
D13*
X119100000Y-54700000D03*
D14*
X108200000Y-52500000D03*
D12*
X116000000Y-54700000D03*
X111000000Y-52500000D03*
D13*
X117900000Y-60940000D03*
D12*
X108460000Y-63480000D03*
D15*
X111000000Y-58400000D03*
D16*
X116500000Y-58400000D03*
X105500000Y-58400000D03*
D17*
X105920000Y-58400000D03*
X116080000Y-58400000D03*
D12*
X114810000Y-60940000D03*
D13*
X105400000Y-63480000D03*
D12*
X126190000Y-107140000D03*
X132540000Y-109680000D03*
X125000000Y-100900000D03*
D13*
X138100000Y-100900000D03*
D14*
X127200000Y-98700000D03*
D12*
X135000000Y-100900000D03*
X130000000Y-98700000D03*
D13*
X136900000Y-107140000D03*
D12*
X127460000Y-109680000D03*
D15*
X130000000Y-104600000D03*
D16*
X135500000Y-104600000D03*
X124500000Y-104600000D03*
D17*
X124920000Y-104600000D03*
X135080000Y-104600000D03*
D12*
X133810000Y-107140000D03*
D13*
X124400000Y-109680000D03*
D12*
X183190000Y-131540000D03*
X189540000Y-134080000D03*
X182000000Y-125300000D03*
D13*
X195100000Y-125300000D03*
D14*
X184200000Y-123100000D03*
D12*
X192000000Y-125300000D03*
X187000000Y-123100000D03*
D13*
X193900000Y-131540000D03*
D12*
X184460000Y-134080000D03*
D15*
X187000000Y-129000000D03*
D16*
X192500000Y-129000000D03*
X181500000Y-129000000D03*
D17*
X181920000Y-129000000D03*
X192080000Y-129000000D03*
D12*
X190810000Y-131540000D03*
D13*
X181400000Y-134080000D03*
D12*
X164190000Y-126140000D03*
X170540000Y-128680000D03*
X163000000Y-119900000D03*
D13*
X176100000Y-119900000D03*
D14*
X165200000Y-117700000D03*
D12*
X173000000Y-119900000D03*
X168000000Y-117700000D03*
D13*
X174900000Y-126140000D03*
D12*
X165460000Y-128680000D03*
D15*
X168000000Y-123600000D03*
D16*
X173500000Y-123600000D03*
X162500000Y-123600000D03*
D17*
X162920000Y-123600000D03*
X173080000Y-123600000D03*
D12*
X171810000Y-126140000D03*
D13*
X162400000Y-128680000D03*
D12*
X202190000Y-131540000D03*
X208540000Y-134080000D03*
X201000000Y-125300000D03*
D13*
X214100000Y-125300000D03*
D14*
X203200000Y-123100000D03*
D12*
X211000000Y-125300000D03*
X206000000Y-123100000D03*
D13*
X212900000Y-131540000D03*
D12*
X203460000Y-134080000D03*
D15*
X206000000Y-129000000D03*
D16*
X211500000Y-129000000D03*
X200500000Y-129000000D03*
D17*
X200920000Y-129000000D03*
X211080000Y-129000000D03*
D12*
X209810000Y-131540000D03*
D13*
X200400000Y-134080000D03*
D12*
X126190000Y-88140000D03*
X132540000Y-90680000D03*
X125000000Y-81900000D03*
D13*
X138100000Y-81900000D03*
D14*
X127200000Y-79700000D03*
D12*
X135000000Y-81900000D03*
X130000000Y-79700000D03*
D13*
X136900000Y-88140000D03*
D12*
X127460000Y-90680000D03*
D15*
X130000000Y-85600000D03*
D16*
X135500000Y-85600000D03*
X124500000Y-85600000D03*
D17*
X124920000Y-85600000D03*
X135080000Y-85600000D03*
D12*
X133810000Y-88140000D03*
D13*
X124400000Y-90680000D03*
D12*
X145189548Y-44740692D03*
X151539548Y-47280692D03*
X143999548Y-38500692D03*
D13*
X157099548Y-38500692D03*
D14*
X146199548Y-36300692D03*
D12*
X153999548Y-38500692D03*
X148999548Y-36300692D03*
D13*
X155899548Y-44740692D03*
D12*
X146459548Y-47280692D03*
D15*
X148999548Y-42200692D03*
D16*
X154499548Y-42200692D03*
X143499548Y-42200692D03*
D17*
X143919548Y-42200692D03*
X154079548Y-42200692D03*
D12*
X152809548Y-44740692D03*
D13*
X143399548Y-47280692D03*
D12*
X164190000Y-50140000D03*
X170540000Y-52680000D03*
X163000000Y-43900000D03*
D13*
X176100000Y-43900000D03*
D14*
X165200000Y-41700000D03*
D12*
X173000000Y-43900000D03*
X168000000Y-41700000D03*
D13*
X174900000Y-50140000D03*
D12*
X165460000Y-52680000D03*
D15*
X168000000Y-47600000D03*
D16*
X173500000Y-47600000D03*
X162500000Y-47600000D03*
D17*
X162920000Y-47600000D03*
X173080000Y-47600000D03*
D12*
X171810000Y-50140000D03*
D13*
X162400000Y-52680000D03*
D12*
X183190000Y-55540000D03*
X189540000Y-58080000D03*
X182000000Y-49300000D03*
D13*
X195100000Y-49300000D03*
D14*
X184200000Y-47100000D03*
D12*
X192000000Y-49300000D03*
X187000000Y-47100000D03*
D13*
X193900000Y-55540000D03*
D12*
X184460000Y-58080000D03*
D15*
X187000000Y-53000000D03*
D16*
X192500000Y-53000000D03*
X181500000Y-53000000D03*
D17*
X181920000Y-53000000D03*
X192080000Y-53000000D03*
D12*
X190810000Y-55540000D03*
D13*
X181400000Y-58080000D03*
D19*
X100625000Y-56860000D03*
D20*
X100625000Y-64480000D03*
D21*
X100625000Y-62445000D03*
X100625000Y-58895000D03*
D19*
X102425000Y-56847500D03*
D20*
X102425000Y-64467500D03*
D21*
X102425000Y-62432500D03*
X102425000Y-58882500D03*
D19*
X121325000Y-51760000D03*
D20*
X121325000Y-59380000D03*
D21*
X121325000Y-57345000D03*
X121325000Y-53795000D03*
D19*
X140325000Y-40780000D03*
D20*
X140325000Y-48400000D03*
D21*
X140325000Y-46365000D03*
X140325000Y-42815000D03*
D19*
X159350000Y-46000000D03*
D20*
X159350000Y-53620000D03*
D21*
X159350000Y-51585000D03*
X159350000Y-48035000D03*
D19*
X177200000Y-46010000D03*
D20*
X177200000Y-53630000D03*
D21*
X177200000Y-51595000D03*
X177200000Y-48045000D03*
D19*
X100580000Y-75910000D03*
D20*
X100580000Y-83530000D03*
D21*
X100580000Y-81495000D03*
X100580000Y-77945000D03*
D19*
X102350000Y-75910000D03*
D20*
X102350000Y-83530000D03*
D21*
X102350000Y-81495000D03*
X102350000Y-77945000D03*
D19*
X121325000Y-65135000D03*
D20*
X121325000Y-72755000D03*
D21*
X121325000Y-70720000D03*
X121325000Y-67170000D03*
D19*
X140324548Y-59715692D03*
D20*
X140324548Y-67335692D03*
D21*
X140324548Y-65300692D03*
X140324548Y-61750692D03*
D19*
X159399548Y-65065692D03*
D20*
X159399548Y-72685692D03*
D21*
X159399548Y-70650692D03*
X159399548Y-67100692D03*
D19*
X177500000Y-70690000D03*
D20*
X177500000Y-78310000D03*
D21*
X177500000Y-76275000D03*
X177500000Y-72725000D03*
D19*
X100580000Y-94935000D03*
D20*
X100580000Y-102555000D03*
D21*
X100580000Y-100520000D03*
X100580000Y-96970000D03*
D19*
X102350000Y-94910000D03*
D20*
X102350000Y-102530000D03*
D21*
X102350000Y-100495000D03*
X102350000Y-96945000D03*
D19*
X121325000Y-84135000D03*
D20*
X121325000Y-91755000D03*
D21*
X121325000Y-89720000D03*
X121325000Y-86170000D03*
D19*
X140325000Y-78790000D03*
D20*
X140325000Y-86410000D03*
D21*
X140325000Y-84375000D03*
X140325000Y-80825000D03*
D19*
X159400000Y-84115000D03*
D20*
X159400000Y-91735000D03*
D21*
X159400000Y-89700000D03*
X159400000Y-86150000D03*
D19*
X177076148Y-85757452D03*
D20*
X177076148Y-93377452D03*
D21*
X177076148Y-91342452D03*
X177076148Y-87792452D03*
D19*
X121425000Y-103385000D03*
D20*
X121425000Y-111005000D03*
D21*
X121425000Y-108970000D03*
X121425000Y-105420000D03*
D19*
X140300000Y-97785000D03*
D20*
X140300000Y-105405000D03*
D21*
X140300000Y-103370000D03*
X140300000Y-99820000D03*
D19*
X159375000Y-103110000D03*
D20*
X159375000Y-110730000D03*
D21*
X159375000Y-108695000D03*
X159375000Y-105145000D03*
D19*
X178375000Y-108510000D03*
D20*
X178375000Y-116130000D03*
D21*
X178375000Y-114095000D03*
X178375000Y-110545000D03*
D19*
X196525000Y-108760000D03*
D20*
X196525000Y-116380000D03*
D21*
X196525000Y-114345000D03*
X196525000Y-110795000D03*
D19*
X140450000Y-116910000D03*
D20*
X140450000Y-124530000D03*
D21*
X140450000Y-122495000D03*
X140450000Y-118945000D03*
D19*
X159375000Y-122160000D03*
D20*
X159375000Y-129780000D03*
D21*
X159375000Y-127745000D03*
X159375000Y-124195000D03*
D19*
X176975000Y-122135000D03*
D20*
X176975000Y-129755000D03*
D21*
X176975000Y-127720000D03*
X176975000Y-124170000D03*
D19*
X196550000Y-127660000D03*
D20*
X196550000Y-135280000D03*
D21*
X196550000Y-133245000D03*
X196550000Y-129695000D03*
D12*
X126190000Y-50140000D03*
X132540000Y-52680000D03*
X125000000Y-43900000D03*
D13*
X138100000Y-43900000D03*
D14*
X127200000Y-41700000D03*
D12*
X135000000Y-43900000D03*
X130000000Y-41700000D03*
D13*
X136900000Y-50140000D03*
D12*
X127460000Y-52680000D03*
D15*
X130000000Y-47600000D03*
D16*
X135500000Y-47600000D03*
X124500000Y-47600000D03*
D17*
X124920000Y-47600000D03*
X135080000Y-47600000D03*
D12*
X133810000Y-50140000D03*
D13*
X124400000Y-52680000D03*
D12*
X88190000Y-79940000D03*
X94540000Y-82480000D03*
X87000000Y-73700000D03*
D13*
X100100000Y-73700000D03*
D14*
X89200000Y-71500000D03*
D12*
X97000000Y-73700000D03*
X92000000Y-71500000D03*
D13*
X98900000Y-79940000D03*
D12*
X89460000Y-82480000D03*
D15*
X92000000Y-77400000D03*
D16*
X97500000Y-77400000D03*
X86500000Y-77400000D03*
D17*
X86920000Y-77400000D03*
X97080000Y-77400000D03*
D12*
X95810000Y-79940000D03*
D13*
X86400000Y-82480000D03*
D12*
X107190000Y-79940000D03*
X113540000Y-82480000D03*
X106000000Y-73700000D03*
D13*
X119100000Y-73700000D03*
D14*
X108200000Y-71500000D03*
D12*
X116000000Y-73700000D03*
X111000000Y-71500000D03*
D13*
X117900000Y-79940000D03*
D12*
X108460000Y-82480000D03*
D15*
X111000000Y-77400000D03*
D16*
X116500000Y-77400000D03*
X105500000Y-77400000D03*
D17*
X105920000Y-77400000D03*
X116080000Y-77400000D03*
D12*
X114810000Y-79940000D03*
D13*
X105400000Y-82480000D03*
D12*
X126190000Y-69140000D03*
X132540000Y-71680000D03*
X125000000Y-62900000D03*
D13*
X138100000Y-62900000D03*
D14*
X127200000Y-60700000D03*
D12*
X135000000Y-62900000D03*
X130000000Y-60700000D03*
D13*
X136900000Y-69140000D03*
D12*
X127460000Y-71680000D03*
D15*
X130000000Y-66600000D03*
D16*
X135500000Y-66600000D03*
X124500000Y-66600000D03*
D17*
X124920000Y-66600000D03*
X135080000Y-66600000D03*
D12*
X133810000Y-69140000D03*
D13*
X124400000Y-71680000D03*
D12*
X145190000Y-63740000D03*
X151540000Y-66280000D03*
X144000000Y-57500000D03*
D13*
X157100000Y-57500000D03*
D14*
X146200000Y-55300000D03*
D12*
X154000000Y-57500000D03*
X149000000Y-55300000D03*
D13*
X155900000Y-63740000D03*
D12*
X146460000Y-66280000D03*
D15*
X149000000Y-61200000D03*
D16*
X154500000Y-61200000D03*
X143500000Y-61200000D03*
D17*
X143920000Y-61200000D03*
X154080000Y-61200000D03*
D12*
X152810000Y-63740000D03*
D13*
X143400000Y-66280000D03*
D12*
X164190000Y-69140000D03*
X170540000Y-71680000D03*
X163000000Y-62900000D03*
D13*
X176100000Y-62900000D03*
D14*
X165200000Y-60700000D03*
D12*
X173000000Y-62900000D03*
X168000000Y-60700000D03*
D13*
X174900000Y-69140000D03*
D12*
X165460000Y-71680000D03*
D15*
X168000000Y-66600000D03*
D16*
X173500000Y-66600000D03*
X162500000Y-66600000D03*
D17*
X162920000Y-66600000D03*
X173080000Y-66600000D03*
D12*
X171810000Y-69140000D03*
D13*
X162400000Y-71680000D03*
D12*
X183190000Y-74540000D03*
X189540000Y-77080000D03*
X182000000Y-68300000D03*
D13*
X195100000Y-68300000D03*
D14*
X184200000Y-66100000D03*
D12*
X192000000Y-68300000D03*
X187000000Y-66100000D03*
D13*
X193900000Y-74540000D03*
D12*
X184460000Y-77080000D03*
D15*
X187000000Y-72000000D03*
D16*
X192500000Y-72000000D03*
X181500000Y-72000000D03*
D17*
X181920000Y-72000000D03*
X192080000Y-72000000D03*
D12*
X190810000Y-74540000D03*
D13*
X181400000Y-77080000D03*
D12*
X88190000Y-98940000D03*
X94540000Y-101480000D03*
X87000000Y-92700000D03*
D13*
X100100000Y-92700000D03*
D14*
X89200000Y-90500000D03*
D12*
X97000000Y-92700000D03*
X92000000Y-90500000D03*
D13*
X98900000Y-98940000D03*
D12*
X89460000Y-101480000D03*
D15*
X92000000Y-96400000D03*
D16*
X97500000Y-96400000D03*
X86500000Y-96400000D03*
D17*
X86920000Y-96400000D03*
X97080000Y-96400000D03*
D12*
X95810000Y-98940000D03*
D13*
X86400000Y-101480000D03*
D12*
X107190000Y-98940000D03*
X113540000Y-101480000D03*
X106000000Y-92700000D03*
D13*
X119100000Y-92700000D03*
D14*
X108200000Y-90500000D03*
D12*
X116000000Y-92700000D03*
X111000000Y-90500000D03*
D13*
X117900000Y-98940000D03*
D12*
X108460000Y-101480000D03*
D15*
X111000000Y-96400000D03*
D16*
X116500000Y-96400000D03*
X105500000Y-96400000D03*
D17*
X105920000Y-96400000D03*
X116080000Y-96400000D03*
D12*
X114810000Y-98940000D03*
D13*
X105400000Y-101480000D03*
D12*
X145190000Y-82740000D03*
X151540000Y-85280000D03*
X144000000Y-76500000D03*
D13*
X157100000Y-76500000D03*
D14*
X146200000Y-74300000D03*
D12*
X154000000Y-76500000D03*
X149000000Y-74300000D03*
D13*
X155900000Y-82740000D03*
D12*
X146460000Y-85280000D03*
D15*
X149000000Y-80200000D03*
D16*
X154500000Y-80200000D03*
X143500000Y-80200000D03*
D17*
X143920000Y-80200000D03*
X154080000Y-80200000D03*
D12*
X152810000Y-82740000D03*
D13*
X143400000Y-85280000D03*
D12*
X164190000Y-88140000D03*
X170540000Y-90680000D03*
X163000000Y-81900000D03*
D13*
X176100000Y-81900000D03*
D14*
X165200000Y-79700000D03*
D12*
X173000000Y-81900000D03*
X168000000Y-79700000D03*
D13*
X174900000Y-88140000D03*
D12*
X165460000Y-90680000D03*
D15*
X168000000Y-85600000D03*
D16*
X173500000Y-85600000D03*
X162500000Y-85600000D03*
D17*
X162920000Y-85600000D03*
X173080000Y-85600000D03*
D12*
X171810000Y-88140000D03*
D13*
X162400000Y-90680000D03*
D12*
X183190000Y-93540000D03*
X189540000Y-96080000D03*
X182000000Y-87300000D03*
D13*
X195100000Y-87300000D03*
D14*
X184200000Y-85100000D03*
D12*
X192000000Y-87300000D03*
X187000000Y-85100000D03*
D13*
X193900000Y-93540000D03*
D12*
X184460000Y-96080000D03*
D15*
X187000000Y-91000000D03*
D16*
X192500000Y-91000000D03*
X181500000Y-91000000D03*
D17*
X181920000Y-91000000D03*
X192080000Y-91000000D03*
D12*
X190810000Y-93540000D03*
D13*
X181400000Y-96080000D03*
D12*
X145190000Y-101740000D03*
X151540000Y-104280000D03*
X144000000Y-95500000D03*
D13*
X157100000Y-95500000D03*
D14*
X146200000Y-93300000D03*
D12*
X154000000Y-95500000D03*
X149000000Y-93300000D03*
D13*
X155900000Y-101740000D03*
D12*
X146460000Y-104280000D03*
D15*
X149000000Y-99200000D03*
D16*
X154500000Y-99200000D03*
X143500000Y-99200000D03*
D17*
X143920000Y-99200000D03*
X154080000Y-99200000D03*
D12*
X152810000Y-101740000D03*
D13*
X143400000Y-104280000D03*
D12*
X164190000Y-107140000D03*
X170540000Y-109680000D03*
X163000000Y-100900000D03*
D13*
X176100000Y-100900000D03*
D14*
X165200000Y-98700000D03*
D12*
X173000000Y-100900000D03*
X168000000Y-98700000D03*
D13*
X174900000Y-107140000D03*
D12*
X165460000Y-109680000D03*
D15*
X168000000Y-104600000D03*
D16*
X173500000Y-104600000D03*
X162500000Y-104600000D03*
D17*
X162920000Y-104600000D03*
X173080000Y-104600000D03*
D12*
X171810000Y-107140000D03*
D13*
X162400000Y-109680000D03*
D12*
X183190000Y-112540000D03*
X189540000Y-115080000D03*
X182000000Y-106300000D03*
D13*
X195100000Y-106300000D03*
D14*
X184200000Y-104100000D03*
D12*
X192000000Y-106300000D03*
X187000000Y-104100000D03*
D13*
X193900000Y-112540000D03*
D12*
X184460000Y-115080000D03*
D15*
X187000000Y-110000000D03*
D16*
X192500000Y-110000000D03*
X181500000Y-110000000D03*
D17*
X181920000Y-110000000D03*
X192080000Y-110000000D03*
D12*
X190810000Y-112540000D03*
D13*
X181400000Y-115080000D03*
D12*
X202190000Y-112540000D03*
X208540000Y-115080000D03*
X201000000Y-106300000D03*
D13*
X214100000Y-106300000D03*
D14*
X203200000Y-104100000D03*
D12*
X211000000Y-106300000D03*
X206000000Y-104100000D03*
D13*
X212900000Y-112540000D03*
D12*
X203460000Y-115080000D03*
D15*
X206000000Y-110000000D03*
D16*
X211500000Y-110000000D03*
X200500000Y-110000000D03*
D17*
X200920000Y-110000000D03*
X211080000Y-110000000D03*
D12*
X209810000Y-112540000D03*
D13*
X200400000Y-115080000D03*
D12*
X145190000Y-120740000D03*
X151540000Y-123280000D03*
X144000000Y-114500000D03*
D13*
X157100000Y-114500000D03*
D14*
X146200000Y-112300000D03*
D12*
X154000000Y-114500000D03*
X149000000Y-112300000D03*
D13*
X155900000Y-120740000D03*
D12*
X146460000Y-123280000D03*
D15*
X149000000Y-118200000D03*
D16*
X154500000Y-118200000D03*
X143500000Y-118200000D03*
D17*
X143920000Y-118200000D03*
X154080000Y-118200000D03*
D12*
X152810000Y-120740000D03*
D13*
X143400000Y-123280000D03*
D20*
X208650000Y-96070000D03*
D19*
X208650000Y-98610000D03*
X206110000Y-96070000D03*
X206110000Y-98610000D03*
X203570000Y-96070000D03*
X203570000Y-98610000D03*
D22*
X213730000Y-47810000D03*
X213730000Y-50350000D03*
X213730000Y-52890000D03*
X213730000Y-55430000D03*
X213730000Y-57970000D03*
X213730000Y-60510000D03*
X213730000Y-63050000D03*
X213730000Y-65590000D03*
X213730000Y-68130000D03*
X213730000Y-70670000D03*
X213730000Y-73210000D03*
X213730000Y-75750000D03*
X198490000Y-75750000D03*
X198490000Y-73210000D03*
X198490000Y-70670000D03*
X198490000Y-68130000D03*
X198490000Y-65590000D03*
X198490000Y-63050000D03*
X198490000Y-60510000D03*
X198490000Y-57970000D03*
X198490000Y-55430000D03*
X198490000Y-52890000D03*
X198490000Y-50350000D03*
X198490000Y-47810000D03*
D19*
X199760000Y-85910000D03*
X199760000Y-90990000D03*
X197220000Y-85910000D03*
X197220000Y-90990000D03*
X209285000Y-80830000D03*
X206745000Y-80830000D03*
X204205000Y-80830000D03*
X201665000Y-80830000D03*
D23*
X209285000Y-77154620D03*
X209285000Y-78155380D03*
X206745000Y-77154620D03*
X206745000Y-78155380D03*
X204205000Y-77154620D03*
X204205000Y-78155380D03*
X201665000Y-77154620D03*
X201665000Y-78155380D03*
D19*
X199760000Y-83370000D03*
X201665000Y-83370000D03*
D22*
X197220000Y-49080000D03*
X197220000Y-51620000D03*
X197220000Y-54160000D03*
X197220000Y-56700000D03*
X197220000Y-59240000D03*
X197220000Y-61780000D03*
X197220000Y-64320000D03*
X197220000Y-66860000D03*
X197220000Y-69400000D03*
X197220000Y-71940000D03*
X197220000Y-74480000D03*
X197220000Y-77020000D03*
X212460000Y-77020000D03*
X212460000Y-74480000D03*
X212460000Y-71940000D03*
X212460000Y-69400000D03*
X212460000Y-66860000D03*
X212460000Y-64320000D03*
X212460000Y-61780000D03*
X212460000Y-59240000D03*
X212460000Y-56700000D03*
X212460000Y-54160000D03*
X212460000Y-51620000D03*
X212460000Y-49080000D03*
D24*
X207150000Y-92400000D03*
X213650000Y-92400000D03*
D25*
X206500000Y-85430000D03*
X213500000Y-85430000D03*
D26*
X204700000Y-83330000D03*
X203200000Y-87530000D03*
X211700000Y-83330000D03*
X208700000Y-83330000D03*
D25*
X213500000Y-87180000D03*
X206500000Y-87180000D03*
D26*
X211700000Y-89280000D03*
X208700000Y-89280000D03*
X204700000Y-89280000D03*
X203200000Y-85080000D03*
D27*
X195125000Y-85125000D03*
X195125000Y-82585000D03*
X195125000Y-80045000D03*
M02*
