M48
; DRILL file {KiCad 5.1.4} date 2019年09月14日 16時37分02秒
; FORMAT={-:-/ absolute / inch / decimal}
; #@! TF.CreationDate,2019-09-14T16:37:02+09:00
; #@! TF.GenerationSoftware,Kicad,Pcbnew,5.1.4
; #@! TF.FileFunction,NonPlated,1,2,NPTH
FMAT,2
INCH
T1C0.0472
T2C0.0669
T3C0.0748
T4C0.0866
T5C0.1181
T6C0.1378
T7C0.1575
T8C0.1614
%
G90
G05
T1
X8.1299Y-3.3634
X8.1299Y-3.4323
X8.4055Y-3.3634
X8.4055Y-3.4323
T2
X5.6661Y-4.6535
X6.0661Y-4.6535
X7.9102Y-4.3307
X8.3102Y-4.3307
X4.1701Y-2.2992
X4.5701Y-2.2992
X6.4142Y-3.3701
X6.8142Y-3.3701
X7.1622Y-2.8346
X7.5622Y-2.8346
X6.4142Y-2.622
X6.8142Y-2.622
X7.1622Y-3.5827
X7.5622Y-3.5827
X7.1622Y-4.3307
X7.5622Y-4.3307
X4.9181Y-1.874
X5.3181Y-1.874
X5.6661Y-3.9055
X6.0661Y-3.9055
X4.1701Y-3.0472
X4.5701Y-3.0472
X6.4142Y-4.1181
X6.8142Y-4.1181
X4.9181Y-3.3701
X5.3181Y-3.3701
X3.422Y-3.0472
X3.822Y-3.0472
X7.1622Y-5.0787
X7.5622Y-5.0787
X3.422Y-3.7953
X3.822Y-3.7953
X7.1622Y-2.0866
X7.5622Y-2.0866
X6.4142Y-1.874
X6.8142Y-1.874
X4.9181Y-2.622
X5.3181Y-2.622
X6.4142Y-4.8661
X6.8142Y-4.8661
X4.1701Y-3.7953
X4.5701Y-3.7953
X5.6661Y-3.1575
X6.0661Y-3.1575
X5.6661Y-1.6614
X6.0661Y-1.6614
X5.6661Y-2.4094
X6.0661Y-2.4094
X3.422Y-2.2992
X3.822Y-2.2992
X7.9102Y-5.0787
X8.3102Y-5.0787
T3
X4.9016Y-2.622
X5.3346Y-2.622
X6.3976Y-4.8661
X6.8307Y-4.8661
X4.1535Y-3.7953
X4.5866Y-3.7953
X5.6496Y-3.1575
X6.0827Y-3.1575
X5.6496Y-1.6614
X6.0827Y-1.6614
X5.6496Y-2.4094
X6.0827Y-2.4094
X3.4055Y-2.2992
X3.8386Y-2.2992
X7.8937Y-5.0787
X8.3268Y-5.0787
X5.6496Y-4.6535
X6.0827Y-4.6535
X7.8937Y-4.3307
X8.3268Y-4.3307
X4.1535Y-2.2992
X4.5866Y-2.2992
X6.3976Y-3.3701
X6.8307Y-3.3701
X7.1457Y-2.8346
X7.5787Y-2.8346
X6.3976Y-2.622
X6.8307Y-2.622
X7.1457Y-3.5827
X7.5787Y-3.5827
X7.1457Y-4.3307
X7.5787Y-4.3307
X4.9016Y-1.874
X5.3346Y-1.874
X4.9181Y-4.1181
X5.3181Y-4.1181
X5.6496Y-3.9055
X6.0827Y-3.9055
X4.1535Y-3.0472
X4.5866Y-3.0472
X6.3976Y-4.1181
X6.8307Y-4.1181
X4.9016Y-3.3701
X5.3346Y-3.3701
X3.4055Y-3.0472
X3.8386Y-3.0472
X7.1457Y-5.0787
X7.5787Y-5.0787
X3.4055Y-3.7953
X3.8386Y-3.7953
X7.1457Y-2.0866
X7.5787Y-2.0866
X6.3976Y-1.874
X6.8307Y-1.874
T4
X7.815Y-3.878
X8.4055Y-3.878
T5
X6.4173Y-2.4764
X6.4642Y-2.722
X6.5142Y-2.822
X6.6142Y-2.3898
X6.7142Y-2.822
X6.7642Y-2.722
X6.811Y-2.4764
X7.1654Y-3.437
X7.2122Y-3.6827
X7.2622Y-3.7827
X7.3622Y-3.3504
X7.4622Y-3.7827
X7.5122Y-3.6827
X7.5591Y-3.437
X7.1654Y-4.185
X7.2122Y-4.4307
X7.2622Y-4.5307
X7.3622Y-4.0984
X7.4622Y-4.5307
X7.5122Y-4.4307
X7.5591Y-4.185
X4.9213Y-1.7283
X4.9681Y-1.974
X5.0181Y-2.074
X5.1181Y-1.6417
X5.2181Y-2.074
X5.2681Y-1.974
X5.315Y-1.7283
X4.9681Y-4.2181
X5.0181Y-4.3181
X5.2181Y-4.3181
X5.2681Y-4.2181
X5.6693Y-3.7598
X5.7161Y-4.0055
X5.7661Y-4.1055
X5.8661Y-3.6732
X5.9661Y-4.1055
X6.0161Y-4.0055
X6.063Y-3.7598
X4.1732Y-2.9016
X4.2201Y-3.1472
X4.2701Y-3.2472
X4.3701Y-2.815
X4.4701Y-3.2472
X4.5201Y-3.1472
X4.5669Y-2.9016
X6.4173Y-3.9724
X6.4642Y-4.2181
X6.5142Y-4.3181
X6.6142Y-3.8858
X6.7142Y-4.3181
X6.7642Y-4.2181
X6.811Y-3.9724
X4.9213Y-3.2244
X4.9681Y-3.4701
X5.0181Y-3.5701
X5.1181Y-3.1378
X5.2181Y-3.5701
X5.2681Y-3.4701
X5.315Y-3.2244
X3.4252Y-2.9016
X3.472Y-3.1472
X3.522Y-3.2472
X3.622Y-2.815
X3.722Y-3.2472
X3.772Y-3.1472
X3.8189Y-2.9016
X7.1654Y-4.9331
X7.2122Y-5.1787
X7.2622Y-5.2787
X7.3622Y-4.8465
X7.4622Y-5.2787
X7.5122Y-5.1787
X7.5591Y-4.9331
X3.4252Y-3.6496
X3.472Y-3.8953
X3.522Y-3.9953
X3.622Y-3.563
X3.722Y-3.9953
X3.772Y-3.8953
X3.8189Y-3.6496
X7.1654Y-1.9409
X7.2122Y-2.1866
X7.2622Y-2.2866
X7.3622Y-1.8543
X7.4622Y-2.2866
X7.5122Y-2.1866
X7.5591Y-1.9409
X6.4173Y-1.7283
X6.4642Y-1.974
X6.5142Y-2.074
X6.6142Y-1.6417
X6.7142Y-2.074
X6.7642Y-1.974
X6.811Y-1.7283
X4.9213Y-2.4764
X4.9681Y-2.722
X5.0181Y-2.822
X5.1181Y-2.3898
X5.2181Y-2.822
X5.2681Y-2.722
X5.315Y-2.4764
X6.4173Y-4.7205
X6.4642Y-4.9661
X6.5142Y-5.0661
X6.6142Y-4.6339
X6.7142Y-5.0661
X6.7642Y-4.9661
X6.811Y-4.7205
X4.1732Y-3.6496
X4.2201Y-3.8953
X4.2701Y-3.9953
X4.3701Y-3.563
X4.4701Y-3.9953
X4.5201Y-3.8953
X4.5669Y-3.6496
X5.6693Y-3.0118
X5.7161Y-3.2575
X5.7661Y-3.3575
X5.8661Y-2.9252
X5.9661Y-3.3575
X6.0161Y-3.2575
X6.063Y-3.0118
X5.6693Y-1.5158
X5.7161Y-1.7614
X5.7661Y-1.8614
X5.8661Y-1.4292
X5.9661Y-1.8614
X6.0161Y-1.7614
X6.063Y-1.5158
X5.6693Y-2.2638
X5.7161Y-2.5094
X5.7661Y-2.6094
X5.8661Y-2.1772
X5.9661Y-2.6094
X6.0161Y-2.5094
X6.063Y-2.2638
X3.4252Y-2.1535
X3.472Y-2.3992
X3.522Y-2.4992
X3.622Y-2.0669
X3.722Y-2.4992
X3.772Y-2.3992
X3.8189Y-2.1535
X7.9134Y-4.9331
X7.9602Y-5.1787
X8.0102Y-5.2787
X8.1102Y-4.8465
X8.2102Y-5.2787
X8.2602Y-5.1787
X8.3071Y-4.9331
X5.6693Y-4.5079
X5.7161Y-4.7535
X5.7661Y-4.8535
X5.8661Y-4.4213
X5.9661Y-4.8535
X6.0161Y-4.7535
X6.063Y-4.5079
X7.9134Y-4.185
X7.9602Y-4.4307
X8.0102Y-4.5307
X8.1102Y-4.0984
X8.2102Y-4.5307
X8.2602Y-4.4307
X8.3071Y-4.185
X4.1732Y-2.1535
X4.2201Y-2.3992
X4.2701Y-2.4992
X4.3701Y-2.0669
X4.4701Y-2.4992
X4.5201Y-2.3992
X4.5669Y-2.1535
X6.4173Y-3.2244
X6.4642Y-3.4701
X6.5142Y-3.5701
X6.6142Y-3.1378
X6.7142Y-3.5701
X6.7642Y-3.4701
X6.811Y-3.2244
X7.1654Y-2.689
X7.2122Y-2.9346
X7.2622Y-3.0346
X7.3622Y-2.6024
X7.4622Y-3.0346
X7.5122Y-2.9346
X7.5591Y-2.689
T6
X5.502Y-2.1209
X5.501Y-3.5874
X6.9803Y-2.333
X6.9803Y-3.8295
X7.7362Y-4.7087
X3.998Y-3.4211
X3.997Y-2.673
T7
X6.6142Y-1.874
X5.1181Y-2.622
X6.6142Y-4.8661
X4.3701Y-3.7953
X5.8661Y-3.1575
X5.8661Y-1.6614
X5.8661Y-2.4094
X3.622Y-2.2992
X8.1102Y-5.0787
X5.8661Y-4.6535
X8.1102Y-4.3307
X4.3701Y-2.2992
X6.6142Y-3.3701
X7.3622Y-2.8346
X6.6142Y-2.622
X7.3622Y-3.5827
X7.3622Y-4.3307
X5.1181Y-1.874
X5.8661Y-3.9055
X4.3701Y-3.0472
X6.6142Y-4.1181
X5.1181Y-3.3701
X3.622Y-3.0472
X7.3622Y-5.0787
X3.622Y-3.7953
X7.3622Y-2.0866
T8
X5.1181Y-4.1181
T0
M30
