G04 #@! TF.GenerationSoftware,KiCad,Pcbnew,5.1.2*
G04 #@! TF.CreationDate,2019-08-11T12:44:57+09:00*
G04 #@! TF.ProjectId,xenon-e_plate,78656e6f-6e2d-4655-9f70-6c6174652e6b,rev?*
G04 #@! TF.SameCoordinates,Original*
G04 #@! TF.FileFunction,Soldermask,Bot*
G04 #@! TF.FilePolarity,Negative*
%FSLAX46Y46*%
G04 Gerber Fmt 4.6, Leading zero omitted, Abs format (unit mm)*
G04 Created by KiCad (PCBNEW 5.1.2) date 2019-08-11 12:44:57*
%MOMM*%
%LPD*%
G04 APERTURE LIST*
%ADD10C,0.100000*%
G04 APERTURE END LIST*
D10*
G36*
X97910050Y-135593232D02*
G01*
X98035734Y-135618232D01*
X98245203Y-135704997D01*
X98433720Y-135830960D01*
X98594040Y-135991280D01*
X98720003Y-136179797D01*
X98796413Y-136364266D01*
X98806768Y-136389267D01*
X98851000Y-136611635D01*
X98851000Y-136838365D01*
X98838541Y-136901000D01*
X98806768Y-137060734D01*
X98720003Y-137270203D01*
X98594040Y-137458720D01*
X98433720Y-137619040D01*
X98245203Y-137745003D01*
X98035734Y-137831768D01*
X97939048Y-137851000D01*
X97813365Y-137876000D01*
X97586635Y-137876000D01*
X97460952Y-137851000D01*
X97364266Y-137831768D01*
X97154797Y-137745003D01*
X96966280Y-137619040D01*
X96805960Y-137458720D01*
X96679997Y-137270203D01*
X96593232Y-137060734D01*
X96561459Y-136901000D01*
X96549000Y-136838365D01*
X96549000Y-136611635D01*
X96593232Y-136389267D01*
X96603588Y-136364266D01*
X96679997Y-136179797D01*
X96805960Y-135991280D01*
X96966280Y-135830960D01*
X97154797Y-135704997D01*
X97364266Y-135618232D01*
X97489950Y-135593232D01*
X97586635Y-135574000D01*
X97813365Y-135574000D01*
X97910050Y-135593232D01*
X97910050Y-135593232D01*
G37*
G36*
X116924549Y-135571116D02*
G01*
X117035734Y-135593232D01*
X117245203Y-135679997D01*
X117433720Y-135805960D01*
X117594040Y-135966280D01*
X117720003Y-136154797D01*
X117788516Y-136320201D01*
X117806768Y-136364267D01*
X117851000Y-136586635D01*
X117851000Y-136813365D01*
X117837394Y-136881768D01*
X117806768Y-137035734D01*
X117720003Y-137245203D01*
X117594040Y-137433720D01*
X117433720Y-137594040D01*
X117245203Y-137720003D01*
X117035734Y-137806768D01*
X116924549Y-137828884D01*
X116813365Y-137851000D01*
X116586635Y-137851000D01*
X116475451Y-137828884D01*
X116364266Y-137806768D01*
X116154797Y-137720003D01*
X115966280Y-137594040D01*
X115805960Y-137433720D01*
X115679997Y-137245203D01*
X115593232Y-137035734D01*
X115562606Y-136881768D01*
X115549000Y-136813365D01*
X115549000Y-136586635D01*
X115593232Y-136364267D01*
X115611485Y-136320201D01*
X115679997Y-136154797D01*
X115805960Y-135966280D01*
X115966280Y-135805960D01*
X116154797Y-135679997D01*
X116364266Y-135593232D01*
X116475451Y-135571116D01*
X116586635Y-135549000D01*
X116813365Y-135549000D01*
X116924549Y-135571116D01*
X116924549Y-135571116D01*
G37*
G36*
X207210050Y-134643232D02*
G01*
X207335734Y-134668232D01*
X207545203Y-134754997D01*
X207733720Y-134880960D01*
X207894040Y-135041280D01*
X208020003Y-135229797D01*
X208096413Y-135414266D01*
X208106768Y-135439267D01*
X208142367Y-135618232D01*
X208151000Y-135661636D01*
X208151000Y-135888364D01*
X208106768Y-136110734D01*
X208020003Y-136320203D01*
X207894040Y-136508720D01*
X207733720Y-136669040D01*
X207545203Y-136795003D01*
X207335734Y-136881768D01*
X207239048Y-136901000D01*
X207113365Y-136926000D01*
X206886635Y-136926000D01*
X206760952Y-136901000D01*
X206664266Y-136881768D01*
X206454797Y-136795003D01*
X206266280Y-136669040D01*
X206105960Y-136508720D01*
X205979997Y-136320203D01*
X205893232Y-136110734D01*
X205849000Y-135888364D01*
X205849000Y-135661636D01*
X205857634Y-135618232D01*
X205893232Y-135439267D01*
X205903588Y-135414266D01*
X205979997Y-135229797D01*
X206105960Y-135041280D01*
X206266280Y-134880960D01*
X206454797Y-134754997D01*
X206664266Y-134668232D01*
X206789950Y-134643232D01*
X206886635Y-134624000D01*
X207113365Y-134624000D01*
X207210050Y-134643232D01*
X207210050Y-134643232D01*
G37*
G36*
X226199549Y-134621116D02*
G01*
X226310734Y-134643232D01*
X226520203Y-134729997D01*
X226708720Y-134855960D01*
X226869040Y-135016280D01*
X226885744Y-135041280D01*
X226995004Y-135204799D01*
X227081768Y-135414267D01*
X227117367Y-135593232D01*
X227126000Y-135636636D01*
X227126000Y-135863364D01*
X227081768Y-136085734D01*
X226995003Y-136295203D01*
X226869040Y-136483720D01*
X226708720Y-136644040D01*
X226520203Y-136770003D01*
X226310734Y-136856768D01*
X226199549Y-136878884D01*
X226088365Y-136901000D01*
X225861635Y-136901000D01*
X225750451Y-136878884D01*
X225639266Y-136856768D01*
X225429797Y-136770003D01*
X225241280Y-136644040D01*
X225080960Y-136483720D01*
X224954997Y-136295203D01*
X224868232Y-136085734D01*
X224824000Y-135863364D01*
X224824000Y-135636636D01*
X224832634Y-135593232D01*
X224868232Y-135414267D01*
X224954996Y-135204799D01*
X225064256Y-135041280D01*
X225080960Y-135016280D01*
X225241280Y-134855960D01*
X225429797Y-134729997D01*
X225639266Y-134643232D01*
X225750451Y-134621116D01*
X225861635Y-134599000D01*
X226088365Y-134599000D01*
X226199549Y-134621116D01*
X226199549Y-134621116D01*
G37*
G36*
X121149549Y-97396116D02*
G01*
X121260734Y-97418232D01*
X121470203Y-97504997D01*
X121658720Y-97630960D01*
X121819040Y-97791280D01*
X121945003Y-97979797D01*
X122011058Y-98139267D01*
X122031768Y-98189267D01*
X122076000Y-98411635D01*
X122076000Y-98638365D01*
X122063541Y-98701000D01*
X122031768Y-98860734D01*
X121945003Y-99070203D01*
X121819040Y-99258720D01*
X121658720Y-99419040D01*
X121470203Y-99545003D01*
X121260734Y-99631768D01*
X121149549Y-99653884D01*
X121038365Y-99676000D01*
X120811635Y-99676000D01*
X120700451Y-99653884D01*
X120589266Y-99631768D01*
X120379797Y-99545003D01*
X120191280Y-99419040D01*
X120030960Y-99258720D01*
X119904997Y-99070203D01*
X119818232Y-98860734D01*
X119786459Y-98701000D01*
X119774000Y-98638365D01*
X119774000Y-98411635D01*
X119818232Y-98189267D01*
X119838943Y-98139267D01*
X119904997Y-97979797D01*
X120030960Y-97791280D01*
X120191280Y-97630960D01*
X120379797Y-97504997D01*
X120589266Y-97418232D01*
X120700451Y-97396116D01*
X120811635Y-97374000D01*
X121038365Y-97374000D01*
X121149549Y-97396116D01*
X121149549Y-97396116D01*
G37*
G36*
X83874549Y-97346116D02*
G01*
X83985734Y-97368232D01*
X84195203Y-97454997D01*
X84383720Y-97580960D01*
X84544040Y-97741280D01*
X84670003Y-97929797D01*
X84756768Y-98139266D01*
X84766714Y-98189267D01*
X84801000Y-98361635D01*
X84801000Y-98588365D01*
X84791054Y-98638365D01*
X84756768Y-98810734D01*
X84670003Y-99020203D01*
X84544040Y-99208720D01*
X84383720Y-99369040D01*
X84195203Y-99495003D01*
X83985734Y-99581768D01*
X83874549Y-99603884D01*
X83763365Y-99626000D01*
X83536635Y-99626000D01*
X83425451Y-99603884D01*
X83314266Y-99581768D01*
X83104797Y-99495003D01*
X82916280Y-99369040D01*
X82755960Y-99208720D01*
X82629997Y-99020203D01*
X82543232Y-98810734D01*
X82508946Y-98638365D01*
X82499000Y-98588365D01*
X82499000Y-98361635D01*
X82533286Y-98189267D01*
X82543232Y-98139266D01*
X82629997Y-97929797D01*
X82755960Y-97741280D01*
X82916280Y-97580960D01*
X83104797Y-97454997D01*
X83314266Y-97368232D01*
X83425451Y-97346116D01*
X83536635Y-97324000D01*
X83763365Y-97324000D01*
X83874549Y-97346116D01*
X83874549Y-97346116D01*
G37*
G36*
X230435050Y-96443232D02*
G01*
X230560734Y-96468232D01*
X230770203Y-96554997D01*
X230958720Y-96680960D01*
X231119040Y-96841280D01*
X231245003Y-97029797D01*
X231321413Y-97214266D01*
X231331768Y-97239267D01*
X231374680Y-97454997D01*
X231376000Y-97461636D01*
X231376000Y-97688364D01*
X231331768Y-97910734D01*
X231245003Y-98120203D01*
X231119040Y-98308720D01*
X230958720Y-98469040D01*
X230770203Y-98595003D01*
X230560734Y-98681768D01*
X230464048Y-98701000D01*
X230338365Y-98726000D01*
X230111635Y-98726000D01*
X229985952Y-98701000D01*
X229889266Y-98681768D01*
X229679797Y-98595003D01*
X229491280Y-98469040D01*
X229330960Y-98308720D01*
X229204997Y-98120203D01*
X229118232Y-97910734D01*
X229074000Y-97688364D01*
X229074000Y-97461636D01*
X229075321Y-97454997D01*
X229118232Y-97239267D01*
X229128588Y-97214266D01*
X229204997Y-97029797D01*
X229330960Y-96841280D01*
X229491280Y-96680960D01*
X229679797Y-96554997D01*
X229889266Y-96468232D01*
X230014950Y-96443232D01*
X230111635Y-96424000D01*
X230338365Y-96424000D01*
X230435050Y-96443232D01*
X230435050Y-96443232D01*
G37*
G36*
X193174549Y-96421116D02*
G01*
X193285734Y-96443232D01*
X193495203Y-96529997D01*
X193683720Y-96655960D01*
X193844040Y-96816280D01*
X193970003Y-97004797D01*
X194056768Y-97214266D01*
X194101000Y-97436636D01*
X194101000Y-97663364D01*
X194056768Y-97885734D01*
X193970003Y-98095203D01*
X193844040Y-98283720D01*
X193683720Y-98444040D01*
X193495203Y-98570003D01*
X193285734Y-98656768D01*
X193174549Y-98678884D01*
X193063365Y-98701000D01*
X192836635Y-98701000D01*
X192725451Y-98678884D01*
X192614266Y-98656768D01*
X192404797Y-98570003D01*
X192216280Y-98444040D01*
X192055960Y-98283720D01*
X191929997Y-98095203D01*
X191843232Y-97885734D01*
X191799000Y-97663364D01*
X191799000Y-97436636D01*
X191843232Y-97214266D01*
X191929997Y-97004797D01*
X192055960Y-96816280D01*
X192216280Y-96655960D01*
X192404797Y-96529997D01*
X192614266Y-96443232D01*
X192725451Y-96421116D01*
X192836635Y-96399000D01*
X193063365Y-96399000D01*
X193174549Y-96421116D01*
X193174549Y-96421116D01*
G37*
G36*
X127349549Y-59821116D02*
G01*
X127460734Y-59843232D01*
X127670203Y-59929997D01*
X127858720Y-60055960D01*
X128019040Y-60216280D01*
X128145003Y-60404797D01*
X128231768Y-60614266D01*
X128276000Y-60836636D01*
X128276000Y-61063364D01*
X128231768Y-61285734D01*
X128145003Y-61495203D01*
X128019040Y-61683720D01*
X127858720Y-61844040D01*
X127670203Y-61970003D01*
X127460734Y-62056768D01*
X127349549Y-62078884D01*
X127238365Y-62101000D01*
X127011635Y-62101000D01*
X126900451Y-62078884D01*
X126789266Y-62056768D01*
X126579797Y-61970003D01*
X126391280Y-61844040D01*
X126230960Y-61683720D01*
X126104997Y-61495203D01*
X126018232Y-61285734D01*
X125974000Y-61063364D01*
X125974000Y-60836636D01*
X126018232Y-60614266D01*
X126104997Y-60404797D01*
X126230960Y-60216280D01*
X126391280Y-60055960D01*
X126579797Y-59929997D01*
X126789266Y-59843232D01*
X126900451Y-59821116D01*
X127011635Y-59799000D01*
X127238365Y-59799000D01*
X127349549Y-59821116D01*
X127349549Y-59821116D01*
G37*
G36*
X89324549Y-59646116D02*
G01*
X89435734Y-59668232D01*
X89645203Y-59754997D01*
X89833720Y-59880960D01*
X89994040Y-60041280D01*
X90120003Y-60229797D01*
X90206768Y-60439266D01*
X90251000Y-60661636D01*
X90251000Y-60888364D01*
X90206768Y-61110734D01*
X90120003Y-61320203D01*
X89994040Y-61508720D01*
X89833720Y-61669040D01*
X89645203Y-61795003D01*
X89435734Y-61881768D01*
X89324549Y-61903884D01*
X89213365Y-61926000D01*
X88986635Y-61926000D01*
X88875451Y-61903884D01*
X88764266Y-61881768D01*
X88554797Y-61795003D01*
X88366280Y-61669040D01*
X88205960Y-61508720D01*
X88079997Y-61320203D01*
X87993232Y-61110734D01*
X87949000Y-60888364D01*
X87949000Y-60661636D01*
X87993232Y-60439266D01*
X88079997Y-60229797D01*
X88205960Y-60041280D01*
X88366280Y-59880960D01*
X88554797Y-59754997D01*
X88764266Y-59668232D01*
X88875451Y-59646116D01*
X88986635Y-59624000D01*
X89213365Y-59624000D01*
X89324549Y-59646116D01*
X89324549Y-59646116D01*
G37*
G36*
X236624549Y-58896116D02*
G01*
X236735734Y-58918232D01*
X236945203Y-59004997D01*
X237133720Y-59130960D01*
X237294040Y-59291280D01*
X237420003Y-59479797D01*
X237506768Y-59689266D01*
X237551000Y-59911636D01*
X237551000Y-60138364D01*
X237506768Y-60360734D01*
X237420003Y-60570203D01*
X237294040Y-60758720D01*
X237133720Y-60919040D01*
X236945203Y-61045003D01*
X236735734Y-61131768D01*
X236624549Y-61153884D01*
X236513365Y-61176000D01*
X236286635Y-61176000D01*
X236175451Y-61153884D01*
X236064266Y-61131768D01*
X235854797Y-61045003D01*
X235666280Y-60919040D01*
X235505960Y-60758720D01*
X235379997Y-60570203D01*
X235293232Y-60360734D01*
X235249000Y-60138364D01*
X235249000Y-59911636D01*
X235293232Y-59689266D01*
X235379997Y-59479797D01*
X235505960Y-59291280D01*
X235666280Y-59130960D01*
X235854797Y-59004997D01*
X236064266Y-58918232D01*
X236175451Y-58896116D01*
X236286635Y-58874000D01*
X236513365Y-58874000D01*
X236624549Y-58896116D01*
X236624549Y-58896116D01*
G37*
G36*
X198599549Y-58721116D02*
G01*
X198710734Y-58743232D01*
X198920203Y-58829997D01*
X199108720Y-58955960D01*
X199269040Y-59116280D01*
X199395003Y-59304797D01*
X199481768Y-59514266D01*
X199526000Y-59736636D01*
X199526000Y-59963364D01*
X199481768Y-60185734D01*
X199395003Y-60395203D01*
X199269040Y-60583720D01*
X199108720Y-60744040D01*
X198920203Y-60870003D01*
X198710734Y-60956768D01*
X198599549Y-60978884D01*
X198488365Y-61001000D01*
X198261635Y-61001000D01*
X198150451Y-60978884D01*
X198039266Y-60956768D01*
X197829797Y-60870003D01*
X197641280Y-60744040D01*
X197480960Y-60583720D01*
X197354997Y-60395203D01*
X197268232Y-60185734D01*
X197224000Y-59963364D01*
X197224000Y-59736636D01*
X197268232Y-59514266D01*
X197354997Y-59304797D01*
X197480960Y-59116280D01*
X197641280Y-58955960D01*
X197829797Y-58829997D01*
X198039266Y-58743232D01*
X198150451Y-58721116D01*
X198261635Y-58699000D01*
X198488365Y-58699000D01*
X198599549Y-58721116D01*
X198599549Y-58721116D01*
G37*
M02*
