G04 #@! TF.GenerationSoftware,KiCad,Pcbnew,5.1.2*
G04 #@! TF.CreationDate,2019-08-11T12:44:57+09:00*
G04 #@! TF.ProjectId,xenon-e_plate,78656e6f-6e2d-4655-9f70-6c6174652e6b,rev?*
G04 #@! TF.SameCoordinates,Original*
G04 #@! TF.FileFunction,Profile,NP*
%FSLAX46Y46*%
G04 Gerber Fmt 4.6, Leading zero omitted, Abs format (unit mm)*
G04 Created by KiCad (PCBNEW 5.1.2) date 2019-08-11 12:44:57*
%MOMM*%
%LPD*%
G04 APERTURE LIST*
%ADD10C,0.200000*%
G04 APERTURE END LIST*
D10*
X161864581Y-79774874D02*
X162048969Y-79758052D01*
X162048969Y-79758052D02*
X162206573Y-79715304D01*
X162206573Y-79715304D02*
X162345299Y-79652729D01*
X162345299Y-79652729D02*
X162467807Y-79573576D01*
X162467807Y-79573576D02*
X162574805Y-79480131D01*
X162574805Y-79480131D02*
X162668615Y-79370951D01*
X162668615Y-79370951D02*
X162747399Y-79246345D01*
X162747399Y-79246345D02*
X162808541Y-79106828D01*
X162808541Y-79106828D02*
X162849831Y-78947376D01*
X162849831Y-78947376D02*
X162864519Y-78774935D01*
X143864128Y-99197977D02*
X156364143Y-99197977D01*
X167364504Y-22275024D02*
X74682817Y-22275024D01*
X168364442Y-23775190D02*
X168364442Y-23274964D01*
X68364340Y-116775200D02*
X68381189Y-116959779D01*
X68381189Y-116959779D02*
X68423967Y-117117370D01*
X68423967Y-117117370D02*
X68487020Y-117256910D01*
X68487020Y-117256910D02*
X68566306Y-117379322D01*
X68566306Y-117379322D02*
X68660273Y-117486611D01*
X68660273Y-117486611D02*
X68769159Y-117579903D01*
X68769159Y-117579903D02*
X68894194Y-117658726D01*
X68894194Y-117658726D02*
X69033461Y-117719537D01*
X69033461Y-117719537D02*
X69193762Y-117760780D01*
X69193762Y-117760780D02*
X69364280Y-117775140D01*
X68364340Y-79774874D02*
X63864357Y-79774874D01*
X62864417Y-98198039D02*
X62881266Y-98382618D01*
X62881266Y-98382618D02*
X62924044Y-98540210D01*
X62924044Y-98540210D02*
X62987097Y-98679750D01*
X62987097Y-98679750D02*
X63066383Y-98802162D01*
X63066383Y-98802162D02*
X63160350Y-98909451D01*
X63160350Y-98909451D02*
X63269236Y-99002743D01*
X63269236Y-99002743D02*
X63394271Y-99081567D01*
X63394271Y-99081567D02*
X63533538Y-99142377D01*
X63533538Y-99142377D02*
X63693839Y-99183620D01*
X63693839Y-99183620D02*
X63864357Y-99197977D01*
X157364596Y-80774812D02*
X157364596Y-79774874D01*
X79064460Y-117775140D02*
X79064460Y-118734770D01*
X142864191Y-117775140D02*
X143048579Y-117758318D01*
X143048579Y-117758318D02*
X143206183Y-117715570D01*
X143206183Y-117715570D02*
X143344909Y-117652995D01*
X143344909Y-117652995D02*
X143467417Y-117573842D01*
X143467417Y-117573842D02*
X143574415Y-117480397D01*
X143574415Y-117480397D02*
X143668225Y-117371217D01*
X143668225Y-117371217D02*
X143747008Y-117246611D01*
X143747008Y-117246611D02*
X143808150Y-117107093D01*
X143808150Y-117107093D02*
X143849440Y-116947641D01*
X143849440Y-116947641D02*
X143864128Y-116775200D01*
X80061328Y-155982635D02*
X134865736Y-155982635D01*
X68364340Y-61774939D02*
X68364340Y-77274768D01*
X157364596Y-98198039D02*
X157364596Y-80774812D01*
X63864357Y-79774874D02*
X63679961Y-79791688D01*
X63679961Y-79791688D02*
X63522356Y-79834437D01*
X63522356Y-79834437D02*
X63383630Y-79897013D01*
X63383630Y-79897013D02*
X63261121Y-79976165D01*
X63261121Y-79976165D02*
X63149784Y-80074011D01*
X63149784Y-80074011D02*
X63057638Y-80182415D01*
X63057638Y-80182415D02*
X62980110Y-80306068D01*
X62980110Y-80306068D02*
X62919442Y-80445625D01*
X62919442Y-80445625D02*
X62878600Y-80605262D01*
X62878600Y-80605262D02*
X62864417Y-80774812D01*
X73625000Y-23287883D02*
X73625000Y-60775000D01*
X168364442Y-59775060D02*
X168364442Y-35274749D01*
X156364143Y-99197977D02*
X156548549Y-99181155D01*
X156548549Y-99181155D02*
X156706198Y-99138407D01*
X156706198Y-99138407D02*
X156844983Y-99075832D01*
X156844983Y-99075832D02*
X156967559Y-98996679D01*
X156967559Y-98996679D02*
X157074631Y-98903234D01*
X157074631Y-98903234D02*
X157168513Y-98794055D01*
X157168513Y-98794055D02*
X157246651Y-98670783D01*
X157246651Y-98670783D02*
X157308308Y-98530656D01*
X157308308Y-98530656D02*
X157349692Y-98371638D01*
X157349692Y-98371638D02*
X157364596Y-98198039D01*
X74682817Y-22275024D02*
X74499591Y-22293887D01*
X74499591Y-22293887D02*
X74446656Y-22305514D01*
X74446656Y-22305514D02*
X74286561Y-22348101D01*
X74286561Y-22348101D02*
X74148040Y-22409808D01*
X74148040Y-22409808D02*
X74025426Y-22488068D01*
X74025426Y-22488068D02*
X73916664Y-22582108D01*
X73916664Y-22582108D02*
X73823343Y-22689681D01*
X73823343Y-22689681D02*
X73744754Y-22812346D01*
X73744754Y-22812346D02*
X73682219Y-22952931D01*
X73682219Y-22952931D02*
X73640339Y-23111873D01*
X73640339Y-23111873D02*
X73625000Y-23287883D01*
X69364280Y-60775000D02*
X69179884Y-60791814D01*
X69179884Y-60791814D02*
X69022279Y-60834562D01*
X69022279Y-60834562D02*
X68883553Y-60897136D01*
X68883553Y-60897136D02*
X68761044Y-60976288D01*
X68761044Y-60976288D02*
X68649707Y-61074133D01*
X68649707Y-61074133D02*
X68557561Y-61182537D01*
X68557561Y-61182537D02*
X68480033Y-61306190D01*
X68480033Y-61306190D02*
X68419365Y-61445748D01*
X68419365Y-61445748D02*
X68378523Y-61605387D01*
X68378523Y-61605387D02*
X68364340Y-61774939D01*
X162864519Y-78774935D02*
X162864519Y-72275072D01*
X167364504Y-60775000D02*
X167548892Y-60758178D01*
X167548892Y-60758178D02*
X167706496Y-60715430D01*
X167706496Y-60715430D02*
X167845222Y-60652855D01*
X167845222Y-60652855D02*
X167967730Y-60573702D01*
X167967730Y-60573702D02*
X168074728Y-60480257D01*
X168074728Y-60480257D02*
X168168538Y-60371077D01*
X168168538Y-60371077D02*
X168247322Y-60246471D01*
X168247322Y-60246471D02*
X168308464Y-60106953D01*
X168308464Y-60106953D02*
X168349754Y-59947501D01*
X168349754Y-59947501D02*
X168364442Y-59775060D01*
X134865736Y-155982635D02*
X135050128Y-155965813D01*
X135050128Y-155965813D02*
X135207735Y-155923065D01*
X135207735Y-155923065D02*
X135346463Y-155860490D01*
X135346463Y-155860490D02*
X135468971Y-155781337D01*
X135468971Y-155781337D02*
X135575968Y-155687892D01*
X135575968Y-155687892D02*
X135669778Y-155578713D01*
X135669778Y-155578713D02*
X135748559Y-155454107D01*
X135748559Y-155454107D02*
X135809699Y-155314590D01*
X135809699Y-155314590D02*
X135850988Y-155155138D01*
X135850988Y-155155138D02*
X135865676Y-154982697D01*
X68364340Y-100274915D02*
X68364340Y-116775200D01*
X79061391Y-154982697D02*
X79078239Y-155167276D01*
X79078239Y-155167276D02*
X79121015Y-155324868D01*
X79121015Y-155324868D02*
X79184068Y-155464408D01*
X79184068Y-155464408D02*
X79263351Y-155586820D01*
X79263351Y-155586820D02*
X79357316Y-155694109D01*
X79357316Y-155694109D02*
X79466200Y-155787401D01*
X79466200Y-155787401D02*
X79591235Y-155866225D01*
X79591235Y-155866225D02*
X79730502Y-155927035D01*
X79730502Y-155927035D02*
X79890805Y-155968278D01*
X79890805Y-155968278D02*
X80061328Y-155982635D01*
X79060333Y-118775077D02*
X79060333Y-154774947D01*
X79060333Y-154774947D02*
X79061391Y-154785292D01*
X168364442Y-23274964D02*
X168347406Y-23089414D01*
X168347406Y-23089414D02*
X168304546Y-22932063D01*
X168304546Y-22932063D02*
X168240750Y-22791422D01*
X168240750Y-22791422D02*
X168161332Y-22669336D01*
X168161332Y-22669336D02*
X168067439Y-22562492D01*
X168067439Y-22562492D02*
X167958105Y-22469134D01*
X167958105Y-22469134D02*
X167833244Y-22390717D01*
X167833244Y-22390717D02*
X167689878Y-22328740D01*
X167689878Y-22328740D02*
X167527662Y-22288148D01*
X167527662Y-22288148D02*
X167364504Y-22275024D01*
X135864618Y-117775140D02*
X142864191Y-117775140D01*
X135865676Y-143773561D02*
X135864618Y-143763216D01*
X79061391Y-154785292D02*
X79061391Y-154982697D01*
X135864618Y-118775077D02*
X135864618Y-117775140D01*
X143864128Y-99775202D02*
X143864128Y-99197977D01*
X63864357Y-99197977D02*
X68364340Y-99197977D01*
X162864519Y-60775000D02*
X167364504Y-60775000D01*
X69364280Y-117775140D02*
X79064460Y-117775140D01*
X135864618Y-143763216D02*
X135864618Y-118775077D01*
X79064460Y-118734770D02*
X79060333Y-118775077D01*
X157364596Y-79774874D02*
X161864581Y-79774874D01*
X168364442Y-35274749D02*
X168364442Y-23775190D01*
X62864417Y-80774812D02*
X62864417Y-98198039D01*
X68364340Y-78774935D02*
X68364340Y-79774874D01*
X162864519Y-72275072D02*
X162864519Y-61774939D01*
X143864128Y-116775200D02*
X143864128Y-99775202D01*
X68364340Y-99197977D02*
X68364340Y-100274915D01*
X68364340Y-77274768D02*
X68364340Y-78774935D01*
X162864519Y-61774939D02*
X162864519Y-60775000D01*
X135865676Y-154982697D02*
X135865676Y-143773561D01*
X73625000Y-60775000D02*
X69364280Y-60775000D01*
X236779984Y-100294010D02*
X236779984Y-100294010D01*
X252782108Y-97247167D02*
X248380828Y-97247167D01*
X193347495Y-95215251D02*
X193347495Y-81245045D01*
X236779984Y-100294010D02*
X250750709Y-100294010D01*
X198765767Y-100295045D02*
X212736492Y-100295045D01*
X242539323Y-133314217D02*
X228568601Y-133314217D01*
X188521431Y-154360477D02*
X244570206Y-154360477D01*
X248380828Y-97247167D02*
X248377727Y-78323775D01*
X185134042Y-43315058D02*
X185134042Y-43315058D01*
X253799100Y-78280883D02*
X253775846Y-59348189D01*
X231784942Y-100295045D02*
X231784942Y-114265251D01*
X223148775Y-57283717D02*
X223148775Y-43315058D01*
X223148775Y-43315058D02*
X223148775Y-43315058D01*
X185134042Y-43315058D02*
X199188997Y-43315058D01*
X209602315Y-133314217D02*
X209602315Y-119344010D01*
X209602315Y-119344010D02*
X223573040Y-119344010D01*
X179800000Y-100295045D02*
X193770206Y-100295045D01*
X240023715Y-22437264D02*
X240023715Y-22437264D01*
X236780503Y-76250000D02*
X236780503Y-62279278D01*
X209602315Y-152279984D02*
X209602315Y-138309778D01*
X231784942Y-114265251D02*
X217814217Y-114265251D01*
X242198775Y-24265058D02*
X242198775Y-24265058D01*
X217814217Y-114265251D02*
X217814217Y-100295045D01*
X242198775Y-43315058D02*
X256169500Y-43315058D01*
X217814217Y-100295045D02*
X217814217Y-100295045D01*
X212734942Y-76250000D02*
X198764217Y-76250000D01*
X212736492Y-114265251D02*
X198765767Y-114265251D01*
X190552315Y-138309778D02*
X204523039Y-138309778D01*
X231361711Y-81245045D02*
X245332434Y-81245045D01*
X250750709Y-100294010D02*
X250750709Y-114264217D01*
X193347495Y-81245045D02*
X193347495Y-81245045D01*
X185134042Y-57283717D02*
X185134042Y-43315058D01*
X228568601Y-119344010D02*
X228568601Y-119344010D01*
X231701225Y-76250000D02*
X217730503Y-76250000D01*
X228567050Y-138309778D02*
X228567050Y-138309778D01*
X177768601Y-79298392D02*
X172296065Y-79298392D01*
X183101608Y-60248392D02*
X177768601Y-60248392D01*
X177768601Y-60248392D02*
X177768601Y-79298392D01*
X183101608Y-41282108D02*
X183101608Y-60248392D01*
X198764217Y-62279278D02*
X198764217Y-62279278D01*
X193347495Y-81245045D02*
X207318217Y-81245045D01*
X198765767Y-114265251D02*
X198765767Y-100295045D01*
X244570206Y-116297167D02*
X252782108Y-116297167D01*
X198764217Y-62279278D02*
X212734942Y-62279278D01*
X223573040Y-119344010D02*
X223573040Y-133314217D01*
X199188997Y-43315058D02*
X199188997Y-57283717D01*
X177768601Y-116297167D02*
X188521431Y-116297167D01*
X198765767Y-100295045D02*
X198765767Y-100295045D01*
X190552315Y-138309778D02*
X190552315Y-138309778D01*
X240023715Y-41282108D02*
X183101608Y-41282108D01*
X240023715Y-22437264D02*
X240023715Y-41282108D01*
X174381209Y-81329278D02*
X174381209Y-81329278D01*
X248377727Y-78323775D02*
X253799100Y-78280883D01*
X204523039Y-119344010D02*
X204523039Y-133314217D01*
X226368217Y-95215251D02*
X212397495Y-95215251D01*
X244570206Y-154360477D02*
X244570206Y-116297167D01*
X242198775Y-38319500D02*
X242198775Y-24265058D01*
X179800000Y-62279278D02*
X193770206Y-62279278D01*
X193770206Y-62279278D02*
X193770206Y-76250000D01*
X193770206Y-100295045D02*
X193770206Y-114265251D01*
X217730503Y-62279278D02*
X217730503Y-62279278D01*
X228567050Y-152279984D02*
X228567050Y-138309778D01*
X204184042Y-43315058D02*
X218154765Y-43315058D01*
X179800000Y-62279278D02*
X179800000Y-62279278D01*
X204184042Y-57283717D02*
X204184042Y-43315058D01*
X245332434Y-81245045D02*
X245332434Y-95215251D01*
X223148775Y-43315058D02*
X237119500Y-43315058D01*
X212734942Y-62279278D02*
X212734942Y-76250000D01*
X236779984Y-114264217D02*
X236779984Y-100294010D01*
X190552315Y-119344010D02*
X190552315Y-119344010D01*
X228568601Y-133314217D02*
X228568601Y-119344010D01*
X217730503Y-76250000D02*
X217730503Y-62279278D01*
X236780503Y-62279278D02*
X250751225Y-62279278D01*
X190552315Y-133314217D02*
X190552315Y-119344010D01*
X223573040Y-133314217D02*
X209602315Y-133314217D01*
X199188997Y-57283717D02*
X185134042Y-57283717D01*
X212397495Y-81245045D02*
X226368217Y-81245045D01*
X259132108Y-22437264D02*
X240023715Y-22437264D01*
X242539323Y-119344010D02*
X242539323Y-133314217D01*
X218154765Y-43315058D02*
X218154765Y-57283717D01*
X204523039Y-133314217D02*
X190552315Y-133314217D01*
X172296065Y-79298392D02*
X172296065Y-97247167D01*
X226368217Y-81245045D02*
X226368217Y-95215251D01*
X209602315Y-138309778D02*
X209602315Y-138309778D01*
X209602315Y-119344010D02*
X209602315Y-119344010D01*
X231361711Y-81245045D02*
X231361711Y-81245045D01*
X231361711Y-95215251D02*
X231361711Y-81245045D01*
X193770206Y-114265251D02*
X179800000Y-114265251D01*
X174381209Y-95300000D02*
X174381209Y-81329278D01*
X237119500Y-43315058D02*
X237119500Y-57283717D01*
X259132108Y-59316667D02*
X259132108Y-22437264D01*
X217814217Y-100295045D02*
X231784942Y-100295045D01*
X190552315Y-152279984D02*
X190552315Y-138309778D01*
X228567050Y-138309778D02*
X242537772Y-138309778D01*
X212397495Y-95215251D02*
X212397495Y-81245045D01*
X242198775Y-57283717D02*
X242198775Y-43315058D01*
X231701225Y-62279278D02*
X231701225Y-76250000D01*
X209602315Y-138309778D02*
X223573040Y-138309778D01*
X204523039Y-138309778D02*
X204523039Y-152279984D01*
X242537772Y-152279984D02*
X228567050Y-152279984D01*
X242537772Y-138309778D02*
X242537772Y-152279984D01*
X207318217Y-81245045D02*
X207318217Y-95215251D01*
X256169500Y-38319500D02*
X242198775Y-38319500D01*
X256169500Y-43315058D02*
X256169500Y-57283717D01*
X252782108Y-116297167D02*
X252782108Y-97247167D01*
X218154765Y-57283717D02*
X204184042Y-57283717D01*
X242198775Y-43315058D02*
X242198775Y-43315058D01*
X188351934Y-81329278D02*
X188351934Y-95300000D01*
X193770206Y-76250000D02*
X179800000Y-76250000D01*
X172296065Y-97247167D02*
X177768601Y-97247167D01*
X188351934Y-95300000D02*
X174381209Y-95300000D01*
X237119500Y-57283717D02*
X223148775Y-57283717D01*
X212736492Y-100295045D02*
X212736492Y-114265251D01*
X236780503Y-62279278D02*
X236780503Y-62279278D01*
X223573040Y-152279984D02*
X209602315Y-152279984D01*
X177768601Y-97247167D02*
X177768601Y-116297167D01*
X217730503Y-62279278D02*
X231701225Y-62279278D01*
X256169500Y-57283717D02*
X242198775Y-57283717D01*
X228568601Y-119344010D02*
X242539323Y-119344010D01*
X190552315Y-119344010D02*
X204523039Y-119344010D01*
X207318217Y-95215251D02*
X193347495Y-95215251D01*
X179800000Y-100295045D02*
X179800000Y-100295045D01*
X253775846Y-59348189D02*
X259132108Y-59316667D01*
X223573040Y-138309778D02*
X223573040Y-152279984D01*
X245332434Y-95215251D02*
X231361711Y-95215251D01*
X188521431Y-116297167D02*
X188521431Y-154360477D01*
X198764217Y-76250000D02*
X198764217Y-62279278D01*
X250751225Y-76250000D02*
X236780503Y-76250000D01*
X204523039Y-152279984D02*
X190552315Y-152279984D01*
X179800000Y-114265251D02*
X179800000Y-100295045D01*
X250751225Y-62279278D02*
X250751225Y-76250000D01*
X174381209Y-81329278D02*
X188351934Y-81329278D01*
X212397495Y-81245045D02*
X212397495Y-81245045D01*
X250750709Y-114264217D02*
X236779984Y-114264217D01*
X242198775Y-24265058D02*
X256169500Y-24265058D01*
X204184042Y-43315058D02*
X204184042Y-43315058D01*
X256169500Y-24265058D02*
X256169500Y-38319500D01*
X179800000Y-76250000D02*
X179800000Y-62279278D01*
M02*
